<svg width="616" height="617" viewBox="0 0 616 617" fill="none" xmlns="http://www.w3.org/2000/svg">
<rect y="0.321411" width="616" height="616" rx="205.333" fill="white"/>
<rect x="249.133" y="234.455" width="133.467" height="133.467" rx="20.5333" fill="white"/>
<circle cx="308" cy="308.321" r="224" fill="url(#paint0_linear_124_15113)"/>
<path fill-rule="evenodd" clip-rule="evenodd" d="M269.667 210.044C279.734 199.977 293.388 194.321 307.625 194.321C321.862 194.321 335.516 199.977 345.583 210.044C355.65 220.111 361.306 233.765 361.306 248.002V258.738H382.778C388.362 258.738 393.013 263.018 393.477 268.582L404.213 397.416C404.462 400.408 403.447 403.368 401.414 405.577C399.382 407.786 396.516 409.044 393.514 409.044H221.736C218.734 409.044 215.869 407.786 213.836 405.577C211.803 403.368 210.788 400.408 211.037 397.416L221.773 268.582C222.237 263.018 226.889 258.738 232.472 258.738H253.944V248.002C253.944 233.765 259.6 220.111 269.667 210.044ZM253.944 280.21V290.946C253.944 296.876 258.751 301.682 264.681 301.682C270.61 301.682 275.417 296.876 275.417 290.946V280.21H339.833V290.946C339.833 296.876 344.64 301.682 350.569 301.682C356.499 301.682 361.306 296.876 361.306 290.946V280.21H372.899L381.846 387.571H233.404L242.351 280.21H253.944ZM339.833 258.738H275.417V248.002C275.417 239.46 278.81 231.267 284.85 225.227C290.891 219.187 299.083 215.794 307.625 215.794C316.167 215.794 324.36 219.187 330.4 225.227C336.44 231.267 339.833 239.46 339.833 248.002V258.738Z" fill="white"/>
<defs>
<linearGradient id="paint0_linear_124_15113" x1="308" y1="84.3214" x2="308" y2="532.321" gradientUnits="userSpaceOnUse">
<stop stop-color="#7F7FD5"/>
<stop offset="0.432292" stop-color="#86A8E7"/>
<stop offset="1" stop-color="#91DAEA"/>
</linearGradient>
</defs>
</svg>
