<svg width="616" height="616" viewBox="0 0 616 616" fill="none" xmlns="http://www.w3.org/2000/svg">
<rect width="616" height="616" rx="205.333" fill="#F0F5FF"/>
<path d="M183.188 386.13C160.502 408.137 190.266 431.696 144.602 463.69C144.602 463.69 171.457 472.705 195.792 442.069C204.13 431.503 213.825 427.139 213.825 427.139C217.121 429.078 214.6 439.84 202.869 448.662C202.869 448.662 221.193 449.148 232.633 437.707C244.073 426.267 251.829 409.786 251.829 409.786C259.682 423.552 240.001 441.004 240.001 441.004C240.001 441.004 258.519 436.157 280.527 414.148C297.59 397.085 309.806 354.523 285.278 330.092C260.749 305.66 217.024 310.024 195.598 331.546C186.194 340.95 176.596 355.59 175.335 367.613C175.335 367.613 193.368 348.125 199.767 356.366C199.767 356.366 169.228 374.786 164.283 392.334C164.38 392.334 179.601 383.222 183.188 386.13Z" fill="url(#paint0_linear_125_15244)"/>
<path d="M166.327 402.905C142.574 412.406 157.893 432.377 147.616 442.654C147.616 442.654 161.286 435.189 161.092 420.55C160.898 408.625 166.327 402.905 166.327 402.905Z" fill="url(#paint1_linear_125_15244)"/>
<path d="M171.857 472.223C177.965 471.545 188.242 453.803 202.203 456.711C202.203 456.711 189.696 474.938 171.857 472.223Z" fill="url(#paint2_linear_125_15244)"/>
<path opacity="0.5" d="M246.999 436.639C254.464 433.828 267.165 427.624 280.544 414.147C295.571 399.12 308.079 356.462 283.452 331.933C259.409 307.89 217.236 312.738 196.973 333.001C189.702 340.271 181.946 351.228 178.843 361.309C183.206 357.432 189.702 352.585 195.131 352.003C197.942 351.711 200.172 352.682 201.723 354.621L203.275 356.558L200.56 358.208C200.269 358.401 176.613 372.846 168.566 387.583C174.093 384.772 181.655 381.669 184.757 384.19L186.502 385.644L184.466 387.68C176.032 395.92 175.547 404.356 175.159 414.147C174.48 428.206 173.705 444.008 149.855 462.332C157.999 463.399 176.516 462.914 194.064 440.907C202.79 429.853 212.873 425.201 213.261 425.006L214.424 424.522L215.297 425.006C216.945 425.976 217.72 428.109 217.43 430.92C217.042 434.799 214.521 440.325 209.092 445.947C215.103 445.172 224.507 442.943 231.196 436.253C242.152 425.298 249.714 409.397 249.811 409.203L251.944 404.646L253.98 408.234C259.215 417.54 253.398 428.884 246.999 436.639Z" fill="url(#paint3_linear_125_15244)"/>
<path d="M147.616 442.654C154.305 437.225 161.189 426.561 161.092 420.55C160.995 415.024 162.546 407.267 166.327 402.905C149.652 409.982 151.978 421.132 154.111 426.658C155.081 429.081 153.82 436.256 147.616 442.654Z" fill="url(#paint4_radial_125_15244)"/>
<path d="M160.509 459.04C192.115 448.666 200.55 412.794 220.813 406.59C241.172 400.385 236.034 419.776 228.181 428.599C228.181 428.599 255.036 401.646 255.133 380.608C255.327 359.569 283.539 392.435 274.814 409.498C274.814 409.498 317.957 366.356 283.442 331.938C248.928 297.52 203.071 331.841 203.071 331.841C203.071 331.841 229.247 330.774 226.92 349.776C226.92 349.776 206.755 357.437 190.855 370.136C190.855 370.136 198.611 371.01 203.943 378.958C203.943 378.958 180.19 395.345 181.16 409.401C182.517 427.531 170.689 455.745 160.509 459.04Z" fill="url(#paint5_linear_125_15244)"/>
<path d="M182.609 431.792C197.346 428.107 210.337 393.593 231.085 395.532C242.525 396.599 239.907 406.487 239.907 406.487C239.907 406.487 247.857 395.145 249.699 379.923C251.541 364.702 279.948 369.84 278.688 398.538C278.688 398.538 309.906 357.916 271.998 332.03C230.212 303.527 199.576 339.3 199.576 339.3C199.576 339.3 228.176 329.799 232.636 352.486C232.636 352.486 208.98 359.078 200.255 367.804C200.255 367.804 210.337 369.258 212.761 380.019C212.761 380.019 189.493 397.083 190.172 403.869C191.82 420.06 182.609 431.792 182.609 431.792Z" fill="url(#paint6_linear_125_15244)"/>
<path opacity="0.5" d="M183.188 386.13C160.502 408.137 190.266 431.696 144.602 463.69C144.602 463.69 171.457 472.705 195.792 442.069C204.13 431.503 213.825 427.139 213.825 427.139C217.121 429.078 214.6 439.84 202.869 448.662C202.869 448.662 221.193 449.148 232.633 437.707C244.073 426.267 251.829 409.786 251.829 409.786C259.682 423.552 240.001 441.004 240.001 441.004C240.001 441.004 258.519 436.157 280.527 414.148C297.59 397.085 309.806 354.523 285.278 330.092C260.749 305.66 217.024 310.024 195.598 331.546C186.194 340.95 176.596 355.59 175.335 367.613C175.335 367.613 193.368 348.125 199.767 356.366C199.767 356.366 169.228 374.786 164.283 392.334C164.38 392.334 179.601 383.222 183.188 386.13Z" fill="url(#paint7_radial_125_15244)"/>
<path opacity="0.5" d="M183.188 386.13C160.502 408.137 190.266 431.696 144.602 463.69C144.602 463.69 171.457 472.705 195.792 442.069C204.13 431.503 213.825 427.139 213.825 427.139C217.121 429.078 214.6 439.84 202.869 448.662C202.869 448.662 221.193 449.148 232.633 437.707C244.073 426.267 251.829 409.786 251.829 409.786C259.682 423.552 240.001 441.004 240.001 441.004C240.001 441.004 258.519 436.157 280.527 414.148C297.59 397.085 309.806 354.523 285.278 330.092C260.749 305.66 217.024 310.024 195.598 331.546C186.194 340.95 176.596 355.59 175.335 367.613C175.335 367.613 193.368 348.125 199.767 356.366C199.767 356.366 169.228 374.786 164.283 392.334C164.38 392.334 179.601 383.222 183.188 386.13Z" fill="url(#paint8_radial_125_15244)"/>
<path d="M269.1 421.421C291.205 397.862 303.711 355.785 280.637 332.711C257.563 309.637 215.098 329.028 196.29 346.381C196.29 346.381 211.317 340.08 223.145 347.641C234.973 355.203 201.137 368.293 194.06 389.039C194.06 389.039 224.212 370.909 233.713 378.569C243.214 386.228 233.616 410.369 224.503 419.482C224.503 419.482 246.122 408.43 257.757 394.178C275.498 372.365 269.1 421.421 269.1 421.421Z" fill="url(#paint9_radial_125_15244)"/>
<path opacity="0.5" d="M183.188 386.13C160.502 408.137 190.266 431.696 144.602 463.69C144.602 463.69 171.457 472.705 195.792 442.069C204.13 431.503 213.825 427.139 213.825 427.139C217.121 429.078 214.6 439.84 202.869 448.662C202.869 448.662 221.193 449.148 232.633 437.707C244.073 426.267 251.829 409.786 251.829 409.786C259.682 423.552 240.001 441.004 240.001 441.004C240.001 441.004 258.519 436.157 280.527 414.148C297.59 397.085 309.806 354.523 285.278 330.092C260.749 305.66 217.024 310.024 195.598 331.546C186.194 340.95 176.596 355.59 175.335 367.613C175.335 367.613 193.368 348.125 199.767 356.366C199.767 356.366 169.228 374.786 164.283 392.334C164.38 392.334 179.601 383.222 183.188 386.13Z" fill="url(#paint10_radial_125_15244)"/>
<path opacity="0.5" d="M166.327 402.905C142.574 412.406 157.893 432.377 147.616 442.654C147.616 442.654 161.286 435.189 161.092 420.55C160.898 408.625 166.327 402.905 166.327 402.905Z" fill="url(#paint11_radial_125_15244)"/>
<path d="M171.857 472.216C177.965 471.538 186.885 459.03 202.203 456.704C202.203 456.704 189.696 474.931 171.857 472.216Z" fill="url(#paint12_radial_125_15244)"/>
<path opacity="0.5" d="M171.857 472.223C177.965 471.545 188.242 453.803 202.203 456.711C202.203 456.711 189.696 474.938 171.857 472.223Z" fill="url(#paint13_radial_125_15244)"/>
<path opacity="0.5" d="M183.188 386.13C160.502 408.137 190.266 431.696 144.602 463.69C144.602 463.69 171.457 472.705 195.792 442.069C204.13 431.503 213.825 427.139 213.825 427.139C217.121 429.078 214.6 439.84 202.869 448.662C202.869 448.662 221.193 449.148 232.633 437.707C244.073 426.267 251.829 409.786 251.829 409.786C259.682 423.552 240.001 441.004 240.001 441.004C240.001 441.004 258.519 436.157 280.527 414.148C297.59 397.085 309.806 354.523 285.278 330.092C260.749 305.66 217.024 310.024 195.598 331.546C186.194 340.95 176.596 355.59 175.335 367.613C175.335 367.613 193.368 348.125 199.767 356.366C199.767 356.366 169.228 374.786 164.283 392.334C164.38 392.334 179.601 383.222 183.188 386.13Z" fill="url(#paint14_radial_125_15244)"/>
<path opacity="0.25" d="M183.188 386.13C160.502 408.137 190.266 431.696 144.602 463.69C144.602 463.69 171.457 472.705 195.792 442.069C204.13 431.503 213.825 427.139 213.825 427.139C217.121 429.078 214.6 439.84 202.869 448.662C202.869 448.662 221.193 449.148 232.633 437.707C244.073 426.267 251.829 409.786 251.829 409.786C259.682 423.552 240.001 441.004 240.001 441.004C240.001 441.004 258.519 436.157 280.527 414.148C297.59 397.085 309.806 354.523 285.278 330.092C260.749 305.66 217.024 310.024 195.598 331.546C186.194 340.95 176.596 355.59 175.335 367.613C175.335 367.613 193.368 348.125 199.767 356.366C199.767 356.366 169.228 374.786 164.283 392.334C164.38 392.334 179.601 383.222 183.188 386.13Z" fill="url(#paint15_radial_125_15244)"/>
<path opacity="0.75" d="M183.188 386.13C160.502 408.137 190.266 431.696 144.602 463.69C144.602 463.69 171.457 472.705 195.792 442.069C204.13 431.503 213.825 427.139 213.825 427.139C217.121 429.078 214.6 439.84 202.869 448.662C202.869 448.662 221.193 449.148 232.633 437.707C244.073 426.267 251.829 409.786 251.829 409.786C259.682 423.552 240.001 441.004 240.001 441.004C240.001 441.004 258.519 436.157 280.527 414.148C297.59 397.085 309.806 354.523 285.278 330.092C260.749 305.66 217.024 310.024 195.598 331.546C186.194 340.95 176.596 355.59 175.335 367.613C175.335 367.613 193.368 348.125 199.767 356.366C199.767 356.366 169.228 374.786 164.283 392.334C164.38 392.334 179.601 383.222 183.188 386.13Z" fill="url(#paint16_radial_125_15244)"/>
<path d="M366.326 364.512C364.095 342.893 369.137 319.916 380.578 299.168L384.164 292.575L328.223 329.125L323.571 362.768L301.755 383.709C306.409 401.936 306.604 419.775 306.604 419.775C343.735 397.573 366.326 364.512 366.326 364.512Z" fill="url(#paint17_linear_125_15244)"/>
<path d="M306.718 419.866C306.718 419.866 306.622 401.833 301.871 383.801L311.082 374.979C313.893 381.183 319.419 395.145 320.777 410.559C316.316 413.662 311.662 416.958 306.718 419.866Z" fill="url(#paint18_linear_125_15244)"/>
<path opacity="0.75" d="M366.326 364.512C364.095 342.893 369.137 319.916 380.578 299.168L384.164 292.575L328.223 329.125L323.571 362.768L301.755 383.709C306.409 401.936 306.604 419.775 306.604 419.775C343.735 397.573 366.326 364.512 366.326 364.512Z" fill="url(#paint19_radial_125_15244)"/>
<path d="M371.769 319.229C374.097 312.443 377.005 305.656 380.592 299.16L382.628 295.476C382.143 295.186 381.659 294.894 381.174 294.604L328.336 329.216L325.136 351.901C337.158 346.957 354.221 336.874 371.769 319.229Z" fill="url(#paint20_linear_125_15244)"/>
<path d="M311.07 234.982C310.488 233.625 310.197 232.655 309.713 231.395C288.868 241.284 265.309 244.095 242.623 239.829C242.623 239.829 209.078 261.837 188.428 300.811C188.428 300.811 207.624 302.654 227.79 309.537L248.44 287.335L281.792 285.395C289.257 268.624 298.273 250.688 311.07 234.982Z" fill="url(#paint21_linear_125_15244)"/>
<path d="M188.428 300.712C188.428 300.712 207.624 302.555 227.79 309.438L236.612 299.937C229.535 296.254 214.217 289.175 197.25 286.171C194.148 290.728 191.142 295.575 188.428 300.712Z" fill="url(#paint22_linear_125_15244)"/>
<path opacity="0.75" d="M311.07 234.982C310.488 233.625 310.197 232.655 309.713 231.395C288.868 241.284 265.309 244.095 242.623 239.829C242.623 239.829 209.078 261.837 188.428 300.811C188.428 300.811 207.624 302.654 227.79 309.537L248.44 287.335L281.792 285.395C289.257 268.624 298.273 250.688 311.07 234.982Z" fill="url(#paint23_radial_125_15244)"/>
<path d="M309.722 231.295C301.578 237.5 276.081 262.125 267.161 286.072L281.704 285.2C289.169 268.621 300.512 250.297 313.308 234.591L309.722 231.295Z" fill="url(#paint24_linear_125_15244)"/>
<path d="M318.538 226.553C327.167 240.611 338.608 254.572 351.307 266.981C351.889 267.563 352.567 268.145 353.149 268.726C363.911 279.002 375.545 288.117 387.374 295.389C388.439 294.321 389.507 293.353 390.572 292.285C421.111 261.746 438.853 238.769 454.075 209.587C443.217 188.548 425.378 170.71 404.34 159.851C375.158 175.072 352.277 192.717 321.641 223.354C320.574 224.42 319.509 225.487 318.538 226.553Z" fill="url(#paint25_linear_125_15244)"/>
<path d="M453.985 209.582C474.634 169.93 472.018 148.6 468.625 145.207C465.232 141.814 443.998 139.196 404.25 159.847C425.288 170.705 443.126 188.544 453.985 209.582Z" fill="url(#paint26_linear_125_15244)"/>
<path d="M283.544 330.381C294.501 341.338 304.582 349.384 307.297 349.384C331.923 338.624 361.299 320.59 387.38 295.383C375.647 288.111 363.917 278.999 353.155 268.722C352.573 268.14 351.895 267.558 351.313 266.977C338.613 254.567 327.173 240.606 318.544 226.548C293.337 252.628 275.304 282.197 264.542 306.824C264.93 309.828 272.783 319.718 283.544 330.381Z" fill="url(#paint27_linear_125_15244)"/>
<path opacity="0.75" d="M283.544 330.381C294.501 341.338 304.582 349.384 307.297 349.384C331.923 338.624 361.299 320.59 387.38 295.383C375.647 288.111 363.917 278.999 353.155 268.722C352.573 268.14 351.895 267.558 351.313 266.977C338.613 254.567 327.173 240.606 318.544 226.548C293.337 252.628 275.304 282.197 264.542 306.824C264.93 309.828 272.783 319.718 283.544 330.381Z" fill="url(#paint28_radial_125_15244)"/>
<path opacity="0.5" d="M353.151 268.722C352.569 268.14 351.89 267.558 351.308 266.977C338.609 254.567 327.169 240.606 318.54 226.548C317.861 227.227 317.279 227.905 316.697 228.584C334.342 261.935 388.247 293.734 347.14 310.507C320.189 321.559 308.07 334.648 301.573 346.282C304.288 348.318 306.421 349.384 307.391 349.384C332.016 338.624 361.391 320.59 387.472 295.383C375.546 288.111 363.913 278.999 353.151 268.722Z" fill="url(#paint29_radial_125_15244)"/>
<path d="M283.542 330.383C272.877 319.718 265.024 309.828 264.54 306.823L249.415 313.513C247.67 315.257 257.559 328.152 271.714 342.21C285.771 356.268 298.665 366.253 300.411 364.509L307.295 349.385C304.58 349.385 294.497 341.338 283.542 330.383Z" fill="url(#paint30_linear_125_15244)"/>
<path d="M283.542 330.383C272.877 319.718 265.024 309.828 264.54 306.823L249.415 313.513C247.67 315.257 257.559 328.152 271.714 342.21C285.771 356.268 298.665 366.253 300.411 364.509L307.295 349.385C304.58 349.385 294.497 341.338 283.542 330.383Z" fill="url(#paint31_linear_125_15244)"/>
<path d="M449.811 217.343C450.004 217.052 453.883 209.878 453.979 209.587C443.121 188.548 425.281 170.71 404.243 159.851C403.953 160.045 403.662 160.142 403.371 160.336C424.022 172.067 447.386 198.437 449.811 217.343Z" fill="url(#paint32_linear_125_15244)"/>
<path opacity="0.75" d="M468.619 145.207C465.226 141.814 443.994 139.196 404.244 159.847C375.062 175.068 352.183 192.713 321.545 223.349C320.48 224.416 319.509 225.482 318.444 226.549C293.237 252.628 275.203 282.199 264.442 306.824C264.927 309.828 272.78 319.718 283.444 330.383C294.399 341.338 304.482 349.385 307.197 349.385C331.823 338.624 361.199 320.59 387.278 295.383C388.345 294.318 389.412 293.347 390.478 292.282C421.017 261.742 438.759 238.764 453.981 209.582C474.727 169.93 472.109 148.6 468.619 145.207Z" fill="url(#paint33_radial_125_15244)"/>
<path d="M260.068 379.834C292.643 353.559 318.142 324.281 318.821 323.505L313.778 318.463C313.778 318.463 287.214 347.452 255.512 375.276L260.068 379.834Z" fill="url(#paint34_linear_125_15244)"/>
<path d="M313.694 318.461C319.608 307.216 329.593 293.061 342.391 277.84C342.1 277.548 341.809 277.258 341.422 276.966C327.557 290.153 313.79 302.076 301.478 312.548L287.129 333.586L265.509 354.818C261.728 364.319 255.329 375.274 255.329 375.274C287.129 347.45 313.694 318.461 313.694 318.461Z" fill="url(#paint35_linear_125_15244)"/>
<path d="M266.661 365.189C266.661 365.189 274.223 351.519 273.544 347.06L265.594 354.912C261.813 364.413 255.415 375.368 255.415 375.368C259.293 371.878 262.977 368.485 266.661 365.189Z" fill="url(#paint36_linear_125_15244)"/>
<path d="M318.821 323.508C323.086 310.517 332.684 295.975 344.996 280.171C344.124 279.395 343.349 278.62 342.477 277.845C329.679 293.065 319.693 307.22 313.778 318.467C313.778 318.467 287.214 347.454 255.512 375.279L260.165 379.836C293.032 353.272 318.821 323.508 318.821 323.508Z" fill="url(#paint37_linear_125_15244)"/>
<path d="M260.068 379.834C292.643 353.559 318.142 324.281 318.821 323.505L313.778 318.463C313.778 318.463 287.214 347.452 255.512 375.276L260.068 379.834Z" fill="url(#paint38_linear_125_15244)"/>
<path opacity="0.75" d="M313.694 318.461C319.608 307.216 329.593 293.061 342.391 277.84C342.1 277.548 341.809 277.258 341.422 276.966C327.557 290.153 313.79 302.076 301.478 312.548L287.129 333.586L265.509 354.818C261.728 364.319 255.329 375.274 255.329 375.274C287.129 347.45 313.694 318.461 313.694 318.461Z" fill="url(#paint39_radial_125_15244)"/>
<path opacity="0.75" d="M468.619 145.207C465.226 141.814 443.994 139.196 404.244 159.847C375.062 175.068 352.183 192.713 321.545 223.349C320.48 224.416 319.509 225.482 318.444 226.549C293.237 252.628 275.203 282.199 264.442 306.824C264.927 309.828 272.78 319.718 283.444 330.383C294.399 341.338 304.482 349.385 307.197 349.385C331.823 338.624 361.199 320.59 387.278 295.383C388.345 294.318 389.412 293.347 390.478 292.282C421.017 261.742 438.759 238.764 453.981 209.582C474.727 169.93 472.109 148.6 468.619 145.207Z" fill="url(#paint40_radial_125_15244)"/>
<g opacity="0.16">
<path opacity="0.16" d="M399.299 283.556C386.501 275.994 373.218 265.717 360.616 253.211C348.108 240.704 337.831 227.422 330.27 214.527" stroke="black" stroke-width="10.0219" stroke-miterlimit="10" stroke-linecap="round" stroke-linejoin="round"/>
<path opacity="0.16" d="M437.304 214.437C440.212 218.024 442.83 221.514 445.351 225.004" stroke="black" stroke-width="10.0219" stroke-miterlimit="10" stroke-linecap="round" stroke-linejoin="round"/>
<g opacity="0.16">
<path opacity="0.16" d="M421.598 170.613C420.337 171.485 419.076 172.455 417.817 173.424C392.415 192.427 370.892 211.526 340.353 242.065C339.287 243.132 338.22 244.198 337.251 245.265C336.281 246.331 335.215 247.301 334.245 248.367" stroke="black" stroke-width="10.0219" stroke-miterlimit="10" stroke-linecap="round" stroke-linejoin="round"/>
</g>
<path opacity="0.16" d="M385.827 274.739C412.681 247.399 429.842 226.651 446.032 201.638C446.71 200.669 447.292 199.699 447.874 198.729" stroke="black" stroke-width="10.0219" stroke-miterlimit="10" stroke-linecap="round" stroke-linejoin="round"/>
</g>
<path opacity="0.75" d="M300.414 342.499C322.712 329.508 350.344 309.537 376.229 284.232L300.414 342.499Z" fill="url(#paint41_radial_125_15244)"/>
<path d="M400.355 229.167C387.946 240.607 369.526 240.704 359.247 229.361C348.971 218.017 350.813 199.5 363.223 188.06C375.633 176.62 394.054 176.523 404.33 187.866C414.607 199.209 412.764 217.727 400.355 229.167Z" fill="url(#paint42_linear_125_15244)"/>
<path d="M395.023 222.765C384.843 232.169 369.72 232.266 361.286 222.959C352.85 213.651 354.304 198.43 364.58 189.026C374.762 179.622 389.886 179.525 398.32 188.832C406.659 198.139 405.203 213.361 395.023 222.765Z" fill="url(#paint43_linear_125_15244)"/>
<path d="M392.609 220.248C383.495 228.682 370.018 228.682 362.553 220.441C355.088 212.104 356.349 198.628 365.461 190.193C374.575 181.758 388.052 181.758 395.517 189.999C402.982 198.24 401.722 211.813 392.609 220.248Z" fill="url(#paint44_radial_125_15244)"/>
<path opacity="0.5" d="M392.609 220.248C383.495 228.682 370.018 228.682 362.553 220.441C355.088 212.104 356.349 198.628 365.461 190.193C374.575 181.758 388.052 181.758 395.517 189.999C402.982 198.24 401.722 211.813 392.609 220.248Z" fill="url(#paint45_radial_125_15244)"/>
<path opacity="0.5" d="M393.774 196.207C397.168 199.988 399.01 204.739 399.397 209.684C401.53 202.8 400.367 195.335 395.52 190.003C388.055 181.665 374.579 181.762 365.464 190.196C364.592 191.069 363.72 191.941 362.945 192.911C373.318 186.609 386.116 187.773 393.774 196.207Z" fill="black"/>
<path d="M395.517 190.003C388.052 181.665 374.575 181.762 365.461 190.196C356.349 198.631 355.088 212.107 362.553 220.445C363.328 221.317 364.104 221.899 363.62 221.511C356.93 214.822 358.966 201.055 367.595 192.426C374.575 185.446 387.955 182.925 395.517 190.003Z" fill="url(#paint46_linear_125_15244)"/>
<path opacity="0.5" d="M395.527 189.999C387.965 182.825 374.488 185.442 367.605 192.326C359.365 200.567 357.135 213.558 362.758 220.539C363.63 221.023 364.019 221.896 363.533 221.508C363.243 221.217 362.951 220.926 362.758 220.539C362.661 220.539 362.565 220.442 362.466 220.442C369.931 228.779 383.408 228.682 392.522 220.248C401.731 211.813 403.089 198.337 395.527 189.999Z" fill="url(#paint47_radial_125_15244)"/>
<path d="M454.171 209.29C443.313 188.252 425.668 170.51 404.629 159.652" stroke="#008EE6" stroke-width="15.0328" stroke-miterlimit="10" stroke-linecap="round" stroke-linejoin="round"/>
<path d="M387.374 295.383C375.642 288.111 363.911 278.999 353.149 268.722C352.567 268.14 351.889 267.558 351.307 266.977C338.608 254.567 327.167 240.606 318.538 226.548" stroke="#008EE6" stroke-width="15.0328" stroke-miterlimit="10" stroke-linecap="round" stroke-linejoin="round"/>
<defs>
<linearGradient id="paint0_linear_125_15244" x1="279.879" y1="317.411" x2="125.498" y2="521.219" gradientUnits="userSpaceOnUse">
<stop stop-color="#FF0000"/>
<stop offset="0.2317" stop-color="#FF1500"/>
<stop offset="0.7367" stop-color="#FF3D00"/>
<stop offset="0.9987" stop-color="#FF4C00"/>
</linearGradient>
<linearGradient id="paint1_linear_125_15244" x1="250.233" y1="298.237" x2="97.7131" y2="499.588" gradientUnits="userSpaceOnUse">
<stop stop-color="#FF0000"/>
<stop offset="0.2317" stop-color="#FF1500"/>
<stop offset="0.7367" stop-color="#FF3D00"/>
<stop offset="0.9987" stop-color="#FF4C00"/>
</linearGradient>
<linearGradient id="paint2_linear_125_15244" x1="293.792" y1="323.571" x2="137.338" y2="530.112" gradientUnits="userSpaceOnUse">
<stop stop-color="#FF0000"/>
<stop offset="0.2317" stop-color="#FF1500"/>
<stop offset="0.7367" stop-color="#FF3D00"/>
<stop offset="0.9987" stop-color="#FF4C00"/>
</linearGradient>
<linearGradient id="paint3_linear_125_15244" x1="249.309" y1="349.363" x2="149.888" y2="555.921" gradientUnits="userSpaceOnUse">
<stop stop-color="#FF8000"/>
<stop offset="0.6388" stop-color="#FF5B00"/>
<stop offset="0.9987" stop-color="#FF4C00"/>
</linearGradient>
<radialGradient id="paint4_radial_125_15244" cx="0" cy="0" r="1" gradientUnits="userSpaceOnUse" gradientTransform="translate(107.309 457.472) rotate(-135) scale(80.1839 101.821)">
<stop offset="0.00134333" stop-color="#FFED1C" stop-opacity="0.6"/>
<stop offset="0.9477" stop-color="#FFED1C" stop-opacity="0.0264782"/>
<stop offset="0.9914" stop-color="#FFED1C" stop-opacity="0"/>
</radialGradient>
<linearGradient id="paint5_linear_125_15244" x1="168.674" y1="472.407" x2="258.39" y2="343.762" gradientUnits="userSpaceOnUse">
<stop stop-color="#FF8000"/>
<stop offset="0.022669" stop-color="#FE7F02" stop-opacity="0.9773"/>
<stop offset="0.6663" stop-color="#ED582A" stop-opacity="0.3337"/>
<stop offset="1" stop-color="#E74939" stop-opacity="0"/>
</linearGradient>
<linearGradient id="paint6_linear_125_15244" x1="271.745" y1="339.344" x2="190.613" y2="412.035" gradientUnits="userSpaceOnUse">
<stop stop-color="#FFBC47"/>
<stop offset="0.1869" stop-color="#FFB137" stop-opacity="0.8131"/>
<stop offset="0.7223" stop-color="#FF940F" stop-opacity="0.2777"/>
<stop offset="1" stop-color="#FF8900" stop-opacity="0"/>
</linearGradient>
<radialGradient id="paint7_radial_125_15244" cx="0" cy="0" r="1" gradientUnits="userSpaceOnUse" gradientTransform="translate(251.139 360.879) rotate(-135) scale(62.0267 63.9343)">
<stop offset="0.00134333" stop-color="#FFBC47"/>
<stop offset="0.2941" stop-color="#FFBF4B" stop-opacity="0.7068"/>
<stop offset="0.5624" stop-color="#FEC656" stop-opacity="0.4382"/>
<stop offset="0.8201" stop-color="#FCD368" stop-opacity="0.1801"/>
<stop offset="1" stop-color="#FBE07A" stop-opacity="0"/>
</radialGradient>
<radialGradient id="paint8_radial_125_15244" cx="0" cy="0" r="1" gradientUnits="userSpaceOnUse" gradientTransform="translate(248.85 363.169) rotate(-135) scale(60.1155 61.9641)">
<stop offset="0.00134333" stop-color="white"/>
<stop offset="1" stop-color="white" stop-opacity="0"/>
</radialGradient>
<radialGradient id="paint9_radial_125_15244" cx="0" cy="0" r="1" gradientUnits="userSpaceOnUse" gradientTransform="translate(277.914 371.398) rotate(-135) scale(73.8475 109.196)">
<stop offset="0.00134333" stop-color="#FFED1C" stop-opacity="0.6"/>
<stop offset="0.9477" stop-color="#FFED1C" stop-opacity="0.0264782"/>
<stop offset="0.9914" stop-color="#FFED1C" stop-opacity="0"/>
</radialGradient>
<radialGradient id="paint10_radial_125_15244" cx="0" cy="0" r="1" gradientUnits="userSpaceOnUse" gradientTransform="translate(249.762 362.679) rotate(-42.7273) scale(29.6326 18.9563)">
<stop offset="0.00134333" stop-color="white"/>
<stop offset="1" stop-color="white" stop-opacity="0"/>
</radialGradient>
<radialGradient id="paint11_radial_125_15244" cx="0" cy="0" r="1" gradientUnits="userSpaceOnUse" gradientTransform="translate(148.965 444.814) rotate(-135) scale(26.4921 33.6407)">
<stop offset="0.00134333" stop-color="#FFED1C"/>
<stop offset="0.1997" stop-color="#FFEE2B" stop-opacity="0.8013"/>
<stop offset="0.5839" stop-color="#FFF254" stop-opacity="0.4167"/>
<stop offset="1" stop-color="#FFF686" stop-opacity="0"/>
</radialGradient>
<radialGradient id="paint12_radial_125_15244" cx="0" cy="0" r="1" gradientUnits="userSpaceOnUse" gradientTransform="translate(191.71 463.947) rotate(162.598) scale(25.6205 5.18398)">
<stop offset="0.00134333" stop-color="#FFED1C" stop-opacity="0.6"/>
<stop offset="0.9477" stop-color="#FFED1C" stop-opacity="0.0264782"/>
<stop offset="0.9914" stop-color="#FFED1C" stop-opacity="0"/>
</radialGradient>
<radialGradient id="paint13_radial_125_15244" cx="0" cy="0" r="1" gradientUnits="userSpaceOnUse" gradientTransform="translate(173.569 475.963) rotate(-41.019) scale(24.4536 7.76936)">
<stop offset="0.00134333" stop-color="#FFED1C"/>
<stop offset="0.1997" stop-color="#FFEE2B" stop-opacity="0.8013"/>
<stop offset="0.5839" stop-color="#FFF254" stop-opacity="0.4167"/>
<stop offset="1" stop-color="#FFF686" stop-opacity="0"/>
</radialGradient>
<radialGradient id="paint14_radial_125_15244" cx="0" cy="0" r="1" gradientUnits="userSpaceOnUse" gradientTransform="translate(150.066 452.027) rotate(-135) scale(82.6632 104.969)">
<stop offset="0.00134333" stop-color="#FF4C00"/>
<stop offset="0.135" stop-color="#FF5B0C" stop-opacity="0.8661"/>
<stop offset="0.3941" stop-color="#FF842C" stop-opacity="0.6067"/>
<stop offset="0.7491" stop-color="#FFC45F" stop-opacity="0.2512"/>
<stop offset="1" stop-color="#FFF686" stop-opacity="0"/>
</radialGradient>
<radialGradient id="paint15_radial_125_15244" cx="0" cy="0" r="1" gradientUnits="userSpaceOnUse" gradientTransform="translate(183.614 365.309) rotate(-135) scale(43.8763 55.7159)">
<stop offset="0.00134333" stop-color="#FFED1C"/>
<stop offset="0.1997" stop-color="#FFEE2B" stop-opacity="0.8013"/>
<stop offset="0.5839" stop-color="#FFF254" stop-opacity="0.4167"/>
<stop offset="1" stop-color="#FFF686" stop-opacity="0"/>
</radialGradient>
<radialGradient id="paint16_radial_125_15244" cx="0" cy="0" r="1" gradientUnits="userSpaceOnUse" gradientTransform="translate(248.807 367.331) rotate(-135) scale(91.7507 116.509)">
<stop offset="0.00134333" stop-color="#FFED1C"/>
<stop offset="0.1997" stop-color="#FFEE2B" stop-opacity="0.8013"/>
<stop offset="0.5839" stop-color="#FFF254" stop-opacity="0.4167"/>
<stop offset="1" stop-color="#FFF686" stop-opacity="0"/>
</radialGradient>
<linearGradient id="paint17_linear_125_15244" x1="272.156" y1="429.003" x2="371.584" y2="321.777" gradientUnits="userSpaceOnUse">
<stop stop-color="#BD2719"/>
<stop offset="0.2151" stop-color="#D41A10"/>
<stop offset="0.5049" stop-color="#EC0C07"/>
<stop offset="0.774" stop-color="#FA0302"/>
<stop offset="1" stop-color="#FF0000"/>
</linearGradient>
<linearGradient id="paint18_linear_125_15244" x1="329.979" y1="378.759" x2="298.787" y2="409.395" gradientUnits="userSpaceOnUse">
<stop stop-color="#FC8D41"/>
<stop offset="0.0900324" stop-color="#FC7837"/>
<stop offset="0.294" stop-color="#FD4D24"/>
<stop offset="0.4922" stop-color="#FE2C14"/>
<stop offset="0.6802" stop-color="#FF1409"/>
<stop offset="0.854" stop-color="#FF0502"/>
<stop offset="1" stop-color="#FF0000"/>
</linearGradient>
<radialGradient id="paint19_radial_125_15244" cx="0" cy="0" r="1" gradientUnits="userSpaceOnUse" gradientTransform="translate(257.815 415.462) rotate(45) scale(134.516)">
<stop offset="0.00134333" stop-color="#FFED1C"/>
<stop offset="0.1997" stop-color="#FFEE2B" stop-opacity="0.8013"/>
<stop offset="0.5839" stop-color="#FFF254" stop-opacity="0.4167"/>
<stop offset="1" stop-color="#FFF686" stop-opacity="0"/>
</radialGradient>
<linearGradient id="paint20_linear_125_15244" x1="332.304" y1="344.78" x2="486.411" y2="166.162" gradientUnits="userSpaceOnUse">
<stop stop-color="#BD2719"/>
<stop offset="0.2151" stop-color="#D41A10"/>
<stop offset="0.5049" stop-color="#EC0C07"/>
<stop offset="0.774" stop-color="#FA0302"/>
<stop offset="1" stop-color="#FF0000"/>
</linearGradient>
<linearGradient id="paint21_linear_125_15244" x1="176.508" y1="304.53" x2="270.403" y2="258.449" gradientUnits="userSpaceOnUse">
<stop stop-color="#BD2719"/>
<stop offset="0.2151" stop-color="#D41A10"/>
<stop offset="0.5049" stop-color="#EC0C07"/>
<stop offset="0.774" stop-color="#FA0302"/>
<stop offset="1" stop-color="#FF0000"/>
</linearGradient>
<linearGradient id="paint22_linear_125_15244" x1="230.109" y1="277.324" x2="200.586" y2="312.416" gradientUnits="userSpaceOnUse">
<stop stop-color="#FC8D41"/>
<stop offset="0.0900324" stop-color="#FC7837"/>
<stop offset="0.294" stop-color="#FD4D24"/>
<stop offset="0.4922" stop-color="#FE2C14"/>
<stop offset="0.6802" stop-color="#FF1409"/>
<stop offset="0.854" stop-color="#FF0502"/>
<stop offset="1" stop-color="#FF0000"/>
</linearGradient>
<radialGradient id="paint23_radial_125_15244" cx="0" cy="0" r="1" gradientUnits="userSpaceOnUse" gradientTransform="translate(244.453 361.983) rotate(45) scale(144.686)">
<stop offset="0.00134333" stop-color="#FFED1C"/>
<stop offset="0.1997" stop-color="#FFEE2B" stop-opacity="0.8013"/>
<stop offset="0.5839" stop-color="#FFF254" stop-opacity="0.4167"/>
<stop offset="1" stop-color="#FFF686" stop-opacity="0"/>
</radialGradient>
<linearGradient id="paint24_linear_125_15244" x1="306.359" y1="257.861" x2="154.926" y2="264.943" gradientUnits="userSpaceOnUse">
<stop stop-color="#BD2719"/>
<stop offset="0.2151" stop-color="#D41A10"/>
<stop offset="0.5049" stop-color="#EC0C07"/>
<stop offset="0.774" stop-color="#FA0302"/>
<stop offset="1" stop-color="#FF0000"/>
</linearGradient>
<linearGradient id="paint25_linear_125_15244" x1="361.141" y1="192.945" x2="422.082" y2="253.886" gradientUnits="userSpaceOnUse">
<stop stop-color="#BBCACC"/>
<stop offset="0.3717" stop-color="white"/>
<stop offset="1" stop-color="#99AFB3"/>
</linearGradient>
<linearGradient id="paint26_linear_125_15244" x1="464.448" y1="188.816" x2="431.272" y2="145.761" gradientUnits="userSpaceOnUse">
<stop stop-color="#008EE6"/>
<stop offset="0.688" stop-color="#80DAFE"/>
<stop offset="0.7325" stop-color="#76D5FB"/>
<stop offset="0.8071" stop-color="#5CC8F3"/>
<stop offset="0.9026" stop-color="#32B2E6"/>
<stop offset="1" stop-color="#0099D6"/>
</linearGradient>
<linearGradient id="paint27_linear_125_15244" x1="347.717" y1="324.894" x2="278.463" y2="256.011" gradientUnits="userSpaceOnUse">
<stop stop-color="#008EE6"/>
<stop offset="0.688" stop-color="#80DAFE"/>
<stop offset="0.7325" stop-color="#76D5FB"/>
<stop offset="0.8071" stop-color="#5CC8F3"/>
<stop offset="0.9026" stop-color="#32B2E6"/>
<stop offset="1" stop-color="#0099D6"/>
</linearGradient>
<radialGradient id="paint28_radial_125_15244" cx="0" cy="0" r="1" gradientUnits="userSpaceOnUse" gradientTransform="translate(300.702 347.736) rotate(45) scale(65.8969 120.61)">
<stop stop-opacity="0.75"/>
<stop offset="1" stop-opacity="0"/>
</radialGradient>
<radialGradient id="paint29_radial_125_15244" cx="0" cy="0" r="1" gradientUnits="userSpaceOnUse" gradientTransform="translate(377.493 332.212) rotate(45) scale(65.8969 120.61)">
<stop stop-opacity="0.75"/>
<stop offset="1" stop-opacity="0"/>
</radialGradient>
<linearGradient id="paint30_linear_125_15244" x1="258.033" y1="306.236" x2="301.472" y2="363.274" gradientUnits="userSpaceOnUse">
<stop/>
<stop offset="0.1962" stop-color="#4D4D4C"/>
<stop offset="0.7655"/>
</linearGradient>
<linearGradient id="paint31_linear_125_15244" x1="258.033" y1="306.236" x2="301.472" y2="363.274" gradientUnits="userSpaceOnUse">
<stop stop-opacity="0"/>
<stop offset="0.1975" stop-color="#CFDCDE" stop-opacity="0.5"/>
<stop offset="0.7655" stop-opacity="0"/>
</linearGradient>
<linearGradient id="paint32_linear_125_15244" x1="349.014" y1="170.786" x2="448.628" y2="193.531" gradientUnits="userSpaceOnUse">
<stop stop-color="#BBCACC"/>
<stop offset="0.3717" stop-color="white"/>
<stop offset="1" stop-color="#99AFB3"/>
</linearGradient>
<radialGradient id="paint33_radial_125_15244" cx="0" cy="0" r="1" gradientUnits="userSpaceOnUse" gradientTransform="translate(378.581 295.589) rotate(44.2342) scale(42.517 137.683)">
<stop stop-color="#440063" stop-opacity="0.75"/>
<stop offset="1" stop-color="#420061" stop-opacity="0"/>
</radialGradient>
<linearGradient id="paint34_linear_125_15244" x1="252.763" y1="371.186" x2="367.231" y2="297.381" gradientUnits="userSpaceOnUse">
<stop stop-color="#BD2719"/>
<stop offset="0.2151" stop-color="#D41A10"/>
<stop offset="0.5049" stop-color="#EC0C07"/>
<stop offset="0.774" stop-color="#FA0302"/>
<stop offset="1" stop-color="#FF0000"/>
</linearGradient>
<linearGradient id="paint35_linear_125_15244" x1="234.18" y1="375.076" x2="293.217" y2="330.127" gradientUnits="userSpaceOnUse">
<stop stop-color="#BD2719"/>
<stop offset="0.2151" stop-color="#D41A10"/>
<stop offset="0.5049" stop-color="#EC0C07"/>
<stop offset="0.774" stop-color="#FA0302"/>
<stop offset="1" stop-color="#FF0000"/>
</linearGradient>
<linearGradient id="paint36_linear_125_15244" x1="290.326" y1="337.235" x2="256.534" y2="368.799" gradientUnits="userSpaceOnUse">
<stop stop-color="#FC8D41"/>
<stop offset="0.0900324" stop-color="#FC7837"/>
<stop offset="0.294" stop-color="#FD4D24"/>
<stop offset="0.4922" stop-color="#FE2C14"/>
<stop offset="0.6802" stop-color="#FF1409"/>
<stop offset="0.854" stop-color="#FF0502"/>
<stop offset="1" stop-color="#FF0000"/>
</linearGradient>
<linearGradient id="paint37_linear_125_15244" x1="289.218" y1="359.115" x2="329.265" y2="244.512" gradientUnits="userSpaceOnUse">
<stop stop-color="#BD2719"/>
<stop offset="0.2151" stop-color="#D41A10"/>
<stop offset="0.5049" stop-color="#EC0C07"/>
<stop offset="0.774" stop-color="#FA0302"/>
<stop offset="1" stop-color="#FF0000"/>
</linearGradient>
<linearGradient id="paint38_linear_125_15244" x1="252.763" y1="371.186" x2="367.231" y2="297.381" gradientUnits="userSpaceOnUse">
<stop stop-color="#BD2719"/>
<stop offset="0.2151" stop-color="#D41A10"/>
<stop offset="0.5049" stop-color="#EC0C07"/>
<stop offset="0.774" stop-color="#FA0302"/>
<stop offset="1" stop-color="#FF0000"/>
</linearGradient>
<radialGradient id="paint39_radial_125_15244" cx="0" cy="0" r="1" gradientUnits="userSpaceOnUse" gradientTransform="translate(251.785 361.153) rotate(-39.0499) scale(101.378 33.9963)">
<stop offset="0.00134333" stop-color="#FFED1C"/>
<stop offset="0.1997" stop-color="#FFEE2B" stop-opacity="0.8013"/>
<stop offset="0.5839" stop-color="#FFF254" stop-opacity="0.4167"/>
<stop offset="1" stop-color="#FFF686" stop-opacity="0"/>
</radialGradient>
<radialGradient id="paint40_radial_125_15244" cx="0" cy="0" r="1" gradientUnits="userSpaceOnUse" gradientTransform="translate(349.171 226.266) rotate(44.2342) scale(42.517 137.683)">
<stop stop-color="white" stop-opacity="0.5"/>
<stop offset="1" stop-color="white" stop-opacity="0"/>
</radialGradient>
<radialGradient id="paint41_radial_125_15244" cx="0" cy="0" r="1" gradientUnits="userSpaceOnUse" gradientTransform="translate(339.753 323.541) rotate(43.8644) scale(10.3232 49.5677)">
<stop stop-color="#440063" stop-opacity="0.75"/>
<stop offset="1" stop-color="#420061" stop-opacity="0"/>
</radialGradient>
<linearGradient id="paint42_linear_125_15244" x1="365.734" y1="243.172" x2="397.7" y2="174.335" gradientUnits="userSpaceOnUse">
<stop stop-color="#BD2719"/>
<stop offset="0.2151" stop-color="#D41A10"/>
<stop offset="0.5049" stop-color="#EC0C07"/>
<stop offset="0.774" stop-color="#FA0302"/>
<stop offset="1" stop-color="#FF0000"/>
</linearGradient>
<linearGradient id="paint43_linear_125_15244" x1="388.518" y1="176.862" x2="371.111" y2="234.652" gradientUnits="userSpaceOnUse">
<stop stop-color="#FC8D41"/>
<stop offset="0.0900324" stop-color="#FC7837"/>
<stop offset="0.294" stop-color="#FD4D24"/>
<stop offset="0.4922" stop-color="#FE2C14"/>
<stop offset="0.6802" stop-color="#FF1409"/>
<stop offset="0.854" stop-color="#FF0502"/>
<stop offset="1" stop-color="#FF0000"/>
</linearGradient>
<radialGradient id="paint44_radial_125_15244" cx="0" cy="0" r="1" gradientUnits="userSpaceOnUse" gradientTransform="translate(370.858 206.117) rotate(44.996) scale(56.2203 56.2164)">
<stop stop-color="#512D00"/>
<stop offset="1"/>
</radialGradient>
<radialGradient id="paint45_radial_125_15244" cx="0" cy="0" r="1" gradientUnits="userSpaceOnUse" gradientTransform="translate(381.803 194.988) scale(49.3237 49.3237)">
<stop offset="0.4873" stop-color="#F5CBC0" stop-opacity="0"/>
<stop offset="1" stop-color="#E67E62"/>
</radialGradient>
<linearGradient id="paint46_linear_125_15244" x1="377.236" y1="188.055" x2="379.336" y2="150.768" gradientUnits="userSpaceOnUse">
<stop stop-color="#BD2719"/>
<stop offset="0.0422031" stop-color="#B42717"/>
<stop offset="0.257" stop-color="#89250F"/>
<stop offset="0.4654" stop-color="#682408"/>
<stop offset="0.6634" stop-color="#502304"/>
<stop offset="0.8464" stop-color="#412201"/>
<stop offset="1" stop-color="#3C2200"/>
</linearGradient>
<radialGradient id="paint47_radial_125_15244" cx="0" cy="0" r="1" gradientUnits="userSpaceOnUse" gradientTransform="translate(312.229 182.909) scale(66.8845 66.8845)">
<stop stop-color="white" stop-opacity="0.5"/>
<stop offset="1" stop-color="white" stop-opacity="0"/>
</radialGradient>
</defs>
</svg>
