<svg width="616" height="616" viewBox="0 0 616 616" fill="none" xmlns="http://www.w3.org/2000/svg">
<rect width="616" height="616" rx="205.333" fill="url(#paint0_linear_131_14670)"/>
<path fill-rule="evenodd" clip-rule="evenodd" d="M162.34 419.081C162.34 419.081 139.702 499.633 147.248 508.526C154.794 517.42 265.365 462.52 265.365 462.52C279.332 464.848 293.514 466.026 307.6 466.026C426.483 466.026 523.2 385.268 523.2 286.013C523.2 186.756 426.483 106 307.6 106C188.717 106 92 186.756 92 286.014C92 338.662 114.919 384.843 162.34 419.081ZM269.266 227.2C257.926 227.2 248.732 236.393 248.732 247.733V340.133C248.732 351.474 257.926 360.667 269.266 360.667H361.666C373.006 360.667 382.199 351.474 382.199 340.133V247.733C382.199 236.393 373.006 227.2 361.666 227.2H269.266Z" fill="white"/>
<defs>
<linearGradient id="paint0_linear_131_14670" x1="308" y1="0" x2="308" y2="616" gradientUnits="userSpaceOnUse">
<stop stop-color="#FF982E"/>
<stop offset="1" stop-color="#FF4A4E"/>
</linearGradient>
</defs>
</svg>
