<svg width="616" height="617" viewBox="0 0 616 617" fill="none" xmlns="http://www.w3.org/2000/svg">
<rect y="0.321411" width="616" height="616" rx="205.333" fill="white"/>
<path d="M147.647 515.781C140.101 506.887 162.739 426.336 162.739 426.336C115.319 392.098 92.3999 345.917 92.3999 293.269C92.3999 194.01 189.117 113.255 308 113.255C426.883 113.255 523.6 194.01 523.6 293.268C523.6 392.523 426.883 473.28 308 473.28C293.914 473.28 279.732 472.103 265.765 469.774C265.765 469.774 155.193 524.674 147.647 515.781Z" fill="url(#paint0_linear_124_15067)"/>
<path d="M147.647 515.781C140.101 506.887 162.739 426.336 162.739 426.336C115.319 392.098 92.3999 345.917 92.3999 293.269C92.3999 194.01 189.117 113.255 308 113.255C426.883 113.255 523.6 194.01 523.6 293.268C523.6 392.523 426.883 473.28 308 473.28C293.914 473.28 279.732 472.103 265.765 469.774C265.765 469.774 155.193 524.674 147.647 515.781Z" stroke="#001971"/>
<rect x="249.133" y="234.455" width="133.467" height="133.467" rx="20.5333" fill="white"/>
<defs>
<linearGradient id="paint0_linear_124_15067" x1="462.424" y1="124.736" x2="94.2864" y2="535.185" gradientUnits="userSpaceOnUse">
<stop stop-color="#3F5EFB"/>
<stop offset="1" stop-color="#FC466B"/>
</linearGradient>
</defs>
</svg>
