<svg width="616" height="616" viewBox="0 0 616 616" fill="none" xmlns="http://www.w3.org/2000/svg">
<rect width="616" height="616" rx="205.333" fill="url(#paint0_linear_126_15255)"/>
<path fill-rule="evenodd" clip-rule="evenodd" d="M162.74 426.015C162.74 426.015 140.102 506.566 147.648 515.46C155.194 524.353 265.766 469.453 265.766 469.453C279.733 471.781 293.915 472.959 308.001 472.959C426.884 472.959 523.601 392.202 523.601 292.946C523.601 193.689 426.884 112.933 308.001 112.933C189.117 112.933 92.4004 193.689 92.4004 292.947C92.4004 345.596 115.32 391.777 162.74 426.015ZM269.666 234.133C258.326 234.133 249.133 243.326 249.133 254.667V347.067C249.133 358.407 258.326 367.6 269.666 367.6H362.066C373.406 367.6 382.599 358.407 382.599 347.067V254.667C382.599 243.326 373.406 234.133 362.066 234.133H269.666Z" fill="white"/>
<defs>
<linearGradient id="paint0_linear_126_15255" x1="528" y1="2.00006" x2="25" y2="656.5" gradientUnits="userSpaceOnUse">
<stop stop-color="#D5666E"/>
<stop offset="0.401042" stop-color="#9C61C1"/>
<stop offset="1" stop-color="#69A4E7"/>
</linearGradient>
</defs>
</svg>
