<svg width="616" height="617" viewBox="0 0 616 617" fill="none" xmlns="http://www.w3.org/2000/svg">
<rect y="0.321411" width="616" height="616" rx="205.333" fill="#2B0085"/>
<rect x="249.133" y="234.455" width="133.467" height="133.467" rx="20.5333" fill="#2B0085"/>
<path fill-rule="evenodd" clip-rule="evenodd" d="M276.312 172.377C277.989 174.154 280.798 174.187 282.475 172.393L308.298 144.757L334.121 172.393C335.778 174.166 338.587 174.175 340.251 172.41L349.042 163.1L346.955 188.819H269.641L267.554 163.1L276.312 172.377ZM261.522 193.398C261.703 195.603 263.531 197.314 265.741 197.314L350.855 197.319C353.122 197.319 354.992 195.521 355.086 193.213L358.456 151.771C358.645 149.438 356.886 147.39 354.569 147.209C353.2 147.102 351.875 147.661 350.994 148.71L337.209 163.31L311.373 135.657C309.704 133.876 306.892 133.876 305.223 135.657L279.383 163.31L265.418 148.517C262.707 145.645 257.828 147.822 258.148 151.767L261.522 193.398" fill="white"/>
<path fill-rule="evenodd" clip-rule="evenodd" d="M351.935 203.275H264.668C262.322 203.275 260.424 205.171 260.424 207.515C260.424 209.854 262.322 211.751 264.668 211.751H351.935C354.277 211.751 356.18 209.854 356.18 207.515C356.18 205.171 354.277 203.275 351.935 203.275Z" fill="white"/>
<path fill-rule="evenodd" clip-rule="evenodd" d="M149.359 222.288H151.8C154.099 222.288 155.963 220.39 155.963 218.052C155.963 215.711 154.099 213.812 151.8 213.812H149.359C147.06 213.812 145.196 215.711 145.196 218.052C145.196 220.39 147.06 222.288 149.359 222.288Z" fill="white"/>
<path fill-rule="evenodd" clip-rule="evenodd" d="M464.665 222.288H467.158C469.503 222.288 471.408 220.39 471.408 218.052C471.408 215.711 469.503 213.812 467.158 213.812H464.665C462.316 213.812 460.412 215.711 460.412 218.052C460.412 220.39 462.316 222.288 464.665 222.288Z" fill="white"/>
<path fill-rule="evenodd" clip-rule="evenodd" d="M513.652 355.308L503.616 368.47H487.74L502.215 356.282C505.008 353.932 503.673 349.414 500.129 348.88C493.83 347.935 487.145 347.232 480.993 345.704C489.038 342.139 494.068 339.091 499.657 332.178L513.652 355.308ZM474.308 395.252C472.41 396.928 472.382 399.89 474.267 401.587L494.647 419.915H443.604V402.03C443.604 399.689 441.702 397.787 439.362 397.787H412.616V376.956H494.647L474.308 395.252ZM435.12 459.835H181.484V406.278H435.12V459.835ZM173 402.03V419.915H121.955L142.336 401.587C144.221 399.89 144.193 396.928 142.29 395.244L121.955 376.956H203.987V397.787H177.242C174.9 397.787 173 399.689 173 402.03ZM102.952 355.308L116.946 332.178C122.567 339.128 127.649 342.176 135.608 345.704C131.107 346.826 127.126 347.483 122.506 348.054C120.107 348.354 115.539 348.358 113.874 350.338C112.381 352.113 112.613 354.787 114.387 356.282L128.863 368.47H112.989L102.952 355.308ZM171.545 368.47H138.219C138.477 363.376 130.865 359.125 127.182 356.023C135.045 354.848 141.289 353.665 147.806 348.633C153.099 349.196 157.585 348.966 162.753 347.693L171.545 368.47ZM108.207 229.935C109.279 253.115 122.063 272.677 142.243 284.03C147.086 286.754 151.248 279.376 146.382 276.636C129.878 267.353 109.502 237.481 118.177 218.725C121.208 212.169 126.186 209.557 132.512 207.08C123.231 225.084 128.91 241.511 143.145 254.586C137.115 257.4 139.484 263.352 143.888 263.196C146.429 263.11 152.492 265.114 154.991 265.903L202.212 282.753C203.496 283.295 204.959 283.172 206.133 282.412C208.86 280.65 214.45 277.437 217.729 278.025C223.434 279.044 219.45 294.312 217.899 297.919C198.177 291.166 178.167 285.448 158.255 279.311C152.898 277.807 150.609 285.953 155.97 287.46L165.836 290.237L165.604 300.815C156.101 295.935 147.435 294.924 136.867 295.314C131.303 295.516 131.621 303.965 137.163 303.76C153.567 303.156 174.896 309.905 178.61 328.156L183.348 351.451C183.715 353.522 185.569 355.017 187.673 354.931L207.562 354.113L204.743 368.47H180.716L169.117 341.05C168.335 338.721 165.683 337.526 163.424 338.499C147.642 345.294 120.254 334.478 119.786 315.258L119.244 292.957L120.492 293.47C125.63 295.581 128.838 287.756 123.705 285.649C102.688 277.027 96.8227 248.802 108.207 229.935ZM142.412 208.004L158.523 208.086C160.073 209.877 161.726 212.588 164.366 212.596L177.543 212.896L177.619 216.478C168.19 216.762 161.015 219.797 161.711 228.699C162.284 236.019 168.937 238.307 174.904 239.888L162.778 244.222C158.165 245.873 158.573 250.248 157.753 254.27C141.099 245.257 128.034 225.113 142.412 208.004ZM216.911 260.908V269.452C211.679 269.752 207.922 271.51 203.469 274.135C201.131 273.19 198.782 272.295 196.42 271.411C203.216 267.275 209.465 263.783 216.911 260.908ZM216.911 242.427V251.986C205.464 255.777 196.365 261.647 186.16 267.805C180.295 265.771 175.048 263.796 169.418 261.216C189.1 259.852 202.562 257.272 216.911 242.427ZM269.781 397.787H212.471V373.095L215.695 356.672C216.947 350.297 214.36 345.372 207.354 345.659L190.932 346.333L186.868 326.361C184.961 316.991 181.196 312.399 174.017 306.41L174.143 292.517L216.911 306.66V314.855C216.911 351.936 236.879 381.947 269.781 397.787ZM225.395 301.809C229.171 294.131 231.428 280.017 225.395 272.96V226.871H391.209V272.96C385.172 280.005 387.435 294.14 391.209 301.809V314.855C391.209 360.521 353.865 397.812 308.225 397.787C262.66 397.766 225.395 360.427 225.395 314.855V301.809ZM399.693 314.855V306.709L415.823 300.063L442.462 292.575L442.585 306.41C436.019 311.881 431.67 316.86 429.917 325.478L425.671 346.333L409.249 345.659C402.243 345.372 399.656 350.297 400.909 356.672L404.132 373.095V397.787H346.822C379.723 381.524 399.693 351.932 399.693 314.855ZM478.385 368.47H445.057L453.849 347.693L454.58 347.869C459.299 349.036 463.988 349.147 468.797 348.633C475.314 353.665 481.56 354.848 489.42 356.023L479.835 364.095C478.34 365.352 478.295 366.716 478.385 368.47ZM398.876 278.025C402.186 277.433 407.803 280.687 410.468 282.412C411.643 283.172 413.109 283.295 414.39 282.753L461.631 265.907C464.132 265.118 470.189 263.11 472.735 263.196C477.305 263.352 478.767 257.067 474.648 255.14L473.458 254.586L474.427 253.695C488.286 240.973 493.949 222.504 484.089 207.08C490.434 209.561 495.431 212.186 498.466 218.766C507.118 237.543 486.73 267.349 470.222 276.636C465.356 279.376 469.519 286.754 474.361 284.03C494.536 272.677 507.328 253.115 508.396 229.935C519.799 248.827 513.943 277.014 492.898 285.649C487.765 287.756 490.972 295.581 496.113 293.47L497.361 292.957L496.823 314.937C496.351 334.387 469.228 345.405 453.18 338.499C450.921 337.526 448.269 338.721 447.488 341.05L447.476 341.083L435.888 368.47H411.86L409.039 354.113L428.931 354.931C431.034 355.017 432.89 353.522 433.259 351.427L438.13 327.491C441.69 309.992 463.828 303.185 479.441 303.76C481.769 303.846 483.728 302.014 483.81 299.685C483.892 297.356 482.065 295.397 479.736 295.314C469.15 294.924 460.498 295.939 450.983 300.823L450.622 290.278L460.633 287.46C465.996 285.953 463.701 277.803 458.35 279.311L413.355 291.963C413.125 292.028 412.899 292.114 412.637 292.234L398.724 297.964C397.163 294.337 393.156 279.044 398.876 278.025ZM399.693 260.908C407.048 263.75 413.478 267.332 420.184 271.411C417.819 272.295 415.474 273.19 413.133 274.135C408.707 271.526 404.921 269.752 399.693 269.452V260.908ZM399.693 242.427C412.591 255.773 425.551 259.721 443.735 260.978L447.184 261.216L444.043 262.658C439.641 264.675 435.013 266.223 430.442 267.805C420.402 261.75 410.928 255.703 399.693 251.986V242.427ZM441.698 239.888C447.772 238.278 454.276 235.9 454.798 228.469C455.422 219.588 447.907 216.499 438.984 216.478L439.062 212.896L452.256 212.596C454.88 212.588 456.535 209.869 458.079 208.086L474.193 208.004C488.59 225.137 475.462 245.278 458.851 254.27C458.091 250.544 458.346 245.841 454.079 244.312L441.698 239.888ZM549.875 269.251C538.196 263.146 525.236 270.142 522.645 282.835L517.245 309.31C515.763 317.558 514.711 324.016 505.205 317.739L505.841 287.054C529.445 265.558 529.133 234.606 504.778 213.857C498.979 202.146 487.325 197.903 475.006 197.176C472.152 194.974 469.146 193.15 465.902 191.581C461.771 189.58 457.89 194.736 460.871 198.166L462.132 199.616L456.284 199.644C453.545 199.554 451.886 202.323 450.297 204.159L434.894 204.241C432.545 204.254 430.644 206.069 430.627 208.435L430.533 220.413C430.418 222.882 432.446 224.936 434.918 224.842C437.534 224.739 446.573 223.642 446.388 227.536C446.219 231.159 436.77 231.089 434.545 231.081C432.212 231.073 430.323 232.963 430.307 235.292L430.266 241.1C430.253 243.253 430.828 245.015 433.058 245.812L449.505 251.686C452.773 252.857 448.195 252.758 447.271 252.717C432.483 252.056 418.32 249.32 407.524 238.356C406.185 233.521 404.132 229.639 399.693 227.006V222.623C399.693 220.282 397.792 218.384 395.451 218.384H221.152C218.81 218.384 216.911 220.282 216.911 222.623V227.006C212.496 229.627 210.424 233.493 209.082 238.352C198.282 249.32 184.121 252.056 169.334 252.717C167.531 252.799 164.028 252.783 168.162 251.308L183.545 245.812C185.366 245.159 186.523 243.347 186.343 241.425L186.295 235.292C186.278 232.963 184.392 231.073 182.056 231.081C179.794 231.089 170.294 231.118 170.153 227.425C170.004 223.494 179.065 224.739 181.686 224.842C184.156 224.936 186.187 222.882 186.071 220.385L185.977 208.435C185.959 206.061 184.064 204.254 181.71 204.241L166.308 204.159C164.701 202.302 163.054 199.554 160.284 199.644L154.472 199.616L155.731 198.166C158.713 194.736 154.831 189.58 150.701 191.581C147.456 193.15 144.454 194.974 141.599 197.176C129.277 197.903 117.624 202.146 111.824 213.857C87.4833 234.593 87.1721 265.574 110.763 287.054L111.4 317.735C101.89 324.015 100.837 317.558 99.3564 309.306C97.7647 300.441 95.7669 291.658 93.9576 282.835C92.6809 276.612 88.6894 271.181 82.841 268.565C77.5711 266.203 71.8077 266.593 66.7267 269.251C57.69 273.97 54.7022 285.349 58.8095 294.394C61.3957 300.092 68.2971 304.085 74.5299 302.729C84.5316 300.548 85.5135 285.871 76.3137 283.644C71.5798 282.498 68.4609 289.428 74.1792 291.86C74.2708 294.583 72.5128 295.331 70.1253 294.304C68.7094 293.692 67.1702 292.328 66.5309 290.919C64.2764 285.953 65.542 279.397 70.6332 276.735C77.3087 273.247 84.2285 277.458 85.6773 284.523C87.4731 293.281 89.4664 301.998 91.0445 310.797C93.0218 321.822 96.2905 331.237 109.282 328.476L94.2089 353.394C93.2677 354.947 93.4328 356.935 94.6323 358.352L107.426 375.128C107.612 375.399 107.828 375.642 108.072 375.86L133.169 398.436L108.238 420.86C105.154 423.358 106.934 428.402 110.904 428.402H173V464.078C173 466.424 174.9 468.321 177.242 468.321H439.362C441.702 468.321 443.604 466.424 443.604 464.078V428.402H505.698C509.669 428.402 511.451 423.358 508.33 420.831L483.432 398.436L508.531 375.86C508.773 375.642 508.991 375.4 509.2 375.1L522 358.319C523.171 356.935 523.335 354.947 522.395 353.394L507.32 328.476C520.325 331.241 523.581 321.806 525.561 310.776L530.928 284.523C532.377 277.425 539.268 273.235 545.97 276.735C551.062 279.397 552.327 285.953 550.072 290.919C548.836 293.643 542.241 297.278 542.426 291.86C544.565 290.948 545.982 289.214 545.391 286.758C544.845 284.499 542.549 283.098 540.291 283.644C535.35 284.84 533.531 289.502 534.032 294.189C534.48 298.358 538.057 301.85 542.073 302.729C548.306 304.085 555.205 300.092 557.792 294.394C561.903 285.349 558.913 273.97 549.875 269.251Z" fill="white"/>
<mask id="path-8-outside-1_124_15089" maskUnits="userSpaceOnUse" x="257.966" y="250.527" width="100" height="100" fill="black">
<rect fill="white" x="257.966" y="250.527" width="100" height="100"/>
<path fill-rule="evenodd" clip-rule="evenodd" d="M342.387 266.668C333.649 257.931 321.579 252.527 308.247 252.527C294.915 252.527 282.844 257.931 274.107 266.668C265.37 275.406 259.966 287.476 259.966 300.808C259.966 314.141 265.37 326.211 274.107 334.948C282.843 343.684 294.91 349.087 308.24 349.089C308.242 349.089 308.245 349.089 308.247 349.089C321.579 349.089 333.649 343.685 342.387 334.948C351.124 326.211 356.528 314.141 356.528 300.808C356.528 287.476 351.124 275.406 342.387 266.668ZM314.927 345.037C320.824 343.182 326.115 338.924 330.27 333.015C331.352 331.476 332.356 329.826 333.275 328.078H321.666C321.174 330.31 320.623 332.401 320.02 334.329C318.612 338.834 316.887 342.491 314.927 345.037ZM322.28 325.061H334.731C337.656 318.445 339.418 310.67 339.608 302.317H324.365C324.283 310.602 323.533 318.36 322.28 325.061ZM321.347 302.317C321.264 310.655 320.494 318.424 319.214 325.061H297.28C296 318.424 295.23 310.655 295.147 302.317H321.347ZM324.365 299.299H339.608C339.418 290.947 337.656 283.172 334.731 276.556H322.28C323.533 283.256 324.283 291.015 324.365 299.299ZM319.214 276.556C320.494 283.193 321.264 290.962 321.347 299.299H295.147C295.23 290.962 296 283.193 297.28 276.556H319.214ZM321.666 273.538H333.275C332.356 271.79 331.352 270.141 330.27 268.602C326.115 262.693 320.824 258.435 314.927 256.579C316.887 259.126 318.612 262.782 320.02 267.287C320.623 269.215 321.174 271.307 321.666 273.538ZM308.247 255.545C311.546 255.545 314.704 260.375 317.144 268.183C317.664 269.846 318.144 271.636 318.579 273.538H297.915C298.35 271.636 298.83 269.846 299.35 268.183C301.79 260.375 304.949 255.545 308.247 255.545ZM301.567 256.579C295.67 258.435 290.379 262.693 286.224 268.602C285.142 270.141 284.137 271.79 283.219 273.538H294.828C295.32 271.307 295.871 269.215 296.473 267.287C297.881 262.782 299.606 259.126 301.567 256.579ZM294.214 276.556H281.762C278.838 283.172 277.076 290.947 276.886 299.299H292.129C292.211 291.015 292.961 283.256 294.214 276.556ZM292.129 302.317H276.886C277.076 310.67 278.838 318.445 281.762 325.061H294.214C292.961 318.36 292.211 310.602 292.129 302.317ZM294.828 328.078H283.219C284.137 329.826 285.142 331.476 286.224 333.015C290.379 338.924 295.67 343.182 301.567 345.037C299.606 342.491 297.881 338.834 296.473 334.329C295.871 332.401 295.32 330.31 294.828 328.078ZM308.247 346.072C311.546 346.072 314.704 341.242 317.144 333.433C317.664 331.771 318.144 329.981 318.579 328.078H297.915C298.35 329.981 298.83 331.771 299.35 333.433C301.79 341.242 304.949 346.072 308.247 346.072ZM276.241 268.802C280.465 264.578 285.52 261.184 291.141 258.889C288.425 261.073 285.944 263.764 283.761 266.869C282.32 268.919 281.008 271.151 279.844 273.538H272.117C273.382 271.865 274.76 270.283 276.241 268.802ZM270.022 276.556H278.488C275.709 283.274 274.048 291.027 273.868 299.299H263.008C263.282 290.948 265.817 283.169 270.022 276.556ZM263.008 302.317H273.868C274.048 310.589 275.709 318.342 278.488 325.061H270.022C265.817 318.447 263.282 310.668 263.008 302.317ZM272.117 328.078H279.844C281.008 330.466 282.32 332.698 283.761 334.748C285.944 337.853 288.425 340.543 291.14 342.728C285.52 340.432 280.465 337.039 276.241 332.815C274.76 331.334 273.382 329.752 272.117 328.078ZM340.253 332.815C336.029 337.039 330.974 340.432 325.353 342.728C328.069 340.543 330.55 337.853 332.733 334.748C334.174 332.698 335.486 330.466 336.649 328.078H344.377C343.112 329.752 341.734 331.334 340.253 332.815ZM346.472 325.061H338.006C340.784 318.342 342.445 310.589 342.626 302.317H353.486C353.213 310.668 350.677 318.447 346.472 325.061ZM353.486 299.299H342.626C342.445 291.027 340.784 283.274 338.006 276.556H346.472C350.677 283.169 353.213 290.948 353.486 299.299ZM344.377 273.538H336.649C335.486 271.151 334.174 268.919 332.733 266.869C330.55 263.764 328.069 261.073 325.353 258.889C330.973 261.184 336.029 264.578 340.253 268.802C341.734 270.283 343.112 271.865 344.377 273.538Z"/>
</mask>
<path fill-rule="evenodd" clip-rule="evenodd" d="M342.387 266.668C333.649 257.931 321.579 252.527 308.247 252.527C294.915 252.527 282.844 257.931 274.107 266.668C265.37 275.406 259.966 287.476 259.966 300.808C259.966 314.141 265.37 326.211 274.107 334.948C282.843 343.684 294.91 349.087 308.24 349.089C308.242 349.089 308.245 349.089 308.247 349.089C321.579 349.089 333.649 343.685 342.387 334.948C351.124 326.211 356.528 314.141 356.528 300.808C356.528 287.476 351.124 275.406 342.387 266.668ZM314.927 345.037C320.824 343.182 326.115 338.924 330.27 333.015C331.352 331.476 332.356 329.826 333.275 328.078H321.666C321.174 330.31 320.623 332.401 320.02 334.329C318.612 338.834 316.887 342.491 314.927 345.037ZM322.28 325.061H334.731C337.656 318.445 339.418 310.67 339.608 302.317H324.365C324.283 310.602 323.533 318.36 322.28 325.061ZM321.347 302.317C321.264 310.655 320.494 318.424 319.214 325.061H297.28C296 318.424 295.23 310.655 295.147 302.317H321.347ZM324.365 299.299H339.608C339.418 290.947 337.656 283.172 334.731 276.556H322.28C323.533 283.256 324.283 291.015 324.365 299.299ZM319.214 276.556C320.494 283.193 321.264 290.962 321.347 299.299H295.147C295.23 290.962 296 283.193 297.28 276.556H319.214ZM321.666 273.538H333.275C332.356 271.79 331.352 270.141 330.27 268.602C326.115 262.693 320.824 258.435 314.927 256.579C316.887 259.126 318.612 262.782 320.02 267.287C320.623 269.215 321.174 271.307 321.666 273.538ZM308.247 255.545C311.546 255.545 314.704 260.375 317.144 268.183C317.664 269.846 318.144 271.636 318.579 273.538H297.915C298.35 271.636 298.83 269.846 299.35 268.183C301.79 260.375 304.949 255.545 308.247 255.545ZM301.567 256.579C295.67 258.435 290.379 262.693 286.224 268.602C285.142 270.141 284.137 271.79 283.219 273.538H294.828C295.32 271.307 295.871 269.215 296.473 267.287C297.881 262.782 299.606 259.126 301.567 256.579ZM294.214 276.556H281.762C278.838 283.172 277.076 290.947 276.886 299.299H292.129C292.211 291.015 292.961 283.256 294.214 276.556ZM292.129 302.317H276.886C277.076 310.67 278.838 318.445 281.762 325.061H294.214C292.961 318.36 292.211 310.602 292.129 302.317ZM294.828 328.078H283.219C284.137 329.826 285.142 331.476 286.224 333.015C290.379 338.924 295.67 343.182 301.567 345.037C299.606 342.491 297.881 338.834 296.473 334.329C295.871 332.401 295.32 330.31 294.828 328.078ZM308.247 346.072C311.546 346.072 314.704 341.242 317.144 333.433C317.664 331.771 318.144 329.981 318.579 328.078H297.915C298.35 329.981 298.83 331.771 299.35 333.433C301.79 341.242 304.949 346.072 308.247 346.072ZM276.241 268.802C280.465 264.578 285.52 261.184 291.141 258.889C288.425 261.073 285.944 263.764 283.761 266.869C282.32 268.919 281.008 271.151 279.844 273.538H272.117C273.382 271.865 274.76 270.283 276.241 268.802ZM270.022 276.556H278.488C275.709 283.274 274.048 291.027 273.868 299.299H263.008C263.282 290.948 265.817 283.169 270.022 276.556ZM263.008 302.317H273.868C274.048 310.589 275.709 318.342 278.488 325.061H270.022C265.817 318.447 263.282 310.668 263.008 302.317ZM272.117 328.078H279.844C281.008 330.466 282.32 332.698 283.761 334.748C285.944 337.853 288.425 340.543 291.14 342.728C285.52 340.432 280.465 337.039 276.241 332.815C274.76 331.334 273.382 329.752 272.117 328.078ZM340.253 332.815C336.029 337.039 330.974 340.432 325.353 342.728C328.069 340.543 330.55 337.853 332.733 334.748C334.174 332.698 335.486 330.466 336.649 328.078H344.377C343.112 329.752 341.734 331.334 340.253 332.815ZM346.472 325.061H338.006C340.784 318.342 342.445 310.589 342.626 302.317H353.486C353.213 310.668 350.677 318.447 346.472 325.061ZM353.486 299.299H342.626C342.445 291.027 340.784 283.274 338.006 276.556H346.472C350.677 283.169 353.213 290.948 353.486 299.299ZM344.377 273.538H336.649C335.486 271.151 334.174 268.919 332.733 266.869C330.55 263.764 328.069 261.073 325.353 258.889C330.973 261.184 336.029 264.578 340.253 268.802C341.734 270.283 343.112 271.865 344.377 273.538Z" fill="white"/>
<path d="M342.387 266.668L343.197 265.858L343.197 265.858L342.387 266.668ZM274.107 266.668L273.297 265.858L273.297 265.858L274.107 266.668ZM274.107 334.948L273.297 335.758L273.297 335.758L274.107 334.948ZM308.24 349.089L308.24 350.235H308.24V349.089ZM342.387 334.948L343.197 335.758L343.197 335.758L342.387 334.948ZM330.27 333.015L331.207 333.674L331.207 333.674L330.27 333.015ZM314.927 345.037L314.019 344.338L311.799 347.222L315.27 346.13L314.927 345.037ZM333.275 328.078L334.289 328.611L335.171 326.933H333.275V328.078ZM321.666 328.078V326.933H320.746L320.548 327.832L321.666 328.078ZM320.02 334.329L318.927 333.988L318.927 333.988L320.02 334.329ZM334.731 325.061V326.206H335.477L335.779 325.524L334.731 325.061ZM322.28 325.061L321.154 324.85L320.901 326.206H322.28V325.061ZM339.608 302.317L340.753 302.343L340.78 301.172H339.608V302.317ZM324.365 302.317V301.172H323.23L323.219 302.306L324.365 302.317ZM319.214 325.061V326.206H320.16L320.339 325.278L319.214 325.061ZM321.347 302.317L322.493 302.328L322.504 301.172H321.347V302.317ZM297.28 325.061L296.155 325.278L296.334 326.206H297.28V325.061ZM295.147 302.317V301.172H293.99L294.001 302.328L295.147 302.317ZM339.608 299.299V300.445H340.78L340.753 299.273L339.608 299.299ZM324.365 299.299L323.219 299.311L323.23 300.445H324.365V299.299ZM334.731 276.556L335.779 276.093L335.477 275.41H334.731V276.556ZM322.28 276.556V275.41H320.901L321.154 276.766L322.28 276.556ZM321.347 299.299V300.445H322.504L322.493 299.288L321.347 299.299ZM319.214 276.556L320.339 276.339L320.16 275.41H319.214V276.556ZM295.147 299.299L294.002 299.288L293.99 300.445H295.147V299.299ZM297.28 276.556V275.41H296.334L296.155 276.339L297.28 276.556ZM333.275 273.538V274.684H335.171L334.289 273.005L333.275 273.538ZM321.666 273.538L320.548 273.785L320.746 274.684H321.666V273.538ZM330.27 268.602L331.207 267.943L331.207 267.943L330.27 268.602ZM314.927 256.579L315.27 255.487L311.799 254.395L314.019 257.278L314.927 256.579ZM320.02 267.287L318.927 267.629L318.927 267.629L320.02 267.287ZM317.144 268.183L316.051 268.525L316.051 268.525L317.144 268.183ZM308.247 255.545L308.247 254.399L308.247 254.399L308.247 255.545ZM318.579 273.538V274.684H320.016L319.696 273.283L318.579 273.538ZM297.915 273.538L296.798 273.283L296.478 274.684H297.915V273.538ZM299.35 268.183L300.443 268.525L300.443 268.525L299.35 268.183ZM286.224 268.602L285.287 267.943L285.287 267.943L286.224 268.602ZM301.567 256.579L302.475 257.278L304.695 254.395L301.224 255.487L301.567 256.579ZM283.219 273.538L282.205 273.005L281.323 274.684H283.219V273.538ZM294.828 273.538V274.684H295.748L295.946 273.785L294.828 273.538ZM296.473 267.287L295.38 266.946L295.38 266.946L296.473 267.287ZM281.762 276.556V275.41H281.017L280.715 276.093L281.762 276.556ZM294.214 276.556L295.34 276.766L295.593 275.41H294.214V276.556ZM276.886 299.299L275.741 299.273L275.714 300.445H276.886V299.299ZM292.129 299.299V300.445H293.263L293.275 299.311L292.129 299.299ZM276.886 302.317V301.172H275.714L275.741 302.343L276.886 302.317ZM292.129 302.317L293.275 302.306L293.263 301.172H292.129V302.317ZM281.762 325.061L280.715 325.524L281.016 326.206H281.762V325.061ZM294.214 325.061V326.206H295.593L295.34 324.85L294.214 325.061ZM283.219 328.078V326.933H281.323L282.205 328.611L283.219 328.078ZM294.828 328.078L295.946 327.832L295.748 326.933H294.828V328.078ZM286.224 333.015L285.287 333.674L285.287 333.674L286.224 333.015ZM301.567 345.037L301.224 346.13L304.695 347.222L302.475 344.338L301.567 345.037ZM296.473 334.329L295.38 334.671L295.38 334.671L296.473 334.329ZM317.144 333.433L318.238 333.775L318.238 333.775L317.144 333.433ZM318.579 328.078L319.696 328.334L320.016 326.933H318.579V328.078ZM297.915 328.078V326.933H296.478L296.798 328.334L297.915 328.078ZM299.35 333.433L300.443 333.092L300.443 333.092L299.35 333.433ZM291.141 258.889L291.859 259.781L290.708 257.828L291.141 258.889ZM276.241 268.802L277.051 269.612L277.051 269.612L276.241 268.802ZM283.761 266.869L284.698 267.528L284.698 267.528L283.761 266.869ZM279.844 273.538V274.684H280.56L280.874 274.04L279.844 273.538ZM272.117 273.538L271.203 272.847L269.815 274.684H272.117V273.538ZM278.488 276.556L279.546 276.994L280.201 275.41H278.488V276.556ZM270.022 276.556V275.41H269.393L269.056 275.941L270.022 276.556ZM273.868 299.299V300.445H274.988L275.013 299.324L273.868 299.299ZM263.008 299.299L261.863 299.262L261.825 300.445H263.008V299.299ZM273.868 302.317L275.013 302.292L274.988 301.172H273.868V302.317ZM263.008 302.317V301.172H261.825L261.863 302.354L263.008 302.317ZM278.488 325.061V326.206H280.201L279.546 324.623L278.488 325.061ZM270.022 325.061L269.056 325.675L269.393 326.206H270.022V325.061ZM279.844 328.078L280.874 327.577L280.561 326.933H279.844V328.078ZM272.117 328.078V326.933H269.815L271.203 328.769L272.117 328.078ZM283.761 334.748L284.698 334.089L284.698 334.089L283.761 334.748ZM291.14 342.728L290.707 343.788L291.858 341.835L291.14 342.728ZM276.241 332.815L275.431 333.625L275.431 333.625L276.241 332.815ZM325.353 342.728L324.635 341.835L325.787 343.788L325.353 342.728ZM340.253 332.815L339.443 332.005L339.443 332.005L340.253 332.815ZM332.733 334.748L333.67 335.406L333.67 335.406L332.733 334.748ZM336.649 328.078V326.933H335.933L335.62 327.577L336.649 328.078ZM344.377 328.078L345.29 328.769L346.679 326.933H344.377V328.078ZM338.006 325.061L336.947 324.623L336.293 326.206H338.006V325.061ZM346.472 325.061V326.206H347.101L347.438 325.675L346.472 325.061ZM342.626 302.317V301.172H341.505L341.481 302.292L342.626 302.317ZM353.486 302.317L354.631 302.354L354.67 301.172H353.486V302.317ZM342.626 299.299L341.481 299.324L341.505 300.445H342.626V299.299ZM353.486 299.299V300.445H354.67L354.631 299.262L353.486 299.299ZM338.006 276.556V275.41H336.293L336.947 276.994L338.006 276.556ZM346.472 276.556L347.438 275.941L347.101 275.41H346.472V276.556ZM336.649 273.538L335.62 274.04L335.933 274.684H336.649V273.538ZM344.377 273.538V274.684H346.679L345.291 272.847L344.377 273.538ZM332.733 266.869L331.796 267.528L331.796 267.528L332.733 266.869ZM325.353 258.889L325.786 257.828L324.635 259.781L325.353 258.889ZM340.253 268.802L339.443 269.612L339.443 269.612L340.253 268.802ZM308.247 253.673C321.263 253.673 333.046 258.947 341.577 267.478L343.197 265.858C334.253 256.915 321.895 251.382 308.247 251.382V253.673ZM274.917 267.478C283.448 258.947 295.231 253.673 308.247 253.673V251.382C294.599 251.382 282.24 256.915 273.297 265.858L274.917 267.478ZM261.111 300.808C261.111 287.792 266.386 276.01 274.917 267.478L273.297 265.858C264.354 274.802 258.82 287.16 258.82 300.808H261.111ZM274.917 334.138C266.386 325.607 261.111 313.825 261.111 300.808H258.82C258.82 314.456 264.354 326.815 273.297 335.758L274.917 334.138ZM308.24 347.944C295.226 347.942 283.447 342.668 274.917 334.138L273.297 335.758C282.239 344.7 294.594 350.233 308.24 350.235L308.24 347.944ZM308.247 347.944C308.247 347.944 308.247 347.944 308.247 347.944C308.247 347.944 308.247 347.944 308.247 347.944C308.247 347.944 308.247 347.944 308.247 347.944C308.247 347.944 308.247 347.944 308.247 347.944C308.247 347.944 308.247 347.944 308.247 347.944C308.247 347.944 308.247 347.944 308.247 347.944C308.247 347.944 308.247 347.944 308.247 347.944C308.247 347.944 308.247 347.944 308.247 347.944C308.247 347.944 308.247 347.944 308.247 347.944C308.247 347.944 308.247 347.944 308.247 347.944C308.247 347.944 308.247 347.944 308.247 347.944C308.247 347.944 308.247 347.944 308.247 347.944C308.247 347.944 308.247 347.944 308.247 347.944C308.247 347.944 308.247 347.944 308.247 347.944C308.247 347.944 308.247 347.944 308.247 347.944C308.247 347.944 308.247 347.944 308.247 347.944C308.247 347.944 308.247 347.944 308.247 347.944C308.247 347.944 308.247 347.944 308.247 347.944C308.247 347.944 308.247 347.944 308.247 347.944C308.247 347.944 308.247 347.944 308.247 347.944C308.247 347.944 308.247 347.944 308.247 347.944C308.247 347.944 308.247 347.944 308.247 347.944C308.247 347.944 308.247 347.944 308.247 347.944C308.247 347.944 308.247 347.944 308.247 347.944C308.247 347.944 308.247 347.944 308.247 347.944C308.247 347.944 308.247 347.944 308.247 347.944C308.247 347.944 308.247 347.944 308.247 347.944C308.247 347.944 308.247 347.944 308.247 347.944C308.247 347.944 308.247 347.944 308.247 347.944C308.247 347.944 308.247 347.944 308.247 347.944C308.246 347.944 308.246 347.944 308.246 347.944C308.246 347.944 308.246 347.944 308.246 347.944C308.246 347.944 308.246 347.944 308.246 347.944C308.246 347.944 308.246 347.944 308.246 347.944C308.246 347.944 308.246 347.944 308.246 347.944C308.246 347.944 308.246 347.944 308.246 347.944C308.246 347.944 308.246 347.944 308.246 347.944C308.246 347.944 308.246 347.944 308.246 347.944C308.246 347.944 308.246 347.944 308.246 347.944C308.246 347.944 308.246 347.944 308.246 347.944C308.246 347.944 308.246 347.944 308.246 347.944C308.246 347.944 308.246 347.944 308.246 347.944C308.246 347.944 308.246 347.944 308.246 347.944C308.246 347.944 308.246 347.944 308.246 347.944C308.246 347.944 308.246 347.944 308.246 347.944C308.246 347.944 308.246 347.944 308.246 347.944C308.246 347.944 308.246 347.944 308.246 347.944C308.246 347.944 308.246 347.944 308.246 347.944C308.246 347.944 308.246 347.944 308.246 347.944C308.246 347.944 308.246 347.944 308.246 347.944C308.246 347.944 308.246 347.944 308.246 347.944C308.246 347.944 308.246 347.944 308.246 347.944C308.246 347.944 308.246 347.944 308.246 347.944C308.246 347.944 308.246 347.944 308.246 347.944C308.246 347.944 308.246 347.944 308.246 347.944C308.246 347.944 308.246 347.944 308.246 347.944C308.246 347.944 308.246 347.944 308.246 347.944C308.246 347.944 308.246 347.944 308.246 347.944C308.246 347.944 308.246 347.944 308.246 347.944C308.246 347.944 308.246 347.944 308.246 347.944C308.246 347.944 308.246 347.944 308.246 347.944C308.246 347.944 308.246 347.944 308.246 347.944C308.246 347.944 308.246 347.944 308.246 347.944C308.246 347.944 308.246 347.944 308.246 347.944C308.246 347.944 308.246 347.944 308.246 347.944C308.246 347.944 308.246 347.944 308.246 347.944C308.246 347.944 308.246 347.944 308.246 347.944C308.246 347.944 308.246 347.944 308.246 347.944C308.246 347.944 308.246 347.944 308.246 347.944C308.246 347.944 308.246 347.944 308.246 347.944C308.246 347.944 308.246 347.944 308.246 347.944C308.246 347.944 308.246 347.944 308.246 347.944C308.246 347.944 308.246 347.944 308.246 347.944C308.246 347.944 308.246 347.944 308.246 347.944C308.246 347.944 308.246 347.944 308.246 347.944C308.246 347.944 308.246 347.944 308.246 347.944C308.246 347.944 308.246 347.944 308.246 347.944C308.246 347.944 308.246 347.944 308.246 347.944C308.246 347.944 308.246 347.944 308.246 347.944C308.246 347.944 308.246 347.944 308.246 347.944C308.246 347.944 308.246 347.944 308.246 347.944C308.246 347.944 308.246 347.944 308.246 347.944C308.246 347.944 308.246 347.944 308.246 347.944C308.246 347.944 308.246 347.944 308.246 347.944C308.246 347.944 308.246 347.944 308.246 347.944C308.246 347.944 308.246 347.944 308.246 347.944C308.246 347.944 308.246 347.944 308.246 347.944C308.246 347.944 308.246 347.944 308.246 347.944C308.246 347.944 308.246 347.944 308.246 347.944C308.246 347.944 308.246 347.944 308.246 347.944C308.246 347.944 308.246 347.944 308.246 347.944C308.246 347.944 308.246 347.944 308.246 347.944C308.246 347.944 308.246 347.944 308.246 347.944C308.246 347.944 308.246 347.944 308.246 347.944C308.246 347.944 308.246 347.944 308.246 347.944C308.246 347.944 308.246 347.944 308.246 347.944C308.246 347.944 308.246 347.944 308.246 347.944C308.246 347.944 308.246 347.944 308.246 347.944C308.246 347.944 308.246 347.944 308.246 347.944C308.246 347.944 308.246 347.944 308.246 347.944C308.246 347.944 308.246 347.944 308.246 347.944C308.246 347.944 308.246 347.944 308.246 347.944C308.246 347.944 308.246 347.944 308.246 347.944C308.245 347.944 308.245 347.944 308.245 347.944C308.245 347.944 308.245 347.944 308.245 347.944C308.245 347.944 308.245 347.944 308.245 347.944C308.245 347.944 308.245 347.944 308.245 347.944C308.245 347.944 308.245 347.944 308.245 347.944C308.245 347.944 308.245 347.944 308.245 347.944C308.245 347.944 308.245 347.944 308.245 347.944C308.245 347.944 308.245 347.944 308.245 347.944C308.245 347.944 308.245 347.944 308.245 347.944C308.245 347.944 308.245 347.944 308.245 347.944C308.245 347.944 308.245 347.944 308.245 347.944C308.245 347.944 308.245 347.944 308.245 347.944C308.245 347.944 308.245 347.944 308.245 347.944C308.245 347.944 308.245 347.944 308.245 347.944C308.245 347.944 308.245 347.944 308.245 347.944C308.245 347.944 308.245 347.944 308.245 347.944C308.245 347.944 308.245 347.944 308.245 347.944C308.245 347.944 308.245 347.944 308.245 347.944C308.245 347.944 308.245 347.944 308.245 347.944C308.245 347.944 308.245 347.944 308.245 347.944C308.245 347.944 308.245 347.944 308.245 347.944C308.245 347.944 308.245 347.944 308.245 347.944C308.245 347.944 308.245 347.944 308.245 347.944C308.245 347.944 308.245 347.944 308.245 347.944C308.245 347.944 308.245 347.944 308.245 347.944C308.245 347.944 308.245 347.944 308.245 347.944C308.245 347.944 308.245 347.944 308.245 347.944C308.245 347.944 308.245 347.944 308.245 347.944C308.245 347.944 308.245 347.944 308.245 347.944C308.245 347.944 308.245 347.944 308.245 347.944C308.245 347.944 308.245 347.944 308.245 347.944C308.245 347.944 308.245 347.944 308.245 347.944C308.245 347.944 308.245 347.944 308.245 347.944C308.245 347.944 308.245 347.944 308.245 347.944C308.245 347.944 308.245 347.944 308.245 347.944C308.245 347.944 308.245 347.944 308.245 347.944C308.245 347.944 308.245 347.944 308.245 347.944C308.245 347.944 308.245 347.944 308.245 347.944C308.245 347.944 308.245 347.944 308.245 347.944C308.245 347.944 308.245 347.944 308.245 347.944C308.245 347.944 308.245 347.944 308.245 347.944C308.245 347.944 308.245 347.944 308.245 347.944C308.245 347.944 308.245 347.944 308.245 347.944C308.245 347.944 308.245 347.944 308.245 347.944C308.245 347.944 308.245 347.944 308.245 347.944C308.245 347.944 308.245 347.944 308.245 347.944C308.245 347.944 308.245 347.944 308.245 347.944C308.245 347.944 308.245 347.944 308.245 347.944C308.245 347.944 308.245 347.944 308.245 347.944C308.245 347.944 308.245 347.944 308.245 347.944C308.245 347.944 308.245 347.944 308.245 347.944C308.245 347.944 308.245 347.944 308.245 347.944C308.245 347.944 308.245 347.944 308.245 347.944C308.245 347.944 308.245 347.944 308.245 347.944C308.245 347.944 308.245 347.944 308.245 347.944C308.245 347.944 308.245 347.944 308.245 347.944C308.245 347.944 308.245 347.944 308.245 347.944C308.245 347.944 308.245 347.944 308.245 347.944C308.245 347.944 308.245 347.944 308.245 347.944C308.245 347.944 308.245 347.944 308.245 347.944C308.245 347.944 308.245 347.944 308.245 347.944C308.245 347.944 308.245 347.944 308.245 347.944C308.245 347.944 308.245 347.944 308.245 347.944C308.245 347.944 308.245 347.944 308.245 347.944C308.245 347.944 308.245 347.944 308.245 347.944C308.245 347.944 308.245 347.944 308.245 347.944C308.245 347.944 308.245 347.944 308.245 347.944C308.245 347.944 308.245 347.944 308.245 347.944C308.245 347.944 308.245 347.944 308.245 347.944C308.245 347.944 308.245 347.944 308.245 347.944C308.245 347.944 308.245 347.944 308.245 347.944C308.245 347.944 308.245 347.944 308.245 347.944C308.245 347.944 308.245 347.944 308.245 347.944C308.245 347.944 308.244 347.944 308.244 347.944C308.244 347.944 308.244 347.944 308.244 347.944C308.244 347.944 308.244 347.944 308.244 347.944C308.244 347.944 308.244 347.944 308.244 347.944C308.244 347.944 308.244 347.944 308.244 347.944C308.244 347.944 308.244 347.944 308.244 347.944C308.244 347.944 308.244 347.944 308.244 347.944C308.244 347.944 308.244 347.944 308.244 347.944C308.244 347.944 308.244 347.944 308.244 347.944C308.244 347.944 308.244 347.944 308.244 347.944C308.244 347.944 308.244 347.944 308.244 347.944C308.244 347.944 308.244 347.944 308.244 347.944C308.244 347.944 308.244 347.944 308.244 347.944C308.244 347.944 308.244 347.944 308.244 347.944C308.244 347.944 308.244 347.944 308.244 347.944C308.244 347.944 308.244 347.944 308.244 347.944C308.244 347.944 308.244 347.944 308.244 347.944C308.244 347.944 308.244 347.944 308.244 347.944C308.244 347.944 308.244 347.944 308.244 347.944C308.244 347.944 308.244 347.944 308.244 347.944C308.244 347.944 308.244 347.944 308.244 347.944C308.244 347.944 308.244 347.944 308.244 347.944C308.244 347.944 308.244 347.944 308.244 347.944C308.244 347.944 308.244 347.944 308.244 347.944C308.244 347.944 308.244 347.944 308.244 347.944C308.244 347.944 308.244 347.944 308.244 347.944C308.244 347.944 308.244 347.944 308.244 347.944C308.244 347.944 308.244 347.944 308.244 347.944C308.244 347.944 308.244 347.944 308.244 347.944C308.244 347.944 308.244 347.944 308.244 347.944C308.244 347.944 308.244 347.944 308.244 347.944C308.244 347.944 308.244 347.944 308.244 347.944C308.244 347.944 308.244 347.944 308.244 347.944C308.244 347.944 308.244 347.944 308.244 347.944C308.244 347.944 308.244 347.944 308.244 347.944C308.244 347.944 308.244 347.944 308.244 347.944C308.244 347.944 308.244 347.944 308.244 347.944C308.244 347.944 308.244 347.944 308.244 347.944C308.244 347.944 308.244 347.944 308.244 347.944C308.244 347.944 308.244 347.944 308.244 347.944C308.244 347.944 308.244 347.944 308.244 347.944C308.244 347.944 308.244 347.944 308.244 347.944C308.244 347.944 308.244 347.944 308.244 347.944C308.244 347.944 308.244 347.944 308.244 347.944C308.244 347.944 308.244 347.944 308.244 347.944C308.244 347.944 308.244 347.944 308.244 347.944C308.244 347.944 308.244 347.944 308.244 347.944C308.244 347.944 308.244 347.944 308.244 347.944C308.244 347.944 308.244 347.944 308.244 347.944C308.244 347.944 308.244 347.944 308.244 347.944C308.244 347.944 308.244 347.944 308.244 347.944C308.244 347.944 308.244 347.944 308.244 347.944C308.244 347.944 308.244 347.944 308.244 347.944C308.244 347.944 308.244 347.944 308.244 347.944C308.244 347.944 308.244 347.944 308.244 347.944C308.244 347.944 308.244 347.944 308.244 347.944C308.244 347.944 308.244 347.944 308.244 347.944C308.244 347.944 308.244 347.944 308.244 347.944C308.244 347.944 308.244 347.944 308.244 347.944C308.244 347.944 308.244 347.944 308.244 347.944C308.244 347.944 308.244 347.944 308.244 347.944C308.244 347.944 308.244 347.944 308.244 347.944C308.244 347.944 308.244 347.944 308.244 347.944C308.244 347.944 308.244 347.944 308.244 347.944C308.244 347.944 308.244 347.944 308.244 347.944C308.244 347.944 308.244 347.944 308.244 347.944C308.244 347.944 308.244 347.944 308.244 347.944C308.244 347.944 308.244 347.944 308.244 347.944C308.244 347.944 308.244 347.944 308.244 347.944C308.244 347.944 308.244 347.944 308.244 347.944C308.244 347.944 308.244 347.944 308.244 347.944C308.244 347.944 308.244 347.944 308.244 347.944C308.244 347.944 308.244 347.944 308.244 347.944C308.244 347.944 308.243 347.944 308.243 347.944C308.243 347.944 308.243 347.944 308.243 347.944C308.243 347.944 308.243 347.944 308.243 347.944C308.243 347.944 308.243 347.944 308.243 347.944C308.243 347.944 308.243 347.944 308.243 347.944C308.243 347.944 308.243 347.944 308.243 347.944C308.243 347.944 308.243 347.944 308.243 347.944C308.243 347.944 308.243 347.944 308.243 347.944C308.243 347.944 308.243 347.944 308.243 347.944C308.243 347.944 308.243 347.944 308.243 347.944C308.243 347.944 308.243 347.944 308.243 347.944C308.243 347.944 308.243 347.944 308.243 347.944C308.243 347.944 308.243 347.944 308.243 347.944C308.243 347.944 308.243 347.944 308.243 347.944C308.243 347.944 308.243 347.944 308.243 347.944C308.243 347.944 308.243 347.944 308.243 347.944C308.243 347.944 308.243 347.944 308.243 347.944C308.243 347.944 308.243 347.944 308.243 347.944C308.243 347.944 308.243 347.944 308.243 347.944C308.243 347.944 308.243 347.944 308.243 347.944C308.243 347.944 308.243 347.944 308.243 347.944C308.243 347.944 308.243 347.944 308.243 347.944C308.243 347.944 308.243 347.944 308.243 347.944C308.243 347.944 308.243 347.944 308.243 347.944C308.243 347.944 308.243 347.944 308.243 347.944C308.243 347.944 308.243 347.944 308.243 347.944C308.243 347.944 308.243 347.944 308.243 347.944C308.243 347.944 308.243 347.944 308.243 347.944C308.243 347.944 308.243 347.944 308.243 347.944C308.243 347.944 308.243 347.944 308.243 347.944C308.243 347.944 308.243 347.944 308.243 347.944C308.243 347.944 308.243 347.944 308.243 347.944C308.243 347.944 308.243 347.944 308.243 347.944C308.243 347.944 308.243 347.944 308.243 347.944C308.243 347.944 308.243 347.944 308.243 347.944C308.243 347.944 308.243 347.944 308.243 347.944C308.243 347.944 308.243 347.944 308.243 347.944C308.243 347.944 308.243 347.944 308.243 347.944C308.243 347.944 308.243 347.944 308.243 347.944C308.243 347.944 308.243 347.944 308.243 347.944C308.243 347.944 308.243 347.944 308.243 347.944C308.243 347.944 308.243 347.944 308.243 347.944C308.243 347.944 308.243 347.944 308.243 347.944C308.243 347.944 308.243 347.944 308.243 347.944C308.243 347.944 308.243 347.944 308.243 347.944C308.243 347.944 308.243 347.944 308.243 347.944C308.243 347.944 308.243 347.944 308.243 347.944C308.243 347.944 308.243 347.944 308.243 347.944C308.243 347.944 308.243 347.944 308.243 347.944C308.243 347.944 308.243 347.944 308.243 347.944C308.243 347.944 308.243 347.944 308.243 347.944C308.243 347.944 308.243 347.944 308.243 347.944C308.243 347.944 308.243 347.944 308.243 347.944C308.243 347.944 308.243 347.944 308.243 347.944C308.243 347.944 308.243 347.944 308.243 347.944C308.243 347.944 308.243 347.944 308.243 347.944C308.243 347.944 308.243 347.944 308.243 347.944C308.243 347.944 308.243 347.944 308.243 347.944C308.243 347.944 308.243 347.944 308.243 347.944C308.243 347.944 308.243 347.944 308.243 347.944C308.243 347.944 308.243 347.944 308.243 347.944C308.243 347.944 308.243 347.944 308.243 347.944C308.243 347.944 308.243 347.944 308.243 347.944C308.243 347.944 308.243 347.944 308.243 347.944C308.243 347.944 308.243 347.944 308.243 347.944C308.243 347.944 308.243 347.944 308.243 347.944C308.243 347.944 308.243 347.944 308.243 347.944C308.243 347.944 308.243 347.944 308.243 347.944C308.243 347.944 308.243 347.944 308.243 347.944C308.243 347.944 308.243 347.944 308.243 347.944C308.243 347.944 308.243 347.944 308.243 347.944C308.243 347.944 308.243 347.944 308.243 347.944C308.243 347.944 308.243 347.944 308.243 347.944C308.243 347.944 308.242 347.944 308.242 347.944C308.242 347.944 308.242 347.944 308.242 347.944C308.242 347.944 308.242 347.944 308.242 347.944C308.242 347.944 308.242 347.944 308.242 347.944C308.242 347.944 308.242 347.944 308.242 347.944C308.242 347.944 308.242 347.944 308.242 347.944C308.242 347.944 308.242 347.944 308.242 347.944C308.242 347.944 308.242 347.944 308.242 347.944C308.242 347.944 308.242 347.944 308.242 347.944C308.242 347.944 308.242 347.944 308.242 347.944C308.242 347.944 308.242 347.944 308.242 347.944C308.242 347.944 308.242 347.944 308.242 347.944C308.242 347.944 308.242 347.944 308.242 347.944C308.242 347.944 308.242 347.944 308.242 347.944C308.242 347.944 308.242 347.944 308.242 347.944C308.242 347.944 308.242 347.944 308.242 347.944C308.242 347.944 308.242 347.944 308.242 347.944C308.242 347.944 308.242 347.944 308.242 347.944C308.242 347.944 308.242 347.944 308.242 347.944C308.242 347.944 308.242 347.944 308.242 347.944C308.242 347.944 308.242 347.944 308.242 347.944C308.242 347.944 308.242 347.944 308.242 347.944C308.242 347.944 308.242 347.944 308.242 347.944C308.242 347.944 308.242 347.944 308.242 347.944C308.242 347.944 308.242 347.944 308.242 347.944C308.242 347.944 308.242 347.944 308.242 347.944C308.242 347.944 308.242 347.944 308.242 347.944C308.242 347.944 308.242 347.944 308.242 347.944C308.242 347.944 308.242 347.944 308.242 347.944C308.242 347.944 308.242 347.944 308.242 347.944C308.242 347.944 308.242 347.944 308.242 347.944C308.242 347.944 308.242 347.944 308.242 347.944C308.242 347.944 308.242 347.944 308.242 347.944C308.242 347.944 308.242 347.944 308.242 347.944C308.242 347.944 308.242 347.944 308.242 347.944C308.242 347.944 308.242 347.944 308.242 347.944C308.242 347.944 308.242 347.944 308.242 347.944C308.242 347.944 308.242 347.944 308.242 347.944C308.242 347.944 308.242 347.944 308.242 347.944C308.242 347.944 308.242 347.944 308.242 347.944C308.242 347.944 308.242 347.944 308.242 347.944C308.242 347.944 308.242 347.944 308.242 347.944C308.242 347.944 308.242 347.944 308.242 347.944C308.242 347.944 308.242 347.944 308.242 347.944C308.242 347.944 308.242 347.944 308.242 347.944C308.242 347.944 308.242 347.944 308.242 347.944C308.242 347.944 308.242 347.944 308.242 347.944C308.242 347.944 308.242 347.944 308.242 347.944C308.242 347.944 308.242 347.944 308.242 347.944C308.242 347.944 308.242 347.944 308.242 347.944C308.242 347.944 308.242 347.944 308.242 347.944C308.242 347.944 308.242 347.944 308.242 347.944C308.242 347.944 308.242 347.944 308.242 347.944C308.242 347.944 308.242 347.944 308.242 347.944C308.242 347.944 308.242 347.944 308.242 347.944C308.242 347.944 308.242 347.944 308.242 347.944C308.242 347.944 308.242 347.944 308.242 347.944C308.242 347.944 308.242 347.944 308.242 347.944C308.242 347.944 308.242 347.944 308.242 347.944C308.242 347.944 308.242 347.944 308.242 347.944C308.242 347.944 308.242 347.944 308.242 347.944C308.242 347.944 308.242 347.944 308.242 347.944C308.242 347.944 308.242 347.944 308.242 347.944C308.242 347.944 308.242 347.944 308.242 347.944C308.242 347.944 308.242 347.944 308.242 347.944C308.242 347.944 308.242 347.944 308.242 347.944C308.242 347.944 308.242 347.944 308.242 347.944C308.242 347.944 308.242 347.944 308.242 347.944C308.242 347.944 308.242 347.944 308.242 347.944C308.242 347.944 308.242 347.944 308.242 347.944C308.242 347.944 308.242 347.944 308.242 347.944C308.242 347.944 308.242 347.944 308.242 347.944C308.242 347.944 308.242 347.944 308.242 347.944C308.242 347.944 308.241 347.944 308.241 347.944C308.241 347.944 308.241 347.944 308.241 347.944C308.241 347.944 308.241 347.944 308.241 347.944C308.241 347.944 308.241 347.944 308.241 347.944C308.241 347.944 308.241 347.944 308.241 347.944C308.241 347.944 308.241 347.944 308.241 347.944C308.241 347.944 308.241 347.944 308.241 347.944C308.241 347.944 308.241 347.944 308.241 347.944C308.241 347.944 308.241 347.944 308.241 347.944C308.241 347.944 308.241 347.944 308.241 347.944C308.241 347.944 308.241 347.944 308.241 347.944C308.241 347.944 308.241 347.944 308.241 347.944C308.241 347.944 308.241 347.944 308.241 347.944C308.241 347.944 308.241 347.944 308.241 347.944C308.241 347.944 308.241 347.944 308.241 347.944C308.241 347.944 308.241 347.944 308.241 347.944C308.241 347.944 308.241 347.944 308.241 347.944C308.241 347.944 308.241 347.944 308.241 347.944C308.241 347.944 308.241 347.944 308.241 347.944C308.241 347.944 308.241 347.944 308.241 347.944C308.241 347.944 308.241 347.944 308.241 347.944C308.241 347.944 308.241 347.944 308.241 347.944C308.241 347.944 308.241 347.944 308.241 347.944C308.241 347.944 308.241 347.944 308.241 347.944C308.241 347.944 308.241 347.944 308.241 347.944C308.241 347.944 308.241 347.944 308.241 347.944C308.241 347.944 308.241 347.944 308.241 347.944C308.241 347.944 308.241 347.944 308.241 347.944C308.241 347.944 308.241 347.944 308.241 347.944C308.241 347.944 308.241 347.944 308.241 347.944C308.241 347.944 308.241 347.944 308.241 347.944C308.241 347.944 308.241 347.944 308.241 347.944C308.241 347.944 308.241 347.944 308.241 347.944C308.241 347.944 308.241 347.944 308.241 347.944C308.241 347.944 308.241 347.944 308.241 347.944C308.241 347.944 308.241 347.944 308.241 347.944C308.241 347.944 308.241 347.944 308.241 347.944C308.241 347.944 308.241 347.944 308.241 347.944C308.241 347.944 308.241 347.944 308.241 347.944C308.241 347.944 308.241 347.944 308.241 347.944C308.241 347.944 308.241 347.944 308.241 347.944C308.241 347.944 308.241 347.944 308.241 347.944C308.241 347.944 308.241 347.944 308.241 347.944C308.241 347.944 308.241 347.944 308.241 347.944C308.241 347.944 308.241 347.944 308.241 347.944C308.241 347.944 308.241 347.944 308.241 347.944C308.241 347.944 308.241 347.944 308.241 347.944C308.241 347.944 308.241 347.944 308.241 347.944C308.241 347.944 308.241 347.944 308.241 347.944C308.241 347.944 308.241 347.944 308.241 347.944C308.241 347.944 308.241 347.944 308.241 347.944C308.241 347.944 308.241 347.944 308.241 347.944C308.241 347.944 308.241 347.944 308.241 347.944C308.241 347.944 308.241 347.944 308.241 347.944C308.241 347.944 308.241 347.944 308.241 347.944C308.241 347.944 308.241 347.944 308.241 347.944C308.241 347.944 308.241 347.944 308.241 347.944C308.241 347.944 308.241 347.944 308.241 347.944C308.241 347.944 308.241 347.944 308.241 347.944C308.241 347.944 308.241 347.944 308.241 347.944C308.241 347.944 308.241 347.944 308.241 347.944C308.241 347.944 308.241 347.944 308.241 347.944C308.241 347.944 308.241 347.944 308.241 347.944C308.241 347.944 308.241 347.944 308.241 347.944C308.241 347.944 308.241 347.944 308.241 347.944C308.241 347.944 308.241 347.944 308.241 347.944C308.241 347.944 308.241 347.944 308.241 347.944C308.241 347.944 308.241 347.944 308.241 347.944C308.241 347.944 308.241 347.944 308.241 347.944C308.241 347.944 308.241 347.944 308.241 347.944C308.241 347.944 308.241 347.944 308.241 347.944C308.241 347.944 308.241 347.944 308.241 347.944C308.241 347.944 308.241 347.944 308.241 347.944C308.241 347.944 308.24 347.944 308.24 347.944C308.24 347.944 308.24 347.944 308.24 347.944C308.24 347.944 308.24 347.944 308.24 347.944C308.24 347.944 308.24 347.944 308.24 347.944C308.24 347.944 308.24 347.944 308.24 347.944C308.24 347.944 308.24 347.944 308.24 347.944C308.24 347.944 308.24 347.944 308.24 347.944C308.24 347.944 308.24 347.944 308.24 347.944C308.24 347.944 308.24 347.944 308.24 347.944C308.24 347.944 308.24 347.944 308.24 347.944C308.24 347.944 308.24 347.944 308.24 347.944C308.24 347.944 308.24 347.944 308.24 347.944C308.24 347.944 308.24 347.944 308.24 347.944C308.24 347.944 308.24 347.944 308.24 347.944C308.24 347.944 308.24 347.944 308.24 347.944C308.24 347.944 308.24 347.944 308.24 347.944C308.24 347.944 308.24 347.944 308.24 347.944C308.24 347.944 308.24 347.944 308.24 347.944C308.24 347.944 308.24 347.944 308.24 347.944C308.24 347.944 308.24 347.944 308.24 347.944C308.24 347.944 308.24 347.944 308.24 347.944C308.24 347.944 308.24 347.944 308.24 347.944C308.24 347.944 308.24 347.944 308.24 347.944C308.24 347.944 308.24 347.944 308.24 347.944C308.24 347.944 308.24 347.944 308.24 347.944C308.24 347.944 308.24 347.944 308.24 347.944C308.24 347.944 308.24 347.944 308.24 347.944C308.24 347.944 308.24 347.944 308.24 347.944C308.24 347.944 308.24 347.944 308.24 347.944C308.24 347.944 308.24 347.944 308.24 347.944C308.24 347.944 308.24 347.944 308.24 347.944C308.24 347.944 308.24 347.944 308.24 347.944C308.24 347.944 308.24 347.944 308.24 347.944C308.24 347.944 308.24 347.944 308.24 347.944C308.24 347.944 308.24 347.944 308.24 347.944C308.24 347.944 308.24 347.944 308.24 347.944C308.24 347.944 308.24 347.944 308.24 347.944C308.24 347.944 308.24 347.944 308.24 347.944C308.24 347.944 308.24 347.944 308.24 347.944C308.24 347.944 308.24 347.944 308.24 347.944C308.24 347.944 308.24 347.944 308.24 347.944C308.24 347.944 308.24 347.944 308.24 347.944C308.24 347.944 308.24 347.944 308.24 347.944C308.24 347.944 308.24 347.944 308.24 347.944V350.235C308.24 350.235 308.24 350.235 308.24 350.235C308.24 350.235 308.24 350.235 308.24 350.235C308.24 350.235 308.24 350.235 308.24 350.235C308.24 350.235 308.24 350.235 308.24 350.235C308.24 350.235 308.24 350.235 308.24 350.235C308.24 350.235 308.24 350.235 308.24 350.235C308.24 350.235 308.24 350.235 308.24 350.235C308.24 350.235 308.24 350.235 308.24 350.235C308.24 350.235 308.24 350.235 308.24 350.235C308.24 350.235 308.24 350.235 308.24 350.235C308.24 350.235 308.24 350.235 308.24 350.235C308.24 350.235 308.24 350.235 308.24 350.235C308.24 350.235 308.24 350.235 308.24 350.235C308.24 350.235 308.24 350.235 308.24 350.235C308.24 350.235 308.24 350.235 308.24 350.235C308.24 350.235 308.24 350.235 308.24 350.235C308.24 350.235 308.24 350.235 308.24 350.235C308.24 350.235 308.24 350.235 308.24 350.235C308.24 350.235 308.24 350.235 308.24 350.235C308.24 350.235 308.24 350.235 308.24 350.235C308.24 350.235 308.24 350.235 308.24 350.235C308.24 350.235 308.24 350.235 308.24 350.235C308.24 350.235 308.24 350.235 308.24 350.235C308.24 350.235 308.24 350.235 308.24 350.235C308.24 350.235 308.24 350.235 308.24 350.235C308.24 350.235 308.24 350.235 308.24 350.235C308.24 350.235 308.24 350.235 308.24 350.235C308.24 350.235 308.24 350.235 308.24 350.235C308.24 350.235 308.24 350.235 308.24 350.235C308.24 350.235 308.24 350.235 308.24 350.235C308.24 350.235 308.24 350.235 308.24 350.235C308.24 350.235 308.24 350.235 308.24 350.235C308.24 350.235 308.24 350.235 308.24 350.235C308.24 350.235 308.24 350.235 308.24 350.235C308.24 350.235 308.24 350.235 308.24 350.235C308.24 350.235 308.24 350.235 308.24 350.235C308.24 350.235 308.24 350.235 308.24 350.235C308.24 350.235 308.24 350.235 308.24 350.235C308.24 350.235 308.24 350.235 308.24 350.235C308.24 350.235 308.24 350.235 308.24 350.235C308.24 350.235 308.24 350.235 308.24 350.235C308.24 350.235 308.24 350.235 308.24 350.235C308.24 350.235 308.24 350.235 308.24 350.235C308.24 350.235 308.241 350.235 308.241 350.235C308.241 350.235 308.241 350.235 308.241 350.235C308.241 350.235 308.241 350.235 308.241 350.235C308.241 350.235 308.241 350.235 308.241 350.235C308.241 350.235 308.241 350.235 308.241 350.235C308.241 350.235 308.241 350.235 308.241 350.235C308.241 350.235 308.241 350.235 308.241 350.235C308.241 350.235 308.241 350.235 308.241 350.235C308.241 350.235 308.241 350.235 308.241 350.235C308.241 350.235 308.241 350.235 308.241 350.235C308.241 350.235 308.241 350.235 308.241 350.235C308.241 350.235 308.241 350.235 308.241 350.235C308.241 350.235 308.241 350.235 308.241 350.235C308.241 350.235 308.241 350.235 308.241 350.235C308.241 350.235 308.241 350.235 308.241 350.235C308.241 350.235 308.241 350.235 308.241 350.235C308.241 350.235 308.241 350.235 308.241 350.235C308.241 350.235 308.241 350.235 308.241 350.235C308.241 350.235 308.241 350.235 308.241 350.235C308.241 350.235 308.241 350.235 308.241 350.235C308.241 350.235 308.241 350.235 308.241 350.235C308.241 350.235 308.241 350.235 308.241 350.235C308.241 350.235 308.241 350.235 308.241 350.235C308.241 350.235 308.241 350.235 308.241 350.235C308.241 350.235 308.241 350.235 308.241 350.235C308.241 350.235 308.241 350.235 308.241 350.235C308.241 350.235 308.241 350.235 308.241 350.235C308.241 350.235 308.241 350.235 308.241 350.235C308.241 350.235 308.241 350.235 308.241 350.235C308.241 350.235 308.241 350.235 308.241 350.235C308.241 350.235 308.241 350.235 308.241 350.235C308.241 350.235 308.241 350.235 308.241 350.235C308.241 350.235 308.241 350.235 308.241 350.235C308.241 350.235 308.241 350.235 308.241 350.235C308.241 350.235 308.241 350.235 308.241 350.235C308.241 350.235 308.241 350.235 308.241 350.235C308.241 350.235 308.241 350.235 308.241 350.235C308.241 350.235 308.241 350.235 308.241 350.235C308.241 350.235 308.241 350.235 308.241 350.235C308.241 350.235 308.241 350.235 308.241 350.235C308.241 350.235 308.241 350.235 308.241 350.235C308.241 350.235 308.241 350.235 308.241 350.235C308.241 350.235 308.241 350.235 308.241 350.235C308.241 350.235 308.241 350.235 308.241 350.235C308.241 350.235 308.241 350.235 308.241 350.235C308.241 350.235 308.241 350.235 308.241 350.235C308.241 350.235 308.241 350.235 308.241 350.235C308.241 350.235 308.241 350.235 308.241 350.235C308.241 350.235 308.241 350.235 308.241 350.235C308.241 350.235 308.241 350.235 308.241 350.235C308.241 350.235 308.241 350.235 308.241 350.235C308.241 350.235 308.241 350.235 308.241 350.235C308.241 350.235 308.241 350.235 308.241 350.235C308.241 350.235 308.241 350.235 308.241 350.235C308.241 350.235 308.241 350.235 308.241 350.235C308.241 350.235 308.241 350.235 308.241 350.235C308.241 350.235 308.241 350.235 308.241 350.235C308.241 350.235 308.241 350.235 308.241 350.235C308.241 350.235 308.241 350.235 308.241 350.235C308.241 350.235 308.241 350.235 308.241 350.235C308.241 350.235 308.241 350.235 308.241 350.235C308.241 350.235 308.241 350.235 308.241 350.235C308.241 350.235 308.241 350.235 308.241 350.235C308.241 350.235 308.241 350.235 308.241 350.235C308.241 350.235 308.241 350.235 308.241 350.235C308.241 350.235 308.241 350.235 308.241 350.235C308.241 350.235 308.241 350.235 308.241 350.235C308.241 350.235 308.241 350.235 308.241 350.235C308.241 350.235 308.241 350.235 308.241 350.235C308.241 350.235 308.241 350.235 308.241 350.235C308.241 350.235 308.241 350.235 308.241 350.235C308.241 350.235 308.241 350.235 308.241 350.235C308.241 350.235 308.241 350.235 308.241 350.235C308.241 350.235 308.242 350.235 308.242 350.235C308.242 350.235 308.242 350.235 308.242 350.235C308.242 350.235 308.242 350.235 308.242 350.235C308.242 350.235 308.242 350.235 308.242 350.235C308.242 350.235 308.242 350.235 308.242 350.235C308.242 350.235 308.242 350.235 308.242 350.235C308.242 350.235 308.242 350.235 308.242 350.235C308.242 350.235 308.242 350.235 308.242 350.235C308.242 350.235 308.242 350.235 308.242 350.235C308.242 350.235 308.242 350.235 308.242 350.235C308.242 350.235 308.242 350.235 308.242 350.235C308.242 350.235 308.242 350.235 308.242 350.235C308.242 350.235 308.242 350.235 308.242 350.235C308.242 350.235 308.242 350.235 308.242 350.235C308.242 350.235 308.242 350.235 308.242 350.235C308.242 350.235 308.242 350.235 308.242 350.235C308.242 350.235 308.242 350.235 308.242 350.235C308.242 350.235 308.242 350.235 308.242 350.235C308.242 350.235 308.242 350.235 308.242 350.235C308.242 350.235 308.242 350.235 308.242 350.235C308.242 350.235 308.242 350.235 308.242 350.235C308.242 350.235 308.242 350.235 308.242 350.235C308.242 350.235 308.242 350.235 308.242 350.235C308.242 350.235 308.242 350.235 308.242 350.235C308.242 350.235 308.242 350.235 308.242 350.235C308.242 350.235 308.242 350.235 308.242 350.235C308.242 350.235 308.242 350.235 308.242 350.235C308.242 350.235 308.242 350.235 308.242 350.235C308.242 350.235 308.242 350.235 308.242 350.235C308.242 350.235 308.242 350.235 308.242 350.235C308.242 350.235 308.242 350.235 308.242 350.235C308.242 350.235 308.242 350.235 308.242 350.235C308.242 350.235 308.242 350.235 308.242 350.235C308.242 350.235 308.242 350.235 308.242 350.235C308.242 350.235 308.242 350.235 308.242 350.235C308.242 350.235 308.242 350.235 308.242 350.235C308.242 350.235 308.242 350.235 308.242 350.235C308.242 350.235 308.242 350.235 308.242 350.235C308.242 350.235 308.242 350.235 308.242 350.235C308.242 350.235 308.242 350.235 308.242 350.235C308.242 350.235 308.242 350.235 308.242 350.235C308.242 350.235 308.242 350.235 308.242 350.235C308.242 350.235 308.242 350.235 308.242 350.235C308.242 350.235 308.242 350.235 308.242 350.235C308.242 350.235 308.242 350.235 308.242 350.235C308.242 350.235 308.242 350.235 308.242 350.235C308.242 350.235 308.242 350.235 308.242 350.235C308.242 350.235 308.242 350.235 308.242 350.235C308.242 350.235 308.242 350.235 308.242 350.235C308.242 350.235 308.242 350.235 308.242 350.235C308.242 350.235 308.242 350.235 308.242 350.235C308.242 350.235 308.242 350.235 308.242 350.235C308.242 350.235 308.242 350.235 308.242 350.235C308.242 350.235 308.242 350.235 308.242 350.235C308.242 350.235 308.242 350.235 308.242 350.235C308.242 350.235 308.242 350.235 308.242 350.235C308.242 350.235 308.242 350.235 308.242 350.235C308.242 350.235 308.242 350.235 308.242 350.235C308.242 350.235 308.242 350.235 308.242 350.235C308.242 350.235 308.242 350.235 308.242 350.235C308.242 350.235 308.242 350.235 308.242 350.235C308.242 350.235 308.242 350.235 308.242 350.235C308.242 350.235 308.242 350.235 308.242 350.235C308.242 350.235 308.242 350.235 308.242 350.235C308.242 350.235 308.242 350.235 308.242 350.235C308.242 350.235 308.242 350.235 308.242 350.235C308.242 350.235 308.242 350.235 308.242 350.235C308.242 350.235 308.242 350.235 308.242 350.235C308.242 350.235 308.242 350.235 308.242 350.235C308.242 350.235 308.242 350.235 308.242 350.235C308.242 350.235 308.242 350.235 308.242 350.235C308.242 350.235 308.242 350.235 308.242 350.235C308.242 350.235 308.242 350.235 308.242 350.235C308.242 350.235 308.243 350.235 308.243 350.235C308.243 350.235 308.243 350.235 308.243 350.235C308.243 350.235 308.243 350.235 308.243 350.235C308.243 350.235 308.243 350.235 308.243 350.235C308.243 350.235 308.243 350.235 308.243 350.235C308.243 350.235 308.243 350.235 308.243 350.235C308.243 350.235 308.243 350.235 308.243 350.235C308.243 350.235 308.243 350.235 308.243 350.235C308.243 350.235 308.243 350.235 308.243 350.235C308.243 350.235 308.243 350.235 308.243 350.235C308.243 350.235 308.243 350.235 308.243 350.235C308.243 350.235 308.243 350.235 308.243 350.235C308.243 350.235 308.243 350.235 308.243 350.235C308.243 350.235 308.243 350.235 308.243 350.235C308.243 350.235 308.243 350.235 308.243 350.235C308.243 350.235 308.243 350.235 308.243 350.235C308.243 350.235 308.243 350.235 308.243 350.235C308.243 350.235 308.243 350.235 308.243 350.235C308.243 350.235 308.243 350.235 308.243 350.235C308.243 350.235 308.243 350.235 308.243 350.235C308.243 350.235 308.243 350.235 308.243 350.235C308.243 350.235 308.243 350.235 308.243 350.235C308.243 350.235 308.243 350.235 308.243 350.235C308.243 350.235 308.243 350.235 308.243 350.235C308.243 350.235 308.243 350.235 308.243 350.235C308.243 350.235 308.243 350.235 308.243 350.235C308.243 350.235 308.243 350.235 308.243 350.235C308.243 350.235 308.243 350.235 308.243 350.235C308.243 350.235 308.243 350.235 308.243 350.235C308.243 350.235 308.243 350.235 308.243 350.235C308.243 350.235 308.243 350.235 308.243 350.235C308.243 350.235 308.243 350.235 308.243 350.235C308.243 350.235 308.243 350.235 308.243 350.235C308.243 350.235 308.243 350.235 308.243 350.235C308.243 350.235 308.243 350.235 308.243 350.235C308.243 350.235 308.243 350.235 308.243 350.235C308.243 350.235 308.243 350.235 308.243 350.235C308.243 350.235 308.243 350.235 308.243 350.235C308.243 350.235 308.243 350.235 308.243 350.235C308.243 350.235 308.243 350.235 308.243 350.235C308.243 350.235 308.243 350.235 308.243 350.235C308.243 350.235 308.243 350.235 308.243 350.235C308.243 350.235 308.243 350.235 308.243 350.235C308.243 350.235 308.243 350.235 308.243 350.235C308.243 350.235 308.243 350.235 308.243 350.235C308.243 350.235 308.243 350.235 308.243 350.235C308.243 350.235 308.243 350.235 308.243 350.235C308.243 350.235 308.243 350.235 308.243 350.235C308.243 350.235 308.243 350.235 308.243 350.235C308.243 350.235 308.243 350.235 308.243 350.235C308.243 350.235 308.243 350.235 308.243 350.235C308.243 350.235 308.243 350.235 308.243 350.235C308.243 350.235 308.243 350.235 308.243 350.235C308.243 350.235 308.243 350.235 308.243 350.235C308.243 350.235 308.243 350.235 308.243 350.235C308.243 350.235 308.243 350.235 308.243 350.235C308.243 350.235 308.243 350.235 308.243 350.235C308.243 350.235 308.243 350.235 308.243 350.235C308.243 350.235 308.243 350.235 308.243 350.235C308.243 350.235 308.243 350.235 308.243 350.235C308.243 350.235 308.243 350.235 308.243 350.235C308.243 350.235 308.243 350.235 308.243 350.235C308.243 350.235 308.243 350.235 308.243 350.235C308.243 350.235 308.243 350.235 308.243 350.235C308.243 350.235 308.243 350.235 308.243 350.235C308.243 350.235 308.243 350.235 308.243 350.235C308.243 350.235 308.243 350.235 308.243 350.235C308.243 350.235 308.243 350.235 308.243 350.235C308.243 350.235 308.243 350.235 308.243 350.235C308.243 350.235 308.243 350.235 308.243 350.235C308.243 350.235 308.243 350.235 308.243 350.235C308.243 350.235 308.243 350.235 308.243 350.235C308.243 350.235 308.243 350.235 308.243 350.235C308.243 350.235 308.244 350.235 308.244 350.235C308.244 350.235 308.244 350.235 308.244 350.235C308.244 350.235 308.244 350.235 308.244 350.235C308.244 350.235 308.244 350.235 308.244 350.235C308.244 350.235 308.244 350.235 308.244 350.235C308.244 350.235 308.244 350.235 308.244 350.235C308.244 350.235 308.244 350.235 308.244 350.235C308.244 350.235 308.244 350.235 308.244 350.235C308.244 350.235 308.244 350.235 308.244 350.235C308.244 350.235 308.244 350.235 308.244 350.235C308.244 350.235 308.244 350.235 308.244 350.235C308.244 350.235 308.244 350.235 308.244 350.235C308.244 350.235 308.244 350.235 308.244 350.235C308.244 350.235 308.244 350.235 308.244 350.235C308.244 350.235 308.244 350.235 308.244 350.235C308.244 350.235 308.244 350.235 308.244 350.235C308.244 350.235 308.244 350.235 308.244 350.235C308.244 350.235 308.244 350.235 308.244 350.235C308.244 350.235 308.244 350.235 308.244 350.235C308.244 350.235 308.244 350.235 308.244 350.235C308.244 350.235 308.244 350.235 308.244 350.235C308.244 350.235 308.244 350.235 308.244 350.235C308.244 350.235 308.244 350.235 308.244 350.235C308.244 350.235 308.244 350.235 308.244 350.235C308.244 350.235 308.244 350.235 308.244 350.235C308.244 350.235 308.244 350.235 308.244 350.235C308.244 350.235 308.244 350.235 308.244 350.235C308.244 350.235 308.244 350.235 308.244 350.235C308.244 350.235 308.244 350.235 308.244 350.235C308.244 350.235 308.244 350.235 308.244 350.235C308.244 350.235 308.244 350.235 308.244 350.235C308.244 350.235 308.244 350.235 308.244 350.235C308.244 350.235 308.244 350.235 308.244 350.235C308.244 350.235 308.244 350.235 308.244 350.235C308.244 350.235 308.244 350.235 308.244 350.235C308.244 350.235 308.244 350.235 308.244 350.235C308.244 350.235 308.244 350.235 308.244 350.235C308.244 350.235 308.244 350.235 308.244 350.235C308.244 350.235 308.244 350.235 308.244 350.235C308.244 350.235 308.244 350.235 308.244 350.235C308.244 350.235 308.244 350.235 308.244 350.235C308.244 350.235 308.244 350.235 308.244 350.235C308.244 350.235 308.244 350.235 308.244 350.235C308.244 350.235 308.244 350.235 308.244 350.235C308.244 350.235 308.244 350.235 308.244 350.235C308.244 350.235 308.244 350.235 308.244 350.235C308.244 350.235 308.244 350.235 308.244 350.235C308.244 350.235 308.244 350.235 308.244 350.235C308.244 350.235 308.244 350.235 308.244 350.235C308.244 350.235 308.244 350.235 308.244 350.235C308.244 350.235 308.244 350.235 308.244 350.235C308.244 350.235 308.244 350.235 308.244 350.235C308.244 350.235 308.244 350.235 308.244 350.235C308.244 350.235 308.244 350.235 308.244 350.235C308.244 350.235 308.244 350.235 308.244 350.235C308.244 350.235 308.244 350.235 308.244 350.235C308.244 350.235 308.244 350.235 308.244 350.235C308.244 350.235 308.244 350.235 308.244 350.235C308.244 350.235 308.244 350.235 308.244 350.235C308.244 350.235 308.244 350.235 308.244 350.235C308.244 350.235 308.244 350.235 308.244 350.235C308.244 350.235 308.244 350.235 308.244 350.235C308.244 350.235 308.244 350.235 308.244 350.235C308.244 350.235 308.244 350.235 308.244 350.235C308.244 350.235 308.244 350.235 308.244 350.235C308.244 350.235 308.244 350.235 308.244 350.235C308.244 350.235 308.244 350.235 308.244 350.235C308.244 350.235 308.244 350.235 308.244 350.235C308.244 350.235 308.244 350.235 308.244 350.235C308.244 350.235 308.244 350.235 308.244 350.235C308.244 350.235 308.244 350.235 308.244 350.235C308.244 350.235 308.244 350.235 308.244 350.235C308.244 350.235 308.244 350.235 308.244 350.235C308.244 350.235 308.245 350.235 308.245 350.235C308.245 350.235 308.245 350.235 308.245 350.235C308.245 350.235 308.245 350.235 308.245 350.235C308.245 350.235 308.245 350.235 308.245 350.235C308.245 350.235 308.245 350.235 308.245 350.235C308.245 350.235 308.245 350.235 308.245 350.235C308.245 350.235 308.245 350.235 308.245 350.235C308.245 350.235 308.245 350.235 308.245 350.235C308.245 350.235 308.245 350.235 308.245 350.235C308.245 350.235 308.245 350.235 308.245 350.235C308.245 350.235 308.245 350.235 308.245 350.235C308.245 350.235 308.245 350.235 308.245 350.235C308.245 350.235 308.245 350.235 308.245 350.235C308.245 350.235 308.245 350.235 308.245 350.235C308.245 350.235 308.245 350.235 308.245 350.235C308.245 350.235 308.245 350.235 308.245 350.235C308.245 350.235 308.245 350.235 308.245 350.235C308.245 350.235 308.245 350.235 308.245 350.235C308.245 350.235 308.245 350.235 308.245 350.235C308.245 350.235 308.245 350.235 308.245 350.235C308.245 350.235 308.245 350.235 308.245 350.235C308.245 350.235 308.245 350.235 308.245 350.235C308.245 350.235 308.245 350.235 308.245 350.235C308.245 350.235 308.245 350.235 308.245 350.235C308.245 350.235 308.245 350.235 308.245 350.235C308.245 350.235 308.245 350.235 308.245 350.235C308.245 350.235 308.245 350.235 308.245 350.235C308.245 350.235 308.245 350.235 308.245 350.235C308.245 350.235 308.245 350.235 308.245 350.235C308.245 350.235 308.245 350.235 308.245 350.235C308.245 350.235 308.245 350.235 308.245 350.235C308.245 350.235 308.245 350.235 308.245 350.235C308.245 350.235 308.245 350.235 308.245 350.235C308.245 350.235 308.245 350.235 308.245 350.235C308.245 350.235 308.245 350.235 308.245 350.235C308.245 350.235 308.245 350.235 308.245 350.235C308.245 350.235 308.245 350.235 308.245 350.235C308.245 350.235 308.245 350.235 308.245 350.235C308.245 350.235 308.245 350.235 308.245 350.235C308.245 350.235 308.245 350.235 308.245 350.235C308.245 350.235 308.245 350.235 308.245 350.235C308.245 350.235 308.245 350.235 308.245 350.235C308.245 350.235 308.245 350.235 308.245 350.235C308.245 350.235 308.245 350.235 308.245 350.235C308.245 350.235 308.245 350.235 308.245 350.235C308.245 350.235 308.245 350.235 308.245 350.235C308.245 350.235 308.245 350.235 308.245 350.235C308.245 350.235 308.245 350.235 308.245 350.235C308.245 350.235 308.245 350.235 308.245 350.235C308.245 350.235 308.245 350.235 308.245 350.235C308.245 350.235 308.245 350.235 308.245 350.235C308.245 350.235 308.245 350.235 308.245 350.235C308.245 350.235 308.245 350.235 308.245 350.235C308.245 350.235 308.245 350.235 308.245 350.235C308.245 350.235 308.245 350.235 308.245 350.235C308.245 350.235 308.245 350.235 308.245 350.235C308.245 350.235 308.245 350.235 308.245 350.235C308.245 350.235 308.245 350.235 308.245 350.235C308.245 350.235 308.245 350.235 308.245 350.235C308.245 350.235 308.245 350.235 308.245 350.235C308.245 350.235 308.245 350.235 308.245 350.235C308.245 350.235 308.245 350.235 308.245 350.235C308.245 350.235 308.245 350.235 308.245 350.235C308.245 350.235 308.245 350.235 308.245 350.235C308.245 350.235 308.245 350.235 308.245 350.235C308.245 350.235 308.245 350.235 308.245 350.235C308.245 350.235 308.245 350.235 308.245 350.235C308.245 350.235 308.245 350.235 308.245 350.235C308.245 350.235 308.245 350.235 308.245 350.235C308.245 350.235 308.245 350.235 308.245 350.235C308.245 350.235 308.245 350.235 308.245 350.235C308.245 350.235 308.245 350.235 308.245 350.235C308.245 350.235 308.245 350.235 308.245 350.235C308.245 350.235 308.245 350.235 308.246 350.235C308.246 350.235 308.246 350.235 308.246 350.235C308.246 350.235 308.246 350.235 308.246 350.235C308.246 350.235 308.246 350.235 308.246 350.235C308.246 350.235 308.246 350.235 308.246 350.235C308.246 350.235 308.246 350.235 308.246 350.235C308.246 350.235 308.246 350.235 308.246 350.235C308.246 350.235 308.246 350.235 308.246 350.235C308.246 350.235 308.246 350.235 308.246 350.235C308.246 350.235 308.246 350.235 308.246 350.235C308.246 350.235 308.246 350.235 308.246 350.235C308.246 350.235 308.246 350.235 308.246 350.235C308.246 350.235 308.246 350.235 308.246 350.235C308.246 350.235 308.246 350.235 308.246 350.235C308.246 350.235 308.246 350.235 308.246 350.235C308.246 350.235 308.246 350.235 308.246 350.235C308.246 350.235 308.246 350.235 308.246 350.235C308.246 350.235 308.246 350.235 308.246 350.235C308.246 350.235 308.246 350.235 308.246 350.235C308.246 350.235 308.246 350.235 308.246 350.235C308.246 350.235 308.246 350.235 308.246 350.235C308.246 350.235 308.246 350.235 308.246 350.235C308.246 350.235 308.246 350.235 308.246 350.235C308.246 350.235 308.246 350.235 308.246 350.235C308.246 350.235 308.246 350.235 308.246 350.235C308.246 350.235 308.246 350.235 308.246 350.235C308.246 350.235 308.246 350.235 308.246 350.235C308.246 350.235 308.246 350.235 308.246 350.235C308.246 350.235 308.246 350.235 308.246 350.235C308.246 350.235 308.246 350.235 308.246 350.235C308.246 350.235 308.246 350.235 308.246 350.235C308.246 350.235 308.246 350.235 308.246 350.235C308.246 350.235 308.246 350.235 308.246 350.235C308.246 350.235 308.246 350.235 308.246 350.235C308.246 350.235 308.246 350.235 308.246 350.235C308.246 350.235 308.246 350.235 308.246 350.235C308.246 350.235 308.246 350.235 308.246 350.235C308.246 350.235 308.246 350.235 308.246 350.235C308.246 350.235 308.246 350.235 308.246 350.235C308.246 350.235 308.246 350.235 308.246 350.235C308.246 350.235 308.246 350.235 308.246 350.235C308.246 350.235 308.246 350.235 308.246 350.235C308.246 350.235 308.246 350.235 308.246 350.235C308.246 350.235 308.246 350.235 308.246 350.235C308.246 350.235 308.246 350.235 308.246 350.235C308.246 350.235 308.246 350.235 308.246 350.235C308.246 350.235 308.246 350.235 308.246 350.235C308.246 350.235 308.246 350.235 308.246 350.235C308.246 350.235 308.246 350.235 308.246 350.235C308.246 350.235 308.246 350.235 308.246 350.235C308.246 350.235 308.246 350.235 308.246 350.235C308.246 350.235 308.246 350.235 308.246 350.235C308.246 350.235 308.246 350.235 308.246 350.235C308.246 350.235 308.246 350.235 308.246 350.235C308.246 350.235 308.246 350.235 308.246 350.235C308.246 350.235 308.246 350.235 308.246 350.235C308.246 350.235 308.246 350.235 308.246 350.235C308.246 350.235 308.246 350.235 308.246 350.235C308.246 350.235 308.246 350.235 308.246 350.235C308.246 350.235 308.246 350.235 308.246 350.235C308.246 350.235 308.246 350.235 308.246 350.235C308.246 350.235 308.246 350.235 308.246 350.235C308.246 350.235 308.246 350.235 308.246 350.235C308.246 350.235 308.246 350.235 308.246 350.235C308.246 350.235 308.246 350.235 308.246 350.235C308.246 350.235 308.246 350.235 308.246 350.235C308.246 350.235 308.246 350.235 308.246 350.235C308.246 350.235 308.246 350.235 308.246 350.235C308.246 350.235 308.246 350.235 308.246 350.235C308.246 350.235 308.246 350.235 308.246 350.235C308.246 350.235 308.246 350.235 308.246 350.235C308.246 350.235 308.246 350.235 308.246 350.235C308.246 350.235 308.246 350.235 308.246 350.235C308.246 350.235 308.246 350.235 308.247 350.235C308.247 350.235 308.247 350.235 308.247 350.235C308.247 350.235 308.247 350.235 308.247 350.235C308.247 350.235 308.247 350.235 308.247 350.235C308.247 350.235 308.247 350.235 308.247 350.235C308.247 350.235 308.247 350.235 308.247 350.235C308.247 350.235 308.247 350.235 308.247 350.235C308.247 350.235 308.247 350.235 308.247 350.235C308.247 350.235 308.247 350.235 308.247 350.235C308.247 350.235 308.247 350.235 308.247 350.235C308.247 350.235 308.247 350.235 308.247 350.235C308.247 350.235 308.247 350.235 308.247 350.235C308.247 350.235 308.247 350.235 308.247 350.235C308.247 350.235 308.247 350.235 308.247 350.235C308.247 350.235 308.247 350.235 308.247 350.235C308.247 350.235 308.247 350.235 308.247 350.235C308.247 350.235 308.247 350.235 308.247 350.235C308.247 350.235 308.247 350.235 308.247 350.235C308.247 350.235 308.247 350.235 308.247 350.235C308.247 350.235 308.247 350.235 308.247 350.235C308.247 350.235 308.247 350.235 308.247 350.235C308.247 350.235 308.247 350.235 308.247 350.235C308.247 350.235 308.247 350.235 308.247 350.235C308.247 350.235 308.247 350.235 308.247 350.235C308.247 350.235 308.247 350.235 308.247 350.235C308.247 350.235 308.247 350.235 308.247 350.235C308.247 350.235 308.247 350.235 308.247 350.235C308.247 350.235 308.247 350.235 308.247 350.235C308.247 350.235 308.247 350.235 308.247 350.235C308.247 350.235 308.247 350.235 308.247 350.235C308.247 350.235 308.247 350.235 308.247 350.235V347.944ZM341.577 334.138C333.046 342.669 321.263 347.944 308.247 347.944V350.235C321.895 350.235 334.253 344.701 343.197 335.758L341.577 334.138ZM355.383 300.808C355.383 313.825 350.108 325.607 341.577 334.138L343.197 335.758C352.14 326.815 357.673 314.456 357.673 300.808H355.383ZM341.577 267.478C350.108 276.01 355.383 287.792 355.383 300.808H357.673C357.673 287.16 352.14 274.802 343.197 265.858L341.577 267.478ZM329.333 332.356C325.287 338.11 320.187 342.181 314.583 343.944L315.27 346.13C321.461 344.182 326.943 339.738 331.207 333.674L329.333 332.356ZM332.261 327.546C331.364 329.252 330.385 330.859 329.333 332.356L331.207 333.674C332.318 332.093 333.348 330.401 334.289 328.611L332.261 327.546ZM321.666 329.224H333.275V326.933H321.666V329.224ZM320.548 327.832C320.062 330.035 319.519 332.094 318.927 333.988L321.114 334.671C321.727 332.708 322.286 330.585 322.785 328.325L320.548 327.832ZM318.927 333.988C317.541 338.423 315.866 341.939 314.019 344.338L315.834 345.736C317.908 343.042 319.684 339.246 321.114 334.671L318.927 333.988ZM334.731 323.915H322.28V326.206H334.731V323.915ZM338.463 302.291C338.276 310.501 336.544 318.127 333.684 324.598L335.779 325.524C338.768 318.763 340.56 310.838 340.753 302.343L338.463 302.291ZM324.365 303.462H339.608V301.172H324.365V303.462ZM323.219 302.306C323.138 310.531 322.393 318.222 321.154 324.85L323.406 325.271C324.672 318.498 325.428 310.673 325.51 302.328L323.219 302.306ZM320.339 325.278C321.634 318.565 322.409 310.727 322.493 302.328L320.202 302.306C320.119 310.583 319.355 318.282 318.089 324.844L320.339 325.278ZM319.214 323.915H297.28V326.206H319.214V323.915ZM294.001 302.328C294.085 310.727 294.86 318.565 296.155 325.278L298.405 324.844C297.139 318.282 296.375 310.583 296.292 302.306L294.001 302.328ZM295.147 303.462H321.347V301.172H295.147V303.462ZM339.608 298.154H324.365V300.445H339.608V298.154ZM333.684 277.019C336.544 283.49 338.276 291.115 338.463 299.325L340.753 299.273C340.56 290.778 338.768 282.854 335.779 276.093L333.684 277.019ZM322.28 277.701H334.731V275.41H322.28V277.701ZM321.154 276.766C322.393 283.394 323.138 291.086 323.219 299.311L325.51 299.288C325.428 290.944 324.672 283.118 323.406 276.345L321.154 276.766ZM322.493 299.288C322.409 290.89 321.634 283.052 320.339 276.339L318.089 276.773C319.355 283.334 320.119 291.034 320.202 299.311L322.493 299.288ZM321.347 298.154H295.147V300.445H321.347V298.154ZM296.155 276.339C294.86 283.052 294.085 290.89 294.002 299.288L296.292 299.311C296.375 291.034 297.139 283.334 298.405 276.773L296.155 276.339ZM297.28 277.701H319.214V275.41H297.28V277.701ZM333.275 272.393H321.666V274.684H333.275V272.393ZM329.333 269.26C330.385 270.757 331.364 272.365 332.261 274.071L334.289 273.005C333.348 271.216 332.318 269.524 331.207 267.943L329.333 269.26ZM314.583 257.672C320.187 259.435 325.287 263.507 329.333 269.26L331.207 267.943C326.943 261.879 321.461 257.434 315.27 255.487L314.583 257.672ZM314.019 257.278C315.866 259.678 317.541 263.194 318.927 267.629L321.114 266.946C319.684 262.371 317.908 258.574 315.834 255.881L314.019 257.278ZM318.927 267.629C319.519 269.522 320.062 271.582 320.548 273.785L322.785 273.291C322.286 271.032 321.727 268.908 321.114 266.946L318.927 267.629ZM318.238 267.842C317.001 263.884 315.559 260.602 313.96 258.285C312.395 256.018 310.482 254.399 308.247 254.399L308.247 256.69C309.31 256.69 310.626 257.487 312.075 259.586C313.49 261.636 314.848 264.674 316.051 268.525L318.238 267.842ZM319.696 273.283C319.254 271.355 318.767 269.535 318.238 267.842L316.051 268.525C316.561 270.156 317.033 271.917 317.462 273.794L319.696 273.283ZM318.579 272.393H297.915V274.684H318.579V272.393ZM298.257 267.842C297.727 269.535 297.24 271.354 296.798 273.283L299.031 273.794C299.461 271.917 299.933 270.156 300.443 268.525L298.257 267.842ZM308.247 254.399C306.012 254.399 304.099 256.018 302.534 258.285C300.935 260.602 299.493 263.884 298.257 267.842L300.443 268.525C301.646 264.674 303.005 261.636 304.419 259.586C305.868 257.487 307.184 256.69 308.247 256.69L308.247 254.399ZM287.161 269.261C291.207 263.507 296.307 259.435 301.911 257.672L301.224 255.487C295.033 257.434 289.551 261.879 285.287 267.943L287.161 269.261ZM284.233 274.071C285.129 272.365 286.109 270.757 287.161 269.26L285.287 267.943C284.176 269.524 283.145 271.216 282.205 273.005L284.233 274.071ZM294.828 272.393H283.219V274.684H294.828V272.393ZM295.946 273.785C296.432 271.582 296.975 269.522 297.567 267.629L295.38 266.946C294.767 268.909 294.208 271.032 293.709 273.291L295.946 273.785ZM297.567 267.629C298.953 263.194 300.627 259.678 302.475 257.278L300.66 255.881C298.586 258.574 296.81 262.371 295.38 266.946L297.567 267.629ZM281.762 277.701H294.214V275.41H281.762V277.701ZM278.031 299.325C278.218 291.115 279.95 283.489 282.81 277.019L280.715 276.093C277.726 282.854 275.934 290.778 275.741 299.273L278.031 299.325ZM292.129 298.154H276.886V300.445H292.129V298.154ZM293.275 299.311C293.355 291.086 294.1 283.394 295.34 276.766L293.088 276.345C291.822 283.118 291.066 290.944 290.984 299.288L293.275 299.311ZM276.886 303.462H292.129V301.172H276.886V303.462ZM282.81 324.598C279.95 318.127 278.218 310.501 278.031 302.291L275.741 302.343C275.934 310.838 277.726 318.763 280.715 325.524L282.81 324.598ZM294.214 323.915H281.762V326.206H294.214V323.915ZM295.34 324.85C294.1 318.222 293.355 310.531 293.275 302.306L290.984 302.328C291.066 310.673 291.822 318.498 293.088 325.271L295.34 324.85ZM283.219 329.224H294.828V326.933H283.219V329.224ZM287.161 332.356C286.109 330.859 285.129 329.252 284.233 327.546L282.205 328.611C283.145 330.401 284.176 332.093 285.287 333.674L287.161 332.356ZM301.911 343.945C296.307 342.182 291.207 338.11 287.161 332.356L285.287 333.674C289.551 339.738 295.033 344.182 301.224 346.13L301.911 343.945ZM302.475 344.338C300.627 341.939 298.953 338.423 297.567 333.988L295.38 334.671C296.81 339.246 298.586 343.042 300.66 345.736L302.475 344.338ZM297.567 333.988C296.975 332.094 296.432 330.035 295.946 327.832L293.709 328.325C294.208 330.585 294.767 332.708 295.38 334.671L297.567 333.988ZM308.247 347.217C310.482 347.217 312.395 345.599 313.96 343.331C315.559 341.014 317.001 337.733 318.238 333.775L316.051 333.092C314.848 336.943 313.49 339.98 312.075 342.03C310.626 344.13 309.31 344.926 308.247 344.926V347.217ZM318.238 333.775C318.767 332.081 319.254 330.262 319.696 328.334L317.462 327.823C317.033 329.7 316.561 331.461 316.051 333.092L318.238 333.775ZM297.915 329.224H318.579V326.933H297.915V329.224ZM296.798 328.334C297.24 330.262 297.727 332.081 298.257 333.775L300.443 333.092C299.933 331.461 299.461 329.7 299.031 327.823L296.798 328.334ZM298.257 333.775C299.493 337.733 300.935 341.014 302.534 343.331C304.099 345.599 306.012 347.217 308.247 347.217V344.926C307.184 344.926 305.868 344.13 304.419 342.03C303.005 339.98 301.646 336.943 300.443 333.092L298.257 333.775ZM290.708 257.828C284.944 260.183 279.761 263.662 275.431 267.992L277.051 269.612C281.169 265.494 286.097 262.186 291.574 259.949L290.708 257.828ZM284.698 267.528C286.826 264.501 289.235 261.892 291.859 259.781L290.423 257.996C287.615 260.255 285.062 263.026 282.824 266.21L284.698 267.528ZM280.874 274.04C282.012 271.704 283.293 269.525 284.698 267.528L282.824 266.21C281.346 268.312 280.003 270.597 278.815 273.036L280.874 274.04ZM272.117 274.684H279.844V272.393H272.117V274.684ZM275.431 267.992C273.913 269.51 272.5 271.132 271.203 272.847L273.031 274.229C274.264 272.598 275.607 271.055 277.051 269.612L275.431 267.992ZM278.488 275.41H270.022V277.701H278.488V275.41ZM275.013 299.324C275.191 291.188 276.824 283.575 279.546 276.994L277.429 276.118C274.594 282.973 272.906 290.867 272.723 299.274L275.013 299.324ZM263.008 300.445H273.868V298.154H263.008V300.445ZM269.056 275.941C264.744 282.723 262.144 290.7 261.863 299.262L264.153 299.337C264.419 291.196 266.891 283.616 270.989 277.17L269.056 275.941ZM273.868 301.172H263.008V303.462H273.868V301.172ZM279.546 324.623C276.824 318.041 275.191 310.428 275.013 302.292L272.723 302.342C272.906 310.75 274.594 318.643 277.429 325.498L279.546 324.623ZM270.022 326.206H278.488V323.915H270.022V326.206ZM261.863 302.354C262.144 310.916 264.744 318.894 269.056 325.675L270.989 324.446C266.891 318.001 264.419 310.42 264.153 302.279L261.863 302.354ZM279.844 326.933H272.117V329.224H279.844V326.933ZM284.698 334.089C283.293 332.092 282.012 329.913 280.874 327.577L278.815 328.58C280.003 331.02 281.346 333.305 282.824 335.406L284.698 334.089ZM291.858 341.835C289.235 339.725 286.826 337.116 284.698 334.089L282.824 335.406C285.062 338.59 287.615 341.362 290.422 343.62L291.858 341.835ZM275.431 333.625C279.761 337.955 284.944 341.434 290.707 343.788L291.574 341.667C286.097 339.43 281.169 336.123 277.051 332.005L275.431 333.625ZM271.203 328.769C272.5 330.485 273.913 332.107 275.431 333.625L277.051 332.005C275.607 330.561 274.264 329.019 273.031 327.388L271.203 328.769ZM325.787 343.788C331.55 341.434 336.733 337.955 341.063 333.625L339.443 332.005C335.325 336.123 330.397 339.43 324.92 341.667L325.787 343.788ZM331.796 334.089C329.668 337.116 327.259 339.725 324.635 341.835L326.071 343.62C328.879 341.362 331.432 338.59 333.67 335.406L331.796 334.089ZM335.62 327.577C334.482 329.913 333.2 332.092 331.796 334.089L333.67 335.406C335.148 333.305 336.49 331.02 337.679 328.58L335.62 327.577ZM344.377 326.933H336.649V329.224H344.377V326.933ZM341.063 333.625C342.581 332.107 343.994 330.485 345.29 328.769L343.463 327.388C342.23 329.019 340.886 330.561 339.443 332.005L341.063 333.625ZM338.006 326.206H346.472V323.915H338.006V326.206ZM341.481 302.292C341.303 310.428 339.67 318.041 336.947 324.623L339.064 325.498C341.899 318.643 343.588 310.75 343.771 302.342L341.481 302.292ZM353.486 301.172H342.626V303.462H353.486V301.172ZM347.438 325.675C351.75 318.894 354.35 310.916 354.631 302.354L352.341 302.279C352.075 310.42 349.603 318 345.505 324.446L347.438 325.675ZM342.626 300.445H353.486V298.154H342.626V300.445ZM336.947 276.994C339.67 283.575 341.303 291.188 341.481 299.324L343.771 299.274C343.588 290.867 341.899 282.973 339.064 276.118L336.947 276.994ZM346.472 275.41H338.006V277.701H346.472V275.41ZM354.631 299.262C354.35 290.7 351.75 282.723 347.438 275.941L345.505 277.17C349.603 283.616 352.075 291.196 352.341 299.337L354.631 299.262ZM336.649 274.684H344.377V272.393H336.649V274.684ZM331.796 267.528C333.2 269.525 334.482 271.704 335.62 274.04L337.679 273.036C336.49 270.597 335.148 268.312 333.67 266.21L331.796 267.528ZM324.635 259.781C327.259 261.892 329.668 264.501 331.796 267.528L333.67 266.21C331.431 263.026 328.878 260.255 326.071 257.996L324.635 259.781ZM341.063 267.992C336.733 263.662 331.55 260.183 325.786 257.828L324.92 259.949C330.397 262.186 335.325 265.494 339.443 269.612L341.063 267.992ZM345.291 272.847C343.994 271.132 342.581 269.51 341.063 267.992L339.443 269.612C340.886 271.055 342.23 272.598 343.463 274.229L345.291 272.847Z" fill="white" mask="url(#path-8-outside-1_124_15089)"/>
</svg>
