<svg width="616" height="617" viewBox="0 0 616 617" fill="none" xmlns="http://www.w3.org/2000/svg">
<rect y="0.321411" width="616" height="616" rx="205.333" fill="#2775CA"/>
<rect x="249.133" y="234.455" width="133.467" height="133.467" rx="20.5333" fill="#2775CA"/>
<path d="M369.6 343.787C369.6 311.121 350 299.921 310.8 295.255C282.8 291.521 277.2 284.055 277.2 270.987C277.2 257.919 286.534 249.521 305.2 249.521C322 249.521 331.334 255.121 336 269.121C336.934 271.921 339.734 273.787 342.534 273.787H357.466C361.2 273.787 364 270.987 364 267.255V266.321C360.266 245.787 343.466 229.921 322 228.055V205.655C322 201.921 319.2 199.121 314.534 198.187H300.534C296.8 198.187 294 200.987 293.066 205.655V227.121C265.066 230.855 247.334 249.521 247.334 272.855C247.334 303.655 266 315.787 305.2 320.455C331.334 325.121 339.734 330.721 339.734 345.655C339.734 360.59 326.666 370.855 308.934 370.855C284.666 370.855 276.266 360.587 273.466 346.587C272.534 342.855 269.734 340.987 266.934 340.987H251.066C247.334 340.987 244.534 343.787 244.534 347.521V348.455C248.266 371.787 263.2 388.587 294 393.255V415.655C294 419.387 296.8 422.187 301.466 423.121H315.466C319.2 423.121 322 420.321 322.934 415.655V393.255C350.934 388.587 369.6 368.987 369.6 343.787V343.787Z" fill="white"/>
<path d="M260.4 441.787C187.6 415.656 150.266 334.456 177.334 262.587C191.334 223.387 222.134 193.521 260.4 179.521C264.134 177.656 266 174.856 266 170.187V157.121C266 153.387 264.134 150.587 260.4 149.656C259.466 149.656 257.6 149.656 256.666 150.587C168 178.587 119.466 272.856 147.466 361.521C164.266 413.787 204.4 453.921 256.666 470.721C260.4 472.587 264.134 470.721 265.066 466.987C266 466.056 266 465.121 266 463.256V450.187C266 447.387 263.2 443.656 260.4 441.787ZM359.334 150.587C355.6 148.721 351.866 150.587 350.934 154.321C350 155.256 350 156.187 350 158.056V171.121C350 174.856 352.8 178.587 355.6 180.456C428.4 206.587 465.734 287.787 438.666 359.656C424.666 398.856 393.866 428.721 355.6 442.721C351.866 444.587 350 447.387 350 452.056V465.121C350 468.856 351.866 471.656 355.6 472.587C356.534 472.587 358.4 472.587 359.334 471.656C448 443.656 496.534 349.387 468.534 260.721C451.734 207.521 410.666 167.387 359.334 150.587V150.587Z" fill="white"/>
</svg>
