<svg width="117" height="25" viewBox="0 0 117 25" fill="none" xmlns="http://www.w3.org/2000/svg">
<g clip-path="url(#clip0_108_16407)">
<path fill-rule="evenodd" clip-rule="evenodd" d="M16.3943 2.84478C16.5197 2.97763 16.7297 2.98009 16.855 2.84601L18.7854 0.7801L20.7158 2.84601C20.8396 2.97856 21.0496 2.97916 21.174 2.84724L21.8312 2.15132L21.6752 4.07393H15.8957L15.7396 2.15132L16.3943 2.84478ZM15.2887 4.41621C15.3022 4.58104 15.439 4.70896 15.6042 4.70896L21.9667 4.70927C22.1362 4.70927 22.276 4.57489 22.283 4.40236L22.535 1.30442C22.549 1.13006 22.4175 0.9769 22.2444 0.963371C22.142 0.955379 22.043 0.9972 21.9771 1.07561L20.9466 2.16701L19.0153 0.0998672C18.8905 -0.0332891 18.6802 -0.0332891 18.5555 0.0998672L16.6239 2.16701L15.58 1.06116C15.3773 0.846514 15.0126 1.00919 15.0365 1.30411L15.2887 4.41621Z" fill="white"/>
<path fill-rule="evenodd" clip-rule="evenodd" d="M22.0475 5.1545H15.524C15.3486 5.1545 15.2067 5.29625 15.2067 5.47145C15.2067 5.64635 15.3486 5.78812 15.524 5.78812H22.0475C22.2226 5.78812 22.3648 5.64635 22.3648 5.47145C22.3648 5.29625 22.2226 5.1545 22.0475 5.1545Z" fill="white"/>
<path fill-rule="evenodd" clip-rule="evenodd" d="M6.90419 6.57586H7.0867C7.25853 6.57586 7.39789 6.43393 7.39789 6.25921C7.39789 6.08418 7.25853 5.94225 7.0867 5.94225H6.90419C6.73235 5.94225 6.59302 6.08418 6.59302 6.25921C6.59302 6.43393 6.73235 6.57586 6.90419 6.57586Z" fill="white"/>
<path fill-rule="evenodd" clip-rule="evenodd" d="M30.4745 6.57586H30.6609C30.8361 6.57586 30.9785 6.43393 30.9785 6.25921C30.9785 6.08418 30.8361 5.94225 30.6609 5.94225H30.4745C30.2989 5.94225 30.1565 6.08418 30.1565 6.25921C30.1565 6.43393 30.2989 6.57586 30.4745 6.57586Z" fill="white"/>
<path fill-rule="evenodd" clip-rule="evenodd" d="M34.1364 16.5196L33.3861 17.5034H32.1994L33.2814 16.5924C33.4902 16.4167 33.3904 16.0789 33.1255 16.039C32.6546 15.9684 32.1549 15.9159 31.695 15.8016C32.2964 15.5351 32.6724 15.3073 33.0902 14.7905L34.1364 16.5196ZM31.1953 19.5056C31.0534 19.6309 31.0513 19.8522 31.1922 19.9791L32.7157 21.3492H28.9V20.0122C28.9 19.8372 28.7579 19.695 28.5829 19.695H26.5836V18.1379H32.7157L31.1953 19.5056ZM28.2658 24.3333H9.30564V20.3297H28.2658V24.3333ZM8.67143 20.0122V21.3492H4.85564L6.37914 19.9791C6.52011 19.8522 6.51802 19.6308 6.37571 19.5049L4.85564 18.1379H10.9878V19.695H8.98857C8.81343 19.695 8.67143 19.8372 8.67143 20.0122ZM3.43511 16.5196L4.48119 14.7905C4.90134 15.3101 5.28125 15.5379 5.8762 15.8016C5.53979 15.8855 5.24217 15.9346 4.8968 15.9773C4.71746 15.9997 4.37599 16 4.25154 16.148C4.13992 16.2807 4.15727 16.4806 4.28988 16.5924L5.37202 17.5034H4.18539L3.43511 16.5196ZM8.56272 17.5034H6.07144C6.09071 17.1226 5.52167 16.8049 5.24635 16.573C5.83414 16.4852 6.30093 16.3968 6.78806 16.0206C7.18379 16.0626 7.51914 16.0455 7.90543 15.9503L8.56272 17.5034ZM3.82794 7.1475C3.90804 8.88028 4.86368 10.3426 6.37224 11.1913C6.73422 11.3949 7.04537 10.8434 6.68164 10.6386C5.44788 9.94457 3.9247 7.71157 4.57319 6.30948C4.79976 5.8194 5.17194 5.6241 5.6448 5.43894C4.95101 6.78483 5.37552 8.01278 6.43968 8.99021C5.98892 9.20057 6.16598 9.64549 6.49521 9.63385C6.68511 9.62735 7.13835 9.77721 7.32514 9.83621L10.8551 11.0958C10.9511 11.1364 11.0604 11.1271 11.1482 11.0703C11.3521 10.9386 11.7699 10.6984 12.0151 10.7424C12.4416 10.8185 12.1437 11.9599 12.0278 12.2295C10.5535 11.7247 9.05772 11.2972 7.56914 10.8385C7.16872 10.7261 6.99757 11.335 7.39836 11.4477L8.13586 11.6553L8.11857 12.446C7.40814 12.0812 6.76032 12.0056 5.97035 12.0348C5.55443 12.0499 5.57822 12.6815 5.99245 12.6661C7.21872 12.621 8.81314 13.1255 9.09079 14.4899L9.445 16.2312C9.47243 16.386 9.611 16.4978 9.76829 16.4914L11.2551 16.4302L11.0444 17.5034H9.24822L8.38114 15.4537C8.32272 15.2796 8.12443 15.1903 7.95557 15.2631C6.77582 15.7709 4.72845 14.9624 4.69349 13.5256L4.65294 11.8586L4.74626 11.8969C5.13034 12.0548 5.37018 11.4698 4.98644 11.3123C3.41534 10.6677 2.97689 8.55785 3.82794 7.1475ZM6.38489 5.50803L7.58914 5.51417C7.70507 5.64805 7.82864 5.85072 8.026 5.85134L9.011 5.87375L9.01672 6.14152C8.31179 6.16271 7.7755 6.38963 7.82757 7.05505C7.87036 7.60228 8.36772 7.77328 8.81379 7.8915L7.90729 8.2155C7.56243 8.33892 7.59293 8.66592 7.53164 8.96657C6.28672 8.29285 5.31001 6.78698 6.38489 5.50803ZM11.9539 9.46278V10.1015C11.5628 10.1239 11.282 10.2554 10.9491 10.4516C10.7743 10.3809 10.5987 10.314 10.4221 10.248C10.9301 9.93878 11.3974 9.67778 11.9539 9.46278ZM11.9539 8.08128V8.79585C11.0982 9.07928 10.418 9.51807 9.65514 9.97835C9.21672 9.82635 8.8245 9.67864 8.40364 9.48585C9.87493 9.38385 10.8813 9.19107 11.9539 8.08128ZM15.9061 19.695H11.622V17.8492L11.863 16.6215C11.9566 16.1449 11.7632 15.7768 11.2395 15.7983L10.0119 15.8486L9.70814 14.3556C9.56557 13.6552 9.28414 13.3119 8.74743 12.8642L8.75686 11.8257L11.9539 12.8829V13.4956C11.9539 16.2675 13.4466 18.5109 15.9061 19.695ZM12.5881 12.5203C12.8704 11.9464 13.0391 10.8913 12.5881 10.3637V6.91841H24.9834V10.3637C24.5321 10.8904 24.7012 11.947 24.9834 12.5203V13.4956C24.9834 16.9093 22.1917 19.6969 18.78 19.695C15.3738 19.6935 12.5881 16.9022 12.5881 13.4956V12.5203ZM25.6176 13.4956V12.8866L26.8234 12.3898L28.8146 11.83L28.8239 12.8642C28.333 13.2732 28.0079 13.6454 27.8769 14.2896L27.5594 15.8486L26.3319 15.7983C25.8081 15.7768 25.6148 16.1449 25.7084 16.6215L25.9494 17.8492V19.695H21.6652C24.1247 18.4793 25.6176 16.2671 25.6176 13.4956ZM31.5001 17.5034H29.0086L29.6659 15.9503L29.7206 15.9635C30.0733 16.0507 30.4239 16.059 30.7833 16.0206C31.2704 16.3968 31.7374 16.4852 32.3249 16.573L31.6084 17.1764C31.4967 17.2704 31.4934 17.3724 31.5001 17.5034ZM25.5564 10.7424C25.8039 10.6981 26.2238 10.9414 26.4231 11.0703C26.5109 11.1271 26.6204 11.1364 26.7162 11.0958L30.2476 9.8365C30.4346 9.77757 30.8874 9.62735 31.0777 9.63385C31.4194 9.64549 31.5286 9.17571 31.2207 9.03164L31.1317 8.99021L31.2041 8.92357C32.2402 7.97257 32.6635 6.59199 31.9265 5.43894C32.4007 5.62441 32.7744 5.82062 33.0012 6.31255C33.648 7.71614 32.1239 9.94428 30.8898 10.6386C30.5261 10.8434 30.8373 11.3949 31.1992 11.1913C32.7074 10.3426 33.6636 8.88028 33.7434 7.1475C34.5959 8.55971 34.1581 10.6668 32.5849 11.3123C32.2012 11.4698 32.4409 12.0548 32.8253 11.8969L32.9186 11.8586L32.8784 13.5017C32.8431 14.9556 30.8155 15.7792 29.6159 15.2631C29.4471 15.1903 29.2487 15.2796 29.1904 15.4537L29.1895 15.4562L28.3232 17.5034H26.5271L26.3162 16.4302L27.8032 16.4914C27.9604 16.4978 28.0991 16.386 28.1267 16.2294L28.4908 14.4401C28.7569 13.132 30.4119 12.6231 31.579 12.6661C31.753 12.6726 31.8994 12.5356 31.9056 12.3616C31.9117 12.1874 31.7751 12.0409 31.6011 12.0348C30.8097 12.0056 30.1629 12.0815 29.4516 12.4466L29.4246 11.6584L30.173 11.4477C30.5739 11.335 30.4024 10.7258 30.0024 10.8385L26.6389 11.7843C26.6216 11.7891 26.6048 11.7956 26.5851 11.8045L25.5451 12.2329C25.4284 11.9617 25.1289 10.8185 25.5564 10.7424ZM25.6176 9.46278C26.1674 9.67528 26.6481 9.94307 27.1494 10.248C26.9725 10.314 26.7972 10.3809 26.6223 10.4516C26.2914 10.2566 26.0083 10.1239 25.6176 10.1015V9.46278ZM25.6176 8.08128C26.5817 9.07892 27.5506 9.37407 28.9099 9.468L29.1677 9.48585L28.9329 9.59357C28.6038 9.74435 28.2578 9.86014 27.9161 9.97835C27.1656 9.52571 26.4574 9.07371 25.6176 8.79585V8.08128ZM28.7576 7.8915C29.2116 7.77114 29.6979 7.59335 29.7368 7.03785C29.7835 6.37397 29.2217 6.14305 28.5546 6.14152L28.5605 5.87375L29.5468 5.85134C29.7429 5.85072 29.8666 5.64744 29.9821 5.51417L31.1866 5.50803C32.2629 6.78882 31.2815 8.29442 30.0398 8.96657C29.983 8.68807 30.0021 8.3365 29.6831 8.22221L28.7576 7.8915ZM36.8442 10.0864C35.9711 9.63014 35.0024 10.1531 34.8087 11.1019L34.405 13.081C34.2941 13.6976 34.2156 14.1804 33.5049 13.7111L33.5525 11.4173C35.317 9.81042 35.2936 7.49664 33.473 5.9456C33.0396 5.07015 32.1684 4.75295 31.2474 4.6986C31.0341 4.53401 30.8094 4.39766 30.5669 4.28036C30.2581 4.13082 29.968 4.51619 30.1909 4.7726L30.2851 4.881L29.8479 4.88314C29.6432 4.87638 29.5191 5.08336 29.4004 5.22062L28.2489 5.22676C28.0734 5.22768 27.9312 5.3634 27.93 5.54027L27.9229 6.4357C27.9143 6.62025 28.0659 6.77378 28.2508 6.76672C28.4463 6.75904 29.1219 6.67705 29.1081 6.96815C29.0956 7.239 28.3892 7.23378 28.2229 7.23314C28.0484 7.23257 27.9073 7.37378 27.906 7.54792L27.9029 7.98207C27.9021 8.143 27.945 8.27471 28.1117 8.33428L29.3411 8.77342C29.5855 8.86092 29.2432 8.85357 29.1741 8.8505C28.0687 8.80107 27.01 8.59657 26.2029 7.777C26.1029 7.41557 25.9494 7.12537 25.6176 6.92854V6.6009C25.6176 6.42587 25.4754 6.284 25.3004 6.284H12.271C12.0959 6.284 11.9539 6.42587 11.9539 6.6009V6.92854C11.6239 7.12445 11.469 7.41342 11.3686 7.77664C10.5614 8.59657 9.50279 8.80107 8.39736 8.8505C8.26264 8.85664 8.00072 8.85542 8.30979 8.74514L9.45964 8.33428C9.59579 8.2855 9.68229 8.15007 9.66886 8.00635L9.66529 7.54792C9.664 7.37378 9.523 7.23257 9.34843 7.23314C9.17929 7.23378 8.46914 7.23592 8.45864 6.95986C8.4475 6.666 9.12479 6.75904 9.32072 6.76672C9.50536 6.77378 9.65722 6.62025 9.64857 6.43355L9.6415 5.54027C9.64014 5.36278 9.4985 5.22768 9.3225 5.22676L8.17114 5.22062C8.05107 5.08182 7.92793 4.87638 7.72086 4.88314L7.28636 4.881L7.3805 4.7726C7.60343 4.51619 7.31322 4.13082 7.00452 4.28036C6.76188 4.39766 6.53748 4.53401 6.32407 4.6986C5.40297 4.75295 4.53184 5.07015 4.09827 5.9456C2.27874 7.49571 2.25547 9.81164 4.01901 11.4173L4.06659 13.7108C3.3557 14.1803 3.27699 13.6976 3.16629 13.0807C3.04731 12.4181 2.89797 11.7615 2.76272 11.1019C2.66728 10.6367 2.3689 10.2308 1.93171 10.0351C1.53776 9.85864 1.10693 9.88778 0.727107 10.0864C0.0515826 10.4393 -0.171771 11.2899 0.135264 11.9661C0.328597 12.3919 0.844493 12.6904 1.31042 12.5891C2.05809 12.426 2.13149 11.3289 1.44377 11.1624C1.08989 11.0768 0.856743 11.5948 1.28421 11.7766C1.29105 11.9801 1.15964 12.0361 0.981165 11.9593C0.875315 11.9135 0.760265 11.8116 0.712467 11.7063C0.543938 11.335 0.638547 10.8449 1.01914 10.6459C1.51815 10.3852 2.03543 10.7 2.14374 11.2281C2.27797 11.8828 2.42698 12.5344 2.54495 13.1921C2.69276 14.0164 2.93711 14.7201 3.90828 14.5138L2.7815 16.3765C2.71114 16.4926 2.72349 16.6412 2.81315 16.7471L3.7695 18.0012C3.78344 18.0214 3.79961 18.0396 3.81779 18.0559L5.69391 19.7435L3.83022 21.4198C3.59965 21.6065 3.73279 21.9836 4.02954 21.9836H8.67143V24.6505C8.67143 24.8259 8.81343 24.9677 8.98857 24.9677H28.5829C28.7579 24.9677 28.9 24.8259 28.9 24.6505V21.9836H33.5418C33.8386 21.9836 33.9719 21.6065 33.7385 21.4176L31.8774 19.7435L33.7536 18.0559C33.7717 18.0396 33.7879 18.0215 33.8036 17.9991L34.7604 16.7446C34.8479 16.6412 34.8602 16.4926 34.7899 16.3765L33.663 14.5138C34.6352 14.7204 34.8786 14.0151 35.0266 13.1906L35.4278 11.2281C35.5361 10.6975 36.0513 10.3843 36.5523 10.6459C36.9329 10.8449 37.0274 11.335 36.8589 11.7063C36.7665 11.9099 36.2735 12.1816 36.2874 11.7766C36.4473 11.7084 36.5532 11.5788 36.509 11.3952C36.4681 11.2263 36.2966 11.1216 36.1277 11.1624C35.7584 11.2518 35.6224 11.6003 35.6599 11.9507C35.6934 12.2624 35.9607 12.5234 36.2609 12.5891C36.7269 12.6904 37.2426 12.3919 37.4361 11.9661C37.7433 11.2899 37.5199 10.4393 36.8442 10.0864Z" fill="white"/>
<path fill-rule="evenodd" clip-rule="evenodd" d="M21.3338 9.89343C20.6806 9.24029 19.7783 8.83629 18.7816 8.83629C17.785 8.83629 16.8827 9.24029 16.2296 9.89343C15.5764 10.5466 15.1725 11.4489 15.1725 12.4455C15.1725 13.4421 15.5764 14.3444 16.2296 14.9976C16.8827 15.6507 17.785 16.0547 18.7816 16.0547C19.7783 16.0547 20.6806 15.6507 21.3338 14.9976C21.9868 14.3444 22.3908 13.4421 22.3908 12.4455C22.3908 11.4489 21.9868 10.5466 21.3338 9.89343ZM19.281 15.7518C19.7218 15.6131 20.1173 15.2948 20.4279 14.8531C20.5088 14.738 20.5839 14.6147 20.6526 14.4841H19.7848C19.748 14.6509 19.7068 14.8072 19.6618 14.9513C19.5566 15.2881 19.4276 15.5614 19.281 15.7518ZM19.5541 14.4841C19.5215 14.6263 19.4856 14.7601 19.4468 14.8844C19.2643 15.4681 19.0283 15.8291 18.7816 15.8291C18.5351 15.8291 18.299 15.4681 18.1166 14.8844C18.0777 14.7601 18.0418 14.6263 18.0093 14.4841H19.5541ZM19.8307 14.2584H20.7615C20.9801 13.7639 21.1118 13.1827 21.126 12.5583H19.9865C19.9804 13.1776 19.9243 13.7576 19.8307 14.2584ZM19.761 12.5583C19.7548 13.1816 19.6972 13.7623 19.6015 14.2584H17.9618C17.8661 13.7623 17.8086 13.1816 17.8024 12.5583H19.761ZM19.9865 12.3327H21.126C21.1118 11.7083 20.9801 11.1271 20.7615 10.6326H19.8307C19.9243 11.1334 19.9804 11.7134 19.9865 12.3327ZM19.6015 10.6326C19.6972 11.1287 19.7548 11.7094 19.761 12.3327H17.8024C17.8086 11.7094 17.8661 11.1287 17.9618 10.6326H19.6015ZM19.7848 10.4069H20.6526C20.5839 10.2763 20.5088 10.153 20.4279 10.0379C20.1173 9.59622 19.7218 9.27793 19.281 9.13922C19.4276 9.32957 19.5566 9.60293 19.6618 9.93972C19.7068 10.0838 19.748 10.2401 19.7848 10.4069ZM18.2823 9.13922C17.8415 9.27793 17.446 9.59622 17.1353 10.0379C17.0545 10.153 16.9794 10.2763 16.9107 10.4069H17.7785C17.8153 10.2401 17.8565 10.0838 17.9016 9.93972C18.0068 9.60293 18.1358 9.32957 18.2823 9.13922ZM18.0093 10.4069C18.0418 10.2648 18.0777 10.1309 18.1166 10.0066C18.299 9.42293 18.5351 9.06186 18.7816 9.06186C19.0283 9.06186 19.2643 9.42293 19.4468 10.0066C19.4856 10.1309 19.5215 10.2648 19.5541 10.4069H18.0093ZM17.7326 10.6326H16.8018C16.5832 11.1271 16.4515 11.7083 16.4373 12.3327H17.5768C17.5829 11.7134 17.639 11.1334 17.7326 10.6326ZM17.5768 12.5583H16.4373C16.4515 13.1827 16.5832 13.7639 16.8018 14.2584H17.7326C17.639 13.7576 17.5829 13.1776 17.5768 12.5583ZM17.7786 14.4841H16.9107C16.9794 14.6147 17.0545 14.738 17.1353 14.8531C17.446 15.2948 17.8415 15.6131 18.2823 15.7518C18.1358 15.5614 18.0068 15.2881 17.9016 14.9513C17.8565 14.8072 17.8153 14.6509 17.7786 14.4841ZM16.3891 10.0529C16.7048 9.73715 17.0828 9.4835 17.5029 9.31186C17.2999 9.47515 17.1144 9.67629 16.9512 9.90843C16.8435 10.0616 16.7454 10.2285 16.6585 10.4069H16.0808C16.1753 10.2819 16.2784 10.1636 16.3891 10.0529ZM15.9242 10.6326H16.5571C16.3493 11.1348 16.2252 11.7144 16.2117 12.3327H15.3999C15.4203 11.7084 15.6099 11.1269 15.9242 10.6326ZM15.3999 12.5583H16.2117C16.2252 13.1766 16.3493 13.7562 16.5571 14.2584H15.9242C15.6099 13.7641 15.4203 13.1826 15.3999 12.5583ZM16.0808 14.4841H16.6585C16.7454 14.6625 16.8435 14.8294 16.9512 14.9826C17.1144 15.2147 17.2999 15.4159 17.5029 15.5791C17.0828 15.4075 16.7048 15.1539 16.3891 14.8381C16.2784 14.7274 16.1753 14.6091 16.0808 14.4841ZM21.1742 14.8381C20.8585 15.1539 20.4806 15.4075 20.0604 15.5791C20.2634 15.4159 20.4489 15.2147 20.6121 14.9826C20.7198 14.8294 20.8178 14.6625 20.9048 14.4841H21.4825C21.3879 14.6091 21.2849 14.7274 21.1742 14.8381ZM21.6391 14.2584H21.0063C21.214 13.7562 21.3381 13.1766 21.3516 12.5583H22.1634C22.143 13.1826 21.9534 13.7641 21.6391 14.2584ZM22.1634 12.3327H21.3516C21.3381 11.7144 21.214 11.1348 21.0063 10.6326H21.6391C21.9534 11.1269 22.143 11.7084 22.1634 12.3327ZM21.4825 10.4069H20.9048C20.8178 10.2285 20.7198 10.0616 20.6121 9.90843C20.4488 9.67629 20.2634 9.47515 20.0604 9.31186C20.4806 9.4835 20.8585 9.73715 21.1742 10.0529C21.2849 10.1636 21.3879 10.2819 21.4825 10.4069Z" fill="white"/>
<mask id="mask0_108_16407" style="mask-type:alpha" maskUnits="userSpaceOnUse" x="15" y="8" width="8" height="9">
<path d="M22.5295 8.69343H15.0295V16.1934H22.5295V8.69343Z" fill="white"/>
<path fill-rule="evenodd" clip-rule="evenodd" d="M21.3336 9.89344C20.6805 9.2403 19.7781 8.8363 18.7815 8.8363C17.7849 8.8363 16.8826 9.2403 16.2294 9.89344C15.5763 10.5466 15.1724 11.4489 15.1724 12.4455C15.1724 13.4422 15.5763 14.3444 16.2294 14.9976C16.8826 15.6507 17.7849 16.0547 18.7815 16.0547C19.7781 16.0547 20.6805 15.6507 21.3336 14.9976C21.9867 14.3444 22.3907 13.4422 22.3907 12.4455C22.3907 11.4489 21.9867 10.5466 21.3336 9.89344ZM19.2809 15.7518C19.7217 15.6131 20.1172 15.2948 20.4278 14.8531C20.5087 14.738 20.5838 14.6147 20.6524 14.4841H19.7847C19.7479 14.6509 19.7067 14.8072 19.6616 14.9513C19.5564 15.2881 19.4274 15.5614 19.2809 15.7518ZM19.5539 14.4841C19.5214 14.6263 19.4855 14.7601 19.4466 14.8844C19.2642 15.4681 19.0281 15.8292 18.7815 15.8292C18.535 15.8292 18.2989 15.4681 18.1164 14.8844C18.0776 14.7601 18.0417 14.6263 18.0092 14.4841H19.5539ZM19.8306 14.2584H20.7614C20.98 13.7639 21.1117 13.1827 21.1259 12.5583H19.9864C19.9803 13.1776 19.9242 13.7576 19.8306 14.2584ZM19.7609 12.5583C19.7547 13.1816 19.6971 13.7623 19.6014 14.2584H17.9617C17.866 13.7623 17.8085 13.1816 17.8023 12.5583H19.7609ZM19.9864 12.3327H21.1259C21.1117 11.7083 20.98 11.1271 20.7614 10.6326H19.8306C19.9242 11.1334 19.9803 11.7134 19.9864 12.3327ZM19.6014 10.6326C19.6971 11.1287 19.7547 11.7094 19.7609 12.3327H17.8023C17.8085 11.7094 17.866 11.1287 17.9617 10.6326H19.6014ZM19.7847 10.4069H20.6524C20.5838 10.2763 20.5087 10.153 20.4278 10.0379C20.1172 9.59623 19.7217 9.27794 19.2809 9.13923C19.4274 9.32958 19.5564 9.60294 19.6616 9.93973C19.7067 10.0838 19.7479 10.2402 19.7847 10.4069ZM18.2822 9.13923C17.8414 9.27794 17.4459 9.59623 17.1352 10.0379C17.0544 10.153 16.9793 10.2763 16.9106 10.4069H17.7784C17.8152 10.2402 17.8564 10.0838 17.9014 9.93973C18.0066 9.60294 18.1356 9.32958 18.2822 9.13923ZM18.0092 10.4069C18.0417 10.2648 18.0776 10.1309 18.1164 10.0067C18.2989 9.42294 18.535 9.06187 18.7815 9.06187C19.0281 9.06187 19.2642 9.42294 19.4466 10.0067C19.4855 10.1309 19.5214 10.2648 19.5539 10.4069H18.0092ZM17.7325 10.6326H16.8017C16.5831 11.1271 16.4514 11.7083 16.4372 12.3327H17.5766C17.5828 11.7134 17.6389 11.1334 17.7325 10.6326ZM17.5766 12.5583H16.4372C16.4514 13.1827 16.5831 13.7639 16.8017 14.2584H17.7325C17.6389 13.7576 17.5828 13.1776 17.5766 12.5583ZM17.7784 14.4841H16.9106C16.9793 14.6147 17.0544 14.738 17.1352 14.8531C17.4459 15.2948 17.8414 15.6131 18.2822 15.7518C18.1356 15.5614 18.0066 15.2881 17.9014 14.9513C17.8564 14.8072 17.8152 14.6509 17.7784 14.4841ZM16.3889 10.0529C16.7047 9.73715 17.0826 9.48351 17.5028 9.31187C17.2998 9.47515 17.1143 9.6763 16.9511 9.90844C16.8434 10.0617 16.7453 10.2285 16.6584 10.4069H16.0807C16.1752 10.2819 16.2783 10.1636 16.3889 10.0529ZM15.9241 10.6326H16.5569C16.3492 11.1348 16.2251 11.7144 16.2116 12.3327H15.3998C15.4202 11.7084 15.6098 11.1269 15.9241 10.6326ZM15.3998 12.5583H16.2116C16.2251 13.1767 16.3492 13.7562 16.5569 14.2584H15.9241C15.6098 13.7641 15.4202 13.1826 15.3998 12.5583ZM16.0807 14.4841H16.6584C16.7453 14.6625 16.8434 14.8294 16.9511 14.9826C17.1143 15.2147 17.2998 15.4159 17.5028 15.5792C17.0826 15.4075 16.7047 15.1539 16.3889 14.8381C16.2783 14.7274 16.1752 14.6092 16.0807 14.4841ZM21.1741 14.8381C20.8584 15.1539 20.4804 15.4075 20.0603 15.5792C20.2633 15.4159 20.4488 15.2147 20.612 14.9826C20.7197 14.8294 20.8177 14.6625 20.9047 14.4841H21.4824C21.3878 14.6092 21.2848 14.7274 21.1741 14.8381ZM21.639 14.2584H21.0061C21.2139 13.7562 21.338 13.1767 21.3515 12.5583H22.1633C22.1429 13.1826 21.9533 13.7641 21.639 14.2584ZM22.1633 12.3327H21.3515C21.338 11.7144 21.2139 11.1348 21.0061 10.6326H21.639C21.9533 11.1269 22.1429 11.7084 22.1633 12.3327ZM21.4824 10.4069H20.9047C20.8177 10.2285 20.7197 10.0617 20.612 9.90844C20.4487 9.6763 20.2633 9.47515 20.0603 9.31187C20.4804 9.48351 20.8584 9.73715 21.1741 10.0529C21.2848 10.1636 21.3878 10.2819 21.4824 10.4069Z" fill="#000237"/>
</mask>
<g mask="url(#mask0_108_16407)">
<path d="M21.3337 9.89344L21.3942 9.83287L21.3337 9.89344ZM16.2295 9.89344L16.169 9.83287L16.2295 9.89344ZM16.2295 14.9976L16.169 15.0582L16.2295 14.9976ZM21.3337 14.9976L21.3942 15.0582L21.3337 14.9976ZM20.4279 14.8531L20.4979 14.9023L20.4279 14.8531ZM19.2809 15.7518L19.2131 15.6995L19.0471 15.9151L19.3066 15.8334L19.2809 15.7518ZM20.6525 14.4841L20.7284 14.5239L20.7942 14.3984H20.6525V14.4841ZM19.7848 14.4841V14.3984H19.7159L19.7012 14.4656L19.7848 14.4841ZM19.6617 14.9513L19.58 14.9258L19.6617 14.9513ZM19.4467 14.8844L19.5284 14.9099L19.4467 14.8844ZM19.554 14.4841L19.6374 14.5032L19.6614 14.3984H19.554V14.4841ZM18.1165 14.8844L18.1982 14.8588L18.1165 14.8844ZM18.0093 14.4841V14.3984H17.9018L17.9258 14.5032L18.0093 14.4841ZM20.7614 14.2584V14.3441H20.8171L20.8397 14.2931L20.7614 14.2584ZM19.8306 14.2584L19.7465 14.2427L19.7275 14.3441H19.8306V14.2584ZM21.1259 12.5583L21.2116 12.5602L21.2136 12.4727H21.1259V12.5583ZM19.9864 12.5583V12.4727H19.9016L19.9009 12.5574L19.9864 12.5583ZM19.6014 14.2584V14.3441H19.6721L19.6855 14.2747L19.6014 14.2584ZM19.7609 12.5583L19.8465 12.5592L19.8474 12.4727H19.7609V12.5583ZM17.9618 14.2584L17.8777 14.2747L17.8911 14.3441H17.9618V14.2584ZM17.8024 12.5583V12.4727H17.7159L17.7167 12.5592L17.8024 12.5583ZM21.1259 12.3327V12.4184H21.2136L21.2116 12.3308L21.1259 12.3327ZM19.9864 12.3327L19.9009 12.3336L19.9016 12.4184H19.9864V12.3327ZM20.7614 10.6326L20.8397 10.5979L20.8171 10.5469H20.7614V10.6326ZM19.8306 10.6326V10.5469H19.7275L19.7465 10.6483L19.8306 10.6326ZM19.7609 12.3327V12.4184H19.8474L19.8465 12.3319L19.7609 12.3327ZM19.6014 10.6326L19.6855 10.6163L19.6721 10.5469H19.6014V10.6326ZM17.8024 12.3327L17.7167 12.3319L17.7159 12.4184H17.8024V12.3327ZM17.9618 10.6326V10.5469H17.8911L17.8777 10.6163L17.9618 10.6326ZM20.6525 10.4069V10.4926H20.7943L20.7284 10.3672L20.6525 10.4069ZM19.7848 10.4069L19.7012 10.4254L19.716 10.4926H19.7848V10.4069ZM20.4279 10.0379L20.4979 9.98873L20.4279 10.0379ZM19.2809 9.13923L19.3066 9.05759L19.0471 8.97594L19.2131 9.19151L19.2809 9.13923ZM19.6617 9.93973L19.58 9.96523L19.6617 9.93973ZM17.1353 10.0379L17.0653 9.98873L17.1353 10.0379ZM18.2823 9.13923L18.3502 9.19151L18.5162 8.97594L18.2566 9.05759L18.2823 9.13923ZM16.9106 10.4069L16.8349 10.3672L16.7689 10.4926H16.9106V10.4069ZM17.7784 10.4069V10.4926H17.8473L17.8621 10.4254L17.7784 10.4069ZM17.9015 9.93973L17.8198 9.91416L17.9015 9.93973ZM18.1165 10.0067L18.1982 10.0322L18.1165 10.0067ZM18.0093 10.4069L17.9258 10.3879L17.9018 10.4926H18.0093V10.4069ZM19.4467 10.0067L19.365 10.0322L19.4467 10.0067ZM19.554 10.4069V10.4926H19.6614L19.6374 10.3879L19.554 10.4069ZM16.8018 10.6326V10.5469H16.746L16.7235 10.5979L16.8018 10.6326ZM17.7326 10.6326L17.8167 10.6483L17.8357 10.5469H17.7326V10.6326ZM16.4373 12.3327L16.3516 12.3308L16.3496 12.4184H16.4373V12.3327ZM17.5767 12.3327V12.4184H17.6615L17.6624 12.3336L17.5767 12.3327ZM16.4373 12.5583V12.4727H16.3496L16.3516 12.5602L16.4373 12.5583ZM17.5767 12.5583L17.6624 12.5574L17.6615 12.4727H17.5767V12.5583ZM16.8018 14.2584L16.7235 14.2931L16.746 14.3441H16.8018V14.2584ZM17.7326 14.2584V14.3441H17.8357L17.8167 14.2427L17.7326 14.2584ZM16.9106 14.4841V14.3984H16.7689L16.8349 14.5239L16.9106 14.4841ZM17.7785 14.4841L17.8621 14.4656L17.8473 14.3984H17.7785V14.4841ZM17.1353 14.8531L17.0653 14.9023L17.1353 14.8531ZM18.2823 15.7518L18.2566 15.8334L18.5162 15.9151L18.3502 15.6995L18.2823 15.7518ZM17.9015 14.9513L17.8198 14.9769L17.9015 14.9513ZM17.5029 9.31187L17.5565 9.37859L17.4705 9.23259L17.5029 9.31187ZM16.389 10.0529L16.4496 10.1135V10.1134L16.389 10.0529ZM16.9511 9.90844L17.0212 9.95766L16.9511 9.90844ZM16.6584 10.4069V10.4926H16.7119L16.7354 10.4445L16.6584 10.4069ZM16.0808 10.4069L16.0124 10.3554L15.9087 10.4926H16.0808V10.4069ZM16.557 10.6326L16.6361 10.6653L16.6851 10.5469H16.557V10.6326ZM15.9241 10.6326V10.5469H15.8771L15.8519 10.5866L15.9241 10.6326ZM16.2116 12.3327V12.4184H16.2954L16.2972 12.3346L16.2116 12.3327ZM15.3999 12.3327L15.3143 12.3299L15.3114 12.4184H15.3999V12.3327ZM16.2116 12.5583L16.2972 12.5564L16.2954 12.4727H16.2116V12.5583ZM15.3999 12.5583V12.4727H15.3114L15.3143 12.5611L15.3999 12.5583ZM16.557 14.2584V14.3441H16.6851L16.6361 14.2257L16.557 14.2584ZM15.9241 14.2584L15.8519 14.3044L15.8771 14.3441H15.9241V14.2584ZM16.6584 14.4841L16.7354 14.4466L16.7119 14.3984H16.6584V14.4841ZM16.0808 14.4841V14.3984H15.9087L16.0125 14.5357L16.0808 14.4841ZM16.9511 14.9826L17.0212 14.9334L16.9511 14.9826ZM17.5029 15.5792L17.4704 15.6584L17.5565 15.5124L17.5029 15.5792ZM16.389 14.8381L16.3285 14.8987L16.389 14.8381ZM20.0604 15.5792L20.0067 15.5124L20.0928 15.6584L20.0604 15.5792ZM21.1741 14.8381L21.1136 14.7776L21.1741 14.8381ZM20.6121 14.9826L20.542 14.9334L20.6121 14.9826ZM20.9048 14.4841V14.3984H20.8513L20.8278 14.4466L20.9048 14.4841ZM21.4824 14.4841L21.5507 14.5357L21.6545 14.3984H21.4824V14.4841ZM21.0062 14.2584L20.9271 14.2257L20.8781 14.3441H21.0062V14.2584ZM21.6391 14.2584V14.3441H21.6861L21.7113 14.3044L21.6391 14.2584ZM21.3516 12.5583V12.4727H21.2678L21.2659 12.5564L21.3516 12.5583ZM22.1634 12.5583L22.249 12.5611L22.2519 12.4727H22.1634V12.5583ZM21.3516 12.3327L21.2659 12.3346L21.2678 12.4184H21.3516V12.3327ZM22.1634 12.3327V12.4184H22.2519L22.249 12.3299L22.1634 12.3327ZM21.0062 10.6326V10.5469H20.8781L20.9271 10.6653L21.0062 10.6326ZM21.6391 10.6326L21.7113 10.5866L21.6861 10.5469H21.6391V10.6326ZM20.9048 10.4069L20.8278 10.4445L20.8513 10.4926H20.9048V10.4069ZM21.4824 10.4069V10.4926H21.6545L21.5507 10.3554L21.4824 10.4069ZM20.6121 9.90844L20.542 9.95766L20.6121 9.90844ZM20.0604 9.31187L20.0927 9.23259L20.0067 9.37859L20.0604 9.31187ZM21.1741 10.0529L21.1136 10.1134V10.1135L21.1741 10.0529ZM18.7816 8.92194C19.7546 8.92194 20.6354 9.31623 21.2731 9.95394L21.3942 9.83287C20.7257 9.16437 19.8019 8.75073 18.7816 8.75073V8.92194ZM16.2901 9.95394C16.9278 9.31623 17.8086 8.92194 18.7816 8.92194V8.75073C17.7614 8.75073 16.8375 9.16437 16.169 9.83287L16.2901 9.95394ZM15.2581 12.4455C15.2581 11.4725 15.6524 10.5917 16.2901 9.95394L16.169 9.83287C15.5004 10.5014 15.0868 11.4252 15.0868 12.4455H15.2581ZM16.2901 14.937C15.6524 14.2993 15.2581 13.4185 15.2581 12.4455H15.0868C15.0868 13.4658 15.5004 14.3896 16.169 15.0582L16.2901 14.937ZM18.7816 15.9691C17.8086 15.9691 16.9278 15.5748 16.2901 14.937L16.169 15.0582C16.8375 15.7267 17.7614 16.1403 18.7816 16.1403V15.9691ZM21.2731 14.937C20.6354 15.5748 19.7546 15.9691 18.7816 15.9691V16.1403C19.8019 16.1403 20.7257 15.7267 21.3942 15.0582L21.2731 14.937ZM22.3052 12.4455C22.3052 13.4185 21.9109 14.2993 21.2731 14.937L21.3942 15.0582C22.0628 14.3896 22.4764 13.4658 22.4764 12.4455H22.3052ZM21.2731 9.95394C21.9109 10.5917 22.3052 11.4725 22.3052 12.4455H22.4764C22.4764 11.4252 22.0628 10.5014 21.3942 9.83287L21.2731 9.95394ZM20.3579 14.8038C20.0554 15.2339 19.6742 15.5383 19.2552 15.6701L19.3066 15.8334C19.7694 15.6879 20.1792 15.3557 20.4979 14.9023L20.3579 14.8038ZM20.5767 14.4442C20.5097 14.5718 20.4365 14.6919 20.3579 14.8038L20.4979 14.9023C20.581 14.7842 20.658 14.6577 20.7284 14.5239L20.5767 14.4442ZM19.7848 14.5697H20.6525V14.3984H19.7848V14.5697ZM19.7012 14.4656C19.6648 14.6303 19.6242 14.7842 19.58 14.9258L19.7434 14.9769C19.7893 14.8302 19.8311 14.6714 19.8684 14.5025L19.7012 14.4656ZM19.58 14.9258C19.4764 15.2574 19.3512 15.5202 19.2131 15.6995L19.3488 15.804C19.5039 15.6027 19.6366 15.3189 19.7434 14.9769L19.58 14.9258ZM19.5284 14.9099C19.568 14.7833 19.6044 14.6473 19.6374 14.5032L19.4705 14.4649C19.4384 14.6052 19.4031 14.7369 19.365 14.8588L19.5284 14.9099ZM18.7816 15.9147C18.9487 15.9147 19.0917 15.7938 19.2087 15.6243C19.3282 15.4511 19.436 15.2057 19.5284 14.9099L19.365 14.8588C19.275 15.1467 19.1735 15.3738 19.0678 15.527C18.9594 15.6839 18.8611 15.7435 18.7816 15.7435V15.9147ZM18.0348 14.9099C18.1272 15.2057 18.235 15.4511 18.3545 15.6243C18.4715 15.7938 18.6145 15.9147 18.7816 15.9147V15.7435C18.7021 15.7435 18.6038 15.6839 18.4955 15.527C18.3897 15.3738 18.2882 15.1467 18.1982 14.8588L18.0348 14.9099ZM17.9258 14.5032C17.9588 14.6473 17.9952 14.7833 18.0348 14.9099L18.1982 14.8588C18.1601 14.7369 18.1249 14.6052 18.0927 14.4649L17.9258 14.5032ZM18.0093 14.5697H19.554V14.3984H18.0093V14.5697ZM20.7614 14.1729H19.8306V14.3441H20.7614V14.1729ZM21.0404 12.5564C21.0264 13.1701 20.8969 13.7402 20.6831 14.2239L20.8397 14.2931C21.0632 13.7877 21.1972 13.1953 21.2116 12.5602L21.0404 12.5564ZM19.9864 12.6439H21.1259V12.4727H19.9864V12.6439ZM19.9009 12.5574C19.8948 13.1723 19.8391 13.7473 19.7465 14.2427L19.9148 14.2742C20.0095 13.7679 20.0659 13.1829 20.0721 12.5592L19.9009 12.5574ZM19.6855 14.2747C19.7823 13.7729 19.8403 13.1869 19.8465 12.5592L19.6753 12.5574C19.6692 13.1762 19.612 13.7517 19.5174 14.2422L19.6855 14.2747ZM19.6014 14.1729H17.9618V14.3441H19.6014V14.1729ZM17.7167 12.5592C17.723 13.1869 17.7809 13.7729 17.8777 14.2747L18.0459 14.2422C17.9512 13.7517 17.8941 13.1762 17.8879 12.5574L17.7167 12.5592ZM17.8024 12.6439H19.7609V12.4727H17.8024V12.6439ZM21.1259 12.2471H19.9864V12.4184H21.1259V12.2471ZM20.6831 10.6672C20.8969 11.1509 21.0264 11.7209 21.0404 12.3347L21.2116 12.3308C21.1972 11.6957 21.0632 11.1034 20.8397 10.5979L20.6831 10.6672ZM19.8306 10.7182H20.7614V10.5469H19.8306V10.7182ZM19.7465 10.6483C19.8391 11.1437 19.8948 11.7187 19.9009 12.3336L20.0721 12.3319C20.0659 11.7082 20.0095 11.1232 19.9148 10.6168L19.7465 10.6483ZM19.8465 12.3319C19.8403 11.7041 19.7823 11.1182 19.6855 10.6163L19.5174 10.6488C19.612 11.1392 19.6692 11.7148 19.6753 12.3336L19.8465 12.3319ZM19.7609 12.2471H17.8024V12.4184H19.7609V12.2471ZM17.8777 10.6163C17.7809 11.1182 17.723 11.7041 17.7167 12.3319L17.8879 12.3336C17.8941 11.7148 17.9512 11.1392 18.0459 10.6488L17.8777 10.6163ZM17.9618 10.7182H19.6014V10.5469H17.9618V10.7182ZM20.6525 10.3214H19.7848V10.4926H20.6525V10.3214ZM20.3579 10.0872C20.4365 10.1991 20.5097 10.3192 20.5767 10.4468L20.7284 10.3672C20.658 10.2334 20.581 10.1069 20.4979 9.98873L20.3579 10.0872ZM19.2552 9.22094C19.6742 9.35273 20.0554 9.65709 20.3579 10.0872L20.4979 9.98873C20.1792 9.53544 19.7694 9.20316 19.3066 9.05759L19.2552 9.22094ZM19.2131 9.19151C19.3512 9.37087 19.4764 9.63366 19.58 9.96523L19.7434 9.91416C19.6366 9.57216 19.5039 9.28837 19.3488 9.08701L19.2131 9.19151ZM19.58 9.96523C19.6242 10.1068 19.6648 10.2607 19.7012 10.4254L19.8684 10.3885C19.8311 10.2196 19.7893 10.0609 19.7434 9.91416L19.58 9.96523ZM17.2054 10.0872C17.5078 9.65709 17.889 9.35273 18.308 9.22094L18.2566 9.05759C17.7938 9.20316 17.384 9.53544 17.0653 9.98873L17.2054 10.0872ZM16.9864 10.4468C17.0535 10.3192 17.1267 10.1991 17.2054 10.0872L17.0653 9.98873C16.9822 10.1069 16.9051 10.2334 16.8349 10.3672L16.9864 10.4468ZM17.7784 10.3214H16.9106V10.4926H17.7784V10.3214ZM17.8621 10.4254C17.8984 10.2607 17.939 10.1068 17.9832 9.96523L17.8198 9.91416C17.7739 10.0609 17.7321 10.2196 17.6949 10.3885L17.8621 10.4254ZM17.9832 9.96523C18.0869 9.63366 18.212 9.37087 18.3502 9.19151L18.2144 9.08701C18.0594 9.28837 17.9266 9.57216 17.8198 9.91416L17.9832 9.96523ZM18.0348 9.98116C17.9952 10.1077 17.9588 10.2437 17.9258 10.3879L18.0927 10.4261C18.1249 10.2858 18.1601 10.1542 18.1982 10.0322L18.0348 9.98116ZM18.7816 8.9763C18.6145 8.9763 18.4715 9.09723 18.3545 9.26673C18.235 9.43994 18.1272 9.6853 18.0348 9.98116L18.1982 10.0322C18.2882 9.74437 18.3897 9.5173 18.4955 9.36401C18.6038 9.20709 18.7021 9.14751 18.7816 9.14751V8.9763ZM19.5284 9.98116C19.436 9.6853 19.3282 9.43994 19.2087 9.26673C19.0917 9.09723 18.9487 8.9763 18.7816 8.9763V9.14751C18.8611 9.14751 18.9594 9.20709 19.0678 9.36401C19.1735 9.5173 19.275 9.74437 19.365 10.0322L19.5284 9.98116ZM19.6374 10.3879C19.6044 10.2437 19.568 10.1077 19.5284 9.98116L19.365 10.0322C19.4031 10.1542 19.4384 10.2858 19.4705 10.4261L19.6374 10.3879ZM19.554 10.3214H18.0093V10.4926H19.554V10.3214ZM16.8018 10.7182H17.7326V10.5469H16.8018V10.7182ZM16.5229 12.3347C16.5368 11.7209 16.6663 11.1509 16.8801 10.6672L16.7235 10.5979C16.5001 11.1034 16.3661 11.6957 16.3516 12.3308L16.5229 12.3347ZM17.5767 12.2471H16.4373V12.4184H17.5767V12.2471ZM17.6624 12.3336C17.6684 11.7187 17.7241 11.1437 17.8167 10.6483L17.6484 10.6168C17.5537 11.1232 17.4973 11.7082 17.4911 12.3319L17.6624 12.3336ZM16.4373 12.6439H17.5767V12.4727H16.4373V12.6439ZM16.8801 14.2239C16.6663 13.7402 16.5368 13.1701 16.5229 12.5564L16.3516 12.5602C16.3661 13.1953 16.5001 13.7877 16.7235 14.2931L16.8801 14.2239ZM17.7326 14.1729H16.8018V14.3441H17.7326V14.1729ZM17.8167 14.2427C17.7241 13.7473 17.6684 13.1723 17.6624 12.5574L17.4911 12.5592C17.4973 13.1829 17.5537 13.7679 17.6484 14.2742L17.8167 14.2427ZM16.9106 14.5697H17.7785V14.3984H16.9106V14.5697ZM17.2054 14.8038C17.1267 14.6919 17.0535 14.5718 16.9865 14.4442L16.8349 14.5239C16.9051 14.6577 16.9822 14.7842 17.0653 14.9023L17.2054 14.8038ZM18.308 15.6701C17.889 15.5383 17.5078 15.2339 17.2054 14.8038L17.0653 14.9023C17.384 15.3557 17.7938 15.6879 18.2566 15.8334L18.308 15.6701ZM18.3502 15.6995C18.212 15.5202 18.0869 15.2574 17.9832 14.9258L17.8198 14.9769C17.9266 15.3189 18.0594 15.6027 18.2144 15.804L18.3502 15.6995ZM17.9832 14.9258C17.939 14.7842 17.8984 14.6303 17.8621 14.4656L17.6949 14.5025C17.7321 14.6714 17.7739 14.8302 17.8198 14.9769L17.9832 14.9258ZM17.4705 9.23259C17.0396 9.40859 16.6522 9.66866 16.3285 9.99237L16.4496 10.1134C16.7574 9.80559 17.1258 9.55837 17.5352 9.39116L17.4705 9.23259ZM17.0212 9.95766C17.1803 9.73144 17.3604 9.53637 17.5565 9.37859L17.4491 9.24516C17.2394 9.41401 17.0485 9.62116 16.8811 9.85916L17.0212 9.95766ZM16.7354 10.4445C16.8204 10.2699 16.9162 10.1069 17.0212 9.95766L16.8811 9.85916C16.7706 10.0163 16.6703 10.1871 16.5814 10.3694L16.7354 10.4445ZM16.0808 10.4926H16.6584V10.3214H16.0808V10.4926ZM16.3285 9.99237C16.215 10.1059 16.1094 10.2271 16.0124 10.3554L16.1491 10.4586C16.2412 10.3367 16.3417 10.2214 16.4496 10.1135L16.3285 9.99237ZM16.557 10.5469H15.9241V10.7182H16.557V10.5469ZM16.2972 12.3346C16.3105 11.7264 16.4326 11.1573 16.6361 10.6653L16.4779 10.5998C16.2659 11.1122 16.1398 11.7024 16.126 12.3309L16.2972 12.3346ZM15.3999 12.4184H16.2116V12.2471H15.3999V12.4184ZM15.8519 10.5866C15.5296 11.0936 15.3352 11.6899 15.3143 12.3299L15.4854 12.3355C15.5054 11.727 15.6901 11.1603 15.9964 10.6785L15.8519 10.5866ZM16.2116 12.4727H15.3999V12.6439H16.2116V12.4727ZM16.6361 14.2257C16.4326 13.7337 16.3105 13.1647 16.2972 12.5564L16.126 12.5602C16.1398 13.1887 16.2659 13.7787 16.4779 14.2912L16.6361 14.2257ZM15.9241 14.3441H16.557V14.1729H15.9241V14.3441ZM15.3143 12.5611C15.3352 13.2012 15.5296 13.7974 15.8519 14.3044L15.9964 14.2125C15.6901 13.7307 15.5054 13.164 15.4854 12.5555L15.3143 12.5611ZM16.6584 14.3984H16.0808V14.5697H16.6584V14.3984ZM17.0212 14.9334C16.9162 14.7841 16.8205 14.6212 16.7354 14.4466L16.5814 14.5216C16.6703 14.7039 16.7706 14.8747 16.8811 15.0319L17.0212 14.9334ZM17.5565 15.5124C17.3604 15.3547 17.1803 15.1596 17.0212 14.9334L16.8811 15.0319C17.0485 15.2699 17.2393 15.477 17.4491 15.6459L17.5565 15.5124ZM16.3285 14.8987C16.6522 15.2224 17.0396 15.4824 17.4704 15.6584L17.5352 15.4999C17.1258 15.3327 16.7574 15.0854 16.4496 14.7776L16.3285 14.8987ZM16.0125 14.5357C16.1094 14.6639 16.215 14.7852 16.3285 14.8987L16.4496 14.7776C16.3417 14.6697 16.2412 14.5544 16.1491 14.4324L16.0125 14.5357ZM20.0928 15.6584C20.5236 15.4824 20.911 15.2224 21.2347 14.8987L21.1136 14.7776C20.8058 15.0854 20.4374 15.3327 20.028 15.4999L20.0928 15.6584ZM20.542 14.9334C20.3829 15.1596 20.2028 15.3547 20.0067 15.5124L20.1141 15.6459C20.3239 15.477 20.5147 15.2699 20.6821 15.0319L20.542 14.9334ZM20.8278 14.4466C20.7427 14.6212 20.647 14.7841 20.542 14.9334L20.6821 15.0319C20.7926 14.8747 20.8929 14.7039 20.9818 14.5216L20.8278 14.4466ZM21.4824 14.3984H20.9048V14.5697H21.4824V14.3984ZM21.2347 14.8987C21.3482 14.7852 21.4538 14.6639 21.5507 14.5357L21.4141 14.4324C21.322 14.5544 21.2215 14.6697 21.1136 14.7776L21.2347 14.8987ZM21.0062 14.3441H21.6391V14.1729H21.0062V14.3441ZM21.2659 12.5564C21.2526 13.1647 21.1306 13.7337 20.9271 14.2257L21.0853 14.2912C21.2972 13.7787 21.4234 13.1887 21.4371 12.5602L21.2659 12.5564ZM22.1634 12.4727H21.3516V12.6439H22.1634V12.4727ZM21.7113 14.3044C22.0337 13.7974 22.228 13.2012 22.249 12.5611L22.0778 12.5555C22.0579 13.164 21.8731 13.7307 21.5668 14.2125L21.7113 14.3044ZM21.3516 12.4184H22.1634V12.2471H21.3516V12.4184ZM20.9271 10.6653C21.1306 11.1573 21.2526 11.7264 21.2659 12.3346L21.4371 12.3309C21.4234 11.7024 21.2972 11.1122 21.0853 10.5998L20.9271 10.6653ZM21.6391 10.5469H21.0062V10.7182H21.6391V10.5469ZM22.249 12.3299C22.228 11.6899 22.0337 11.0936 21.7113 10.5866L21.5668 10.6785C21.8731 11.1603 22.0579 11.727 22.0778 12.3355L22.249 12.3299ZM20.9048 10.4926H21.4824V10.3214H20.9048V10.4926ZM20.542 9.95766C20.647 10.1069 20.7427 10.2699 20.8278 10.4445L20.9818 10.3694C20.8929 10.1871 20.7926 10.0163 20.6821 9.85916L20.542 9.95766ZM20.0067 9.37859C20.2028 9.53637 20.3829 9.73144 20.542 9.95766L20.6821 9.85916C20.5147 9.62116 20.3239 9.41401 20.114 9.24516L20.0067 9.37859ZM21.2347 9.99237C20.911 9.66866 20.5236 9.40859 20.0927 9.23259L20.028 9.39116C20.4374 9.55837 20.8058 9.80559 21.1136 10.1134L21.2347 9.99237ZM21.5507 10.3554C21.4538 10.2271 21.3482 10.1059 21.2347 9.99237L21.1136 10.1135C21.2215 10.2214 21.322 10.3367 21.4141 10.4586L21.5507 10.3554Z" fill="white"/>
</g>
<path d="M45.471 5.68722C45.471 5.89188 45.482 6.09376 45.5041 6.29288C45.529 6.492 45.5663 6.68836 45.6161 6.88195L45.2925 6.94418C45.2455 6.60125 45.1128 6.34681 44.8943 6.18088C44.6786 6.01494 44.373 5.93198 43.9775 5.93198C43.6125 5.93198 43.3152 6.02048 43.0856 6.19747C42.8588 6.37447 42.7455 6.60263 42.7455 6.88195C42.7455 7.34108 43.2322 7.73372 44.2057 8.06008C44.3357 8.10158 44.4352 8.13479 44.5044 8.15965C44.9496 8.3145 45.2773 8.51365 45.4875 8.757C45.6977 8.99765 45.8028 9.29629 45.8028 9.65308C45.8028 10.2034 45.594 10.6501 45.1764 10.993C44.7588 11.3331 44.2057 11.5032 43.517 11.5032C43.2543 11.5032 42.9971 11.4811 42.7455 11.4369C42.4965 11.3954 42.2435 11.329 41.9863 11.2377C41.989 11.2101 41.9905 11.1783 41.9905 11.1424C41.9932 11.1036 41.9946 11.0483 41.9946 10.9764C41.9946 10.7801 41.9835 10.5864 41.9614 10.3956C41.9393 10.2048 41.9061 10.014 41.8618 9.82315L42.2352 9.736C42.2822 10.1896 42.4247 10.5214 42.6625 10.7316C42.9003 10.9419 43.253 11.0469 43.7203 11.0469C44.1296 11.0469 44.4629 10.9446 44.7201 10.7399C44.9772 10.5325 45.1059 10.267 45.1059 9.94343C45.1059 9.48436 44.7049 9.12758 43.9028 8.87315C43.7895 8.83722 43.701 8.80822 43.6373 8.78608C43.0815 8.60629 42.6832 8.38643 42.4426 8.12643C42.202 7.8665 42.0817 7.53465 42.0817 7.13085C42.0817 6.65518 42.2697 6.25831 42.6459 5.94027C43.022 5.62223 43.4935 5.4632 44.0605 5.4632C44.2679 5.4632 44.4781 5.4798 44.691 5.51299C44.904 5.54618 45.164 5.60425 45.471 5.68722ZM46.4832 5.50884C46.6767 5.5199 46.869 5.5282 47.0597 5.53373C47.2506 5.53926 47.4372 5.54203 47.6198 5.54203C47.7747 5.54203 47.9475 5.53926 48.1383 5.53373C48.3292 5.5282 48.531 5.5199 48.744 5.50884V5.79508H48.6735C48.4937 5.79508 48.3582 5.81582 48.267 5.8573C48.1785 5.89879 48.1162 5.96793 48.0802 6.06473C48.0582 6.12833 48.0415 6.23204 48.0305 6.37585C48.0222 6.5169 48.018 6.74782 48.018 7.06863V7.89415V9.96008C48.018 10.2864 48.025 10.5159 48.0388 10.6486C48.0554 10.7814 48.0802 10.8796 48.1135 10.9432C48.1494 11.0124 48.213 11.0621 48.3042 11.0926C48.3983 11.123 48.5297 11.1382 48.6984 11.1382H48.7855V11.4286C48.5477 11.4175 48.3278 11.4092 48.1259 11.4037C47.924 11.3981 47.7553 11.3954 47.6198 11.3954C47.4594 11.3954 47.2782 11.3981 47.0764 11.4037C46.8745 11.4092 46.6629 11.4175 46.4417 11.4286V11.1382H46.5246C46.6961 11.1382 46.8275 11.123 46.9187 11.0926C47.01 11.0621 47.0736 11.0124 47.1095 10.9432C47.1482 10.8686 47.1745 10.7469 47.1884 10.5781C47.205 10.4067 47.2132 10.0984 47.2132 9.65308V8.99765V7.37558C47.2132 6.94141 47.2077 6.63305 47.1967 6.45052C47.1856 6.26523 47.1676 6.13663 47.1427 6.06473C47.1095 5.96793 47.0487 5.89879 46.9602 5.8573C46.8745 5.81582 46.7403 5.79508 46.5578 5.79508H46.4832V5.50884ZM52.9214 9.97665L54.1203 7.25529L54.1701 7.14329C54.5655 6.25002 54.7633 5.72179 54.7633 5.55862C54.7633 5.55309 54.7619 5.54479 54.7592 5.53373C54.7564 5.52267 54.755 5.51437 54.755 5.50884C54.9182 5.51714 55.0647 5.52405 55.1947 5.52958C55.3275 5.53235 55.445 5.53373 55.5473 5.53373C55.6442 5.53373 55.7562 5.53235 55.8834 5.52958C56.0106 5.52405 56.1502 5.51714 56.3023 5.50884V5.79508H56.2526C56.012 5.79508 55.846 5.83656 55.7547 5.91953C55.6662 6.0025 55.622 6.15045 55.622 6.3634C55.622 6.44638 55.6275 6.63167 55.6386 6.91929C55.6497 7.20693 55.6635 7.518 55.6801 7.85265L55.7506 9.01836L55.7547 9.13036C55.8156 10.1647 55.8626 10.7496 55.8958 10.8851C55.9124 10.9654 55.9636 11.0276 56.0493 11.0718C56.135 11.1161 56.247 11.1382 56.3853 11.1382H56.489V11.4286C56.2705 11.4175 56.0672 11.4092 55.8792 11.4037C55.6912 11.3981 55.5349 11.3954 55.4105 11.3954C55.2639 11.3954 55.0993 11.3981 54.9168 11.4037C54.7342 11.4092 54.5393 11.4175 54.3319 11.4286V11.1299C54.3567 11.1299 54.3885 11.1313 54.4273 11.1341C54.466 11.1368 54.4937 11.1382 54.5102 11.1382C54.7205 11.1382 54.8656 11.1009 54.9458 11.0262C55.0288 10.9515 55.0703 10.816 55.0703 10.6196C55.0703 10.5284 55.0689 10.4385 55.0661 10.35C55.0634 10.2615 55.0592 10.1702 55.0537 10.0762L54.8919 6.5086L53.1911 10.4205C53.1883 10.4261 53.1827 10.4385 53.1745 10.4579C53.0417 10.7316 52.9435 11.0234 52.88 11.3331H52.6062C52.5675 11.1617 52.4706 10.8989 52.3157 10.545L52.2992 10.5076L50.6274 6.72017C50.6107 7.01608 50.5872 7.42265 50.5568 7.93979C50.4794 9.223 50.4407 10.0264 50.4407 10.35V10.3915C50.4407 10.7427 50.4794 10.9556 50.5568 11.0304C50.637 11.1022 50.7988 11.1382 51.0422 11.1382H51.1293V11.4286C50.9495 11.4175 50.7767 11.4092 50.6107 11.4037C50.4476 11.3981 50.2886 11.3954 50.1337 11.3954C50.0231 11.3954 49.8848 11.3981 49.7189 11.4037C49.5557 11.4092 49.3801 11.4175 49.192 11.4286V11.1382H49.3082C49.4658 11.1382 49.5834 11.1189 49.6608 11.0801C49.7382 11.0414 49.7991 10.9736 49.8433 10.8769C49.8959 10.7634 49.9498 10.3044 50.0051 9.49958C50.019 9.27836 50.0314 9.10272 50.0425 8.97272L50.1171 7.96886V7.95636C50.1918 6.96354 50.2291 6.39936 50.2291 6.26385C50.2291 6.08961 50.1862 5.96793 50.1005 5.89879C50.0175 5.82965 49.8585 5.79508 49.6235 5.79508H49.5571V5.50884C49.5792 5.50884 49.6152 5.51023 49.665 5.51299C49.9857 5.53235 50.2097 5.54203 50.337 5.54203C50.4337 5.54203 50.6177 5.53373 50.8887 5.51714C50.9745 5.5116 51.0395 5.50884 51.0837 5.50884V5.53373C51.0837 5.77987 51.5525 6.94141 52.49 9.01836L52.9214 9.97665ZM58.5632 8.16379C58.6268 8.16936 58.6946 8.1735 58.7665 8.17622C58.8412 8.17622 58.9518 8.17622 59.0984 8.17622C59.256 8.17622 59.4012 8.1735 59.534 8.16793C59.6695 8.16243 59.7995 8.15272 59.9239 8.13893C60.1257 7.99508 60.2779 7.83329 60.3802 7.65358C60.4825 7.471 60.5337 7.2705 60.5337 7.05204C60.5337 6.7008 60.4217 6.42425 60.1977 6.22236C59.9737 6.0177 59.6667 5.91538 59.2767 5.91538C59.191 5.91538 59.0915 5.92091 58.978 5.93198C58.8675 5.94304 58.7416 5.95963 58.6005 5.98175C58.5922 6.35234 58.584 6.78239 58.5757 7.27193C58.5701 7.76143 58.566 8.05872 58.5632 8.16379ZM58.5715 10.8893C58.7319 10.9363 58.8895 10.9722 59.0445 10.9971C59.1993 11.0193 59.35 11.0304 59.4966 11.0304C59.9502 11.0304 60.3014 10.9197 60.5503 10.6984C60.7992 10.4772 60.9237 10.1689 60.9237 9.77336C60.9237 9.353 60.784 9.04186 60.5047 8.84C60.2253 8.63536 59.7967 8.533 59.2187 8.533C59.1246 8.533 59.0292 8.53436 58.9324 8.53715C58.8384 8.53715 58.7153 8.54129 58.5632 8.54958C58.5632 8.66579 58.5618 8.83722 58.5591 9.064C58.5563 9.288 58.5549 9.45258 58.5549 9.55765C58.5549 9.72915 58.5563 9.91165 58.5591 10.1052C58.5618 10.2961 58.566 10.5574 58.5715 10.8893ZM57.103 11.1589C57.1223 11.1617 57.1403 11.1644 57.1569 11.1672C57.1762 11.1672 57.204 11.1672 57.2399 11.1672C57.6077 11.1672 57.7944 10.6501 57.7999 9.61572C57.8027 9.35579 57.8055 9.1525 57.8082 9.00593L57.8248 7.87343C57.8276 7.63008 57.829 7.39358 57.829 7.16408C57.8317 6.9345 57.8331 6.6856 57.8331 6.41733C57.8331 6.1795 57.7889 6.01494 57.7004 5.92368C57.6119 5.83241 57.4542 5.78678 57.2275 5.78678H57.1942V5.4964C57.3712 5.51023 57.5441 5.5199 57.7128 5.52543C57.8842 5.53096 58.0571 5.53373 58.2313 5.53373C58.425 5.53373 58.6627 5.5282 58.9449 5.51714C59.227 5.50331 59.4109 5.4964 59.4966 5.4964C60.0663 5.4964 60.5157 5.62361 60.8448 5.87805C61.1767 6.12971 61.3426 6.46988 61.3426 6.89855C61.3426 7.2 61.261 7.46136 61.0979 7.68258C60.9375 7.90108 60.6706 8.11265 60.2972 8.31729C60.784 8.41129 61.1477 8.57729 61.3882 8.81508C61.6289 9.05293 61.7492 9.36686 61.7492 9.75679C61.7492 10.2629 61.5487 10.6708 61.1477 10.9806C60.7467 11.2903 60.2115 11.4451 59.5422 11.4451C59.4205 11.4451 59.1924 11.4383 58.8577 11.4244C58.5231 11.4106 58.2465 11.4037 58.0281 11.4037C57.9368 11.4037 57.8096 11.4064 57.6465 11.412C57.486 11.4175 57.3049 11.4258 57.103 11.4369V11.1589ZM64.9683 6.28873L64.0183 8.76943C64.0709 8.76943 64.147 8.77086 64.2465 8.77365C64.559 8.78193 64.772 8.78608 64.8853 8.78608C65.0236 8.78608 65.2739 8.78193 65.6362 8.77365C65.7164 8.77086 65.7772 8.76943 65.8187 8.76943L64.9683 6.28873ZM64.7816 5.50884H65.4952C65.8547 6.60678 66.1948 7.60929 66.5157 8.51643C66.8392 9.4235 67.0937 10.1052 67.279 10.5616C67.3896 10.8243 67.485 10.9861 67.5652 11.0469C67.6454 11.1078 67.7602 11.1382 67.9095 11.1382H67.9925V11.4286C67.7767 11.4175 67.579 11.4092 67.3992 11.4037C67.2222 11.3981 67.073 11.3954 66.9513 11.3954C66.7964 11.3954 66.6263 11.3981 66.441 11.4037C66.2557 11.4092 66.0593 11.4175 65.8519 11.4286V11.1382H65.9307C66.1271 11.1382 66.2612 11.1161 66.3331 11.0718C66.405 11.0248 66.441 10.9404 66.441 10.8188C66.441 10.7745 66.4355 10.7261 66.4244 10.6736C66.4133 10.6183 66.3954 10.5533 66.3705 10.4786L65.964 9.20922C65.8588 9.20922 65.715 9.20779 65.5325 9.20508C65.2006 9.19672 64.9877 9.19258 64.8937 9.19258C64.7056 9.19258 64.5272 9.194 64.3585 9.19672C64.1926 9.19672 64.0197 9.1995 63.84 9.20508C63.6436 9.70008 63.5095 10.061 63.4375 10.2878C63.3657 10.5146 63.3297 10.6764 63.3297 10.7731C63.3297 10.9086 63.3657 11.0041 63.4375 11.0594C63.5095 11.1119 63.6381 11.1382 63.8234 11.1382H63.9354V11.4286C63.7335 11.4175 63.544 11.4092 63.367 11.4037C63.1928 11.3981 63.0365 11.3954 62.8982 11.3954C62.7877 11.3954 62.6494 11.3981 62.4835 11.4037C62.3175 11.4092 62.1377 11.4175 61.9442 11.4286V11.1424C62.1405 11.1368 62.2954 11.0981 62.4087 11.0262C62.5249 10.9515 62.6259 10.8284 62.7116 10.657C62.8665 10.3334 63.1402 9.68629 63.533 8.7155C63.9285 7.74208 64.3447 6.67315 64.7816 5.50884ZM70.8922 5.50884C71.0858 5.5199 71.278 5.5282 71.4686 5.53373C71.6593 5.53926 71.8465 5.54203 72.0286 5.54203C72.1836 5.54203 72.3565 5.53926 72.5472 5.53373C72.7379 5.5282 72.94 5.5199 73.1529 5.50884V5.79508H73.0829C72.9029 5.79508 72.7672 5.81582 72.6758 5.8573C72.5872 5.89879 72.525 5.96793 72.4893 6.06473C72.4672 6.12833 72.4508 6.23204 72.4393 6.37585C72.4315 6.5169 72.4272 6.74782 72.4272 7.06863V7.89415V9.96008C72.4272 10.2864 72.4343 10.5159 72.4479 10.6486C72.4643 10.7814 72.4893 10.8796 72.5222 10.9432C72.5586 11.0124 72.6222 11.0621 72.7136 11.0926C72.8072 11.123 72.9386 11.1382 73.1072 11.1382H73.1943V11.4286C72.9565 11.4175 72.7372 11.4092 72.535 11.4037C72.3329 11.3981 72.1643 11.3954 72.0286 11.3954C71.8686 11.3954 71.6872 11.3981 71.4857 11.4037C71.2835 11.4092 71.072 11.4175 70.8507 11.4286V11.1382H70.9337C71.1052 11.1382 71.2365 11.123 71.3277 11.0926C71.419 11.0621 71.4829 11.0124 71.5186 10.9432C71.5572 10.8686 71.5836 10.7469 71.5972 10.5781C71.6143 10.4067 71.6222 10.0984 71.6222 9.65308V8.99765V7.37558C71.6222 6.94141 71.6165 6.63305 71.6057 6.45052C71.5943 6.26523 71.5765 6.13663 71.5515 6.06473C71.5186 5.96793 71.4579 5.89879 71.3692 5.8573C71.2835 5.81582 71.1494 5.79508 70.9669 5.79508H70.8922V5.50884ZM73.7172 5.50884C73.8472 5.5199 73.9729 5.5282 74.095 5.53373C74.2193 5.53926 74.3407 5.54203 74.46 5.54203C74.5486 5.54203 74.6522 5.53926 74.7708 5.53373C74.89 5.5282 75.0186 5.5199 75.1565 5.50884C75.1929 5.6001 75.2422 5.69413 75.3058 5.79093C75.37 5.88773 75.45 5.9942 75.5465 6.11035L78.9693 10.1591C78.9607 9.73879 78.9522 9.1815 78.9443 8.48736C78.9222 7.02991 78.8972 6.24587 78.8693 6.13525C78.8365 6.00803 78.7772 5.91953 78.6915 5.86975C78.6079 5.81997 78.4715 5.79508 78.2808 5.79508H78.1522V5.50884C78.185 5.50884 78.235 5.51023 78.3015 5.51299C78.6936 5.53235 78.9707 5.54203 79.1307 5.54203C79.2943 5.54203 79.5786 5.53235 79.9858 5.51299C80.0436 5.51023 80.0879 5.50884 80.1179 5.50884L80.1143 5.79508C80.0972 5.79231 80.0793 5.79093 80.06 5.79093C80.0407 5.78816 80.0143 5.78678 79.9815 5.78678C79.6108 5.78678 79.4229 6.30256 79.4172 7.33415C79.4143 7.59408 79.4129 7.79736 79.4129 7.94393L79.3965 9.04743C79.3908 9.21058 79.3865 9.37929 79.3836 9.5535C79.3836 9.725 79.3836 9.96143 79.3836 10.2629C79.3836 10.5975 79.3879 10.8589 79.3965 11.0469C79.4043 11.2322 79.4186 11.3816 79.4379 11.4949H78.9772C78.93 11.3844 78.7629 11.1631 78.4758 10.8312L78.4336 10.7814L74.8743 6.59571V6.69113C74.8915 9.27972 74.9186 10.6486 74.9579 10.798C74.9908 10.9252 75.0486 11.0137 75.1322 11.0635C75.2179 11.1133 75.3529 11.1382 75.5386 11.1382H75.6629V11.4286C75.6215 11.4258 75.5607 11.4231 75.48 11.4203C75.0929 11.4037 74.8293 11.3954 74.6879 11.3954C74.5522 11.3954 74.4015 11.3981 74.2358 11.4037C74.0729 11.4092 73.9 11.4175 73.7172 11.4286V11.1424C73.7336 11.1424 73.7515 11.1437 73.7715 11.1465C73.7936 11.1465 73.8207 11.1465 73.8543 11.1465C74.225 11.1465 74.4129 10.6335 74.4186 9.60743C74.4207 9.3475 74.4222 9.14422 74.4222 8.99765L74.4429 7.89415C74.4457 7.65629 74.4472 7.42536 74.4472 7.20136C74.45 6.9746 74.4515 6.71602 74.4515 6.42563C74.4515 6.18779 74.4058 6.02324 74.3143 5.93198C74.2236 5.84071 74.0615 5.79508 73.8293 5.79508H73.7172V5.50884ZM84.2336 5.68722C84.2336 5.89188 84.2443 6.09376 84.2665 6.29288C84.2915 6.492 84.3286 6.68836 84.3786 6.88195L84.055 6.94418C84.0079 6.60125 83.875 6.34681 83.6565 6.18088C83.4407 6.01494 83.1358 5.93198 82.74 5.93198C82.375 5.93198 82.0779 6.02048 81.8479 6.19747C81.6215 6.37447 81.5079 6.60263 81.5079 6.88195C81.5079 7.34108 81.9943 7.73372 82.9679 8.06008C83.0979 8.10158 83.1979 8.13479 83.2665 8.15965C83.7122 8.3145 84.04 8.51365 84.25 8.757C84.46 8.99765 84.565 9.29629 84.565 9.65308C84.565 10.2034 84.3565 10.6501 83.9386 10.993C83.5215 11.3331 82.9679 11.5032 82.2793 11.5032C82.0165 11.5032 81.7593 11.4811 81.5079 11.4369C81.2593 11.3954 81.0058 11.329 80.7486 11.2377C80.7515 11.2101 80.7529 11.1783 80.7529 11.1424C80.7558 11.1036 80.7572 11.0483 80.7572 10.9764C80.7572 10.7801 80.7458 10.5864 80.7236 10.3956C80.7015 10.2048 80.6686 10.014 80.6243 9.82315L80.9979 9.736C81.0443 10.1896 81.1872 10.5214 81.425 10.7316C81.6629 10.9419 82.015 11.0469 82.4829 11.0469C82.8922 11.0469 83.225 10.9446 83.4822 10.7399C83.74 10.5325 83.8686 10.267 83.8686 9.94343C83.8686 9.48436 83.4672 9.12758 82.665 8.87315C82.5522 8.83722 82.4636 8.80822 82.4 8.78608C81.8436 8.60629 81.4458 8.38643 81.205 8.12643C80.9643 7.8665 80.8443 7.53465 80.8443 7.13085C80.8443 6.65518 81.0322 6.25831 81.4086 5.94027C81.7843 5.62223 82.2558 5.4632 82.8229 5.4632C83.03 5.4632 83.2407 5.4798 83.4536 5.51299C83.6665 5.54618 83.9265 5.60425 84.2336 5.68722ZM86.3158 11.1382H86.4607C86.6572 11.1382 86.7972 11.1146 86.88 11.0676C86.9629 11.0179 87.0208 10.928 87.0543 10.798C87.0793 10.7123 87.0957 10.4011 87.1043 9.86465C87.115 9.32815 87.1207 8.49293 87.1207 7.359V6.03568H86.2829C85.8765 6.03568 85.6008 6.091 85.4572 6.20162C85.3165 6.30948 85.2107 6.53902 85.1422 6.89025L84.8722 6.83218C84.925 6.59157 84.965 6.35511 84.9929 6.1228C85.02 5.89049 85.0343 5.66233 85.0343 5.43832C85.1172 5.49086 85.2843 5.5282 85.5358 5.55033C85.7908 5.57245 86.2343 5.58351 86.8679 5.58351H87.88C88.7207 5.58351 89.2615 5.57383 89.5022 5.55447C89.745 5.53235 89.915 5.49363 90.0122 5.43832C90.0122 5.46598 90.0107 5.51023 90.0079 5.57107C90.005 5.62914 90.0036 5.67339 90.0036 5.70381C90.0036 5.87805 90.0108 6.05781 90.0243 6.2431C90.0415 6.4284 90.0643 6.61923 90.095 6.81558L89.8336 6.86536C89.8008 6.55285 89.715 6.3399 89.5765 6.22651C89.4407 6.11312 89.1536 6.04951 88.7136 6.03568H87.9293C87.9272 6.19332 87.9243 6.41595 87.9215 6.70358C87.9158 7.45858 87.9129 7.96608 87.9129 8.226C87.9129 9.20779 87.9186 9.87293 87.9293 10.2214C87.9436 10.5699 87.9657 10.7869 87.9957 10.8727C88.0322 10.9722 88.0915 11.0414 88.1743 11.0801C88.2572 11.1189 88.3843 11.1382 88.5558 11.1382H88.7015V11.4286C88.4715 11.4175 88.2543 11.4092 88.05 11.4037C87.8479 11.3981 87.6672 11.3954 87.5065 11.3954C87.3657 11.3954 87.1915 11.3981 86.9836 11.4037C86.7793 11.4092 86.5565 11.4175 86.3158 11.4286V11.1382ZM90.605 5.50884C90.7986 5.5199 90.9908 5.5282 91.1822 5.53373C91.3729 5.53926 91.5593 5.54203 91.7422 5.54203C91.8972 5.54203 92.0693 5.53926 92.2608 5.53373C92.4515 5.5282 92.6529 5.5199 92.8665 5.50884V5.79508H92.7958C92.6158 5.79508 92.48 5.81582 92.3893 5.8573C92.3007 5.89879 92.2386 5.96793 92.2022 6.06473C92.18 6.12833 92.1636 6.23204 92.1529 6.37585C92.1443 6.5169 92.14 6.74782 92.14 7.06863V7.89415V9.96008C92.14 10.2864 92.1472 10.5159 92.1608 10.6486C92.1772 10.7814 92.2022 10.8796 92.2358 10.9432C92.2715 11.0124 92.335 11.0621 92.4265 11.0926C92.5207 11.123 92.6522 11.1382 92.8208 11.1382H92.9079V11.4286C92.67 11.4175 92.45 11.4092 92.2479 11.4037C92.0465 11.3981 91.8772 11.3954 91.7422 11.3954C91.5815 11.3954 91.4008 11.3981 91.1986 11.4037C90.9965 11.4092 90.785 11.4175 90.5636 11.4286V11.1382H90.6465C90.8179 11.1382 90.9493 11.123 91.0407 11.0926C91.1322 11.0621 91.1958 11.0124 91.2315 10.9432C91.2708 10.8686 91.2965 10.7469 91.3107 10.5781C91.3272 10.4067 91.3358 10.0984 91.3358 9.65308V8.99765V7.37558C91.3358 6.94141 91.33 6.63305 91.3186 6.45052C91.3079 6.26523 91.29 6.13663 91.265 6.06473C91.2315 5.96793 91.1708 5.89879 91.0822 5.8573C90.9965 5.81582 90.8622 5.79508 90.68 5.79508H90.605V5.50884ZM94.5629 11.1382H94.7079C94.9043 11.1382 95.0443 11.1146 95.1272 11.0676C95.21 11.0179 95.2679 10.928 95.3015 10.798C95.3265 10.7123 95.3429 10.4011 95.3508 9.86465C95.3622 9.32815 95.3679 8.49293 95.3679 7.359V6.03568H94.5293C94.1229 6.03568 93.8479 6.091 93.7043 6.20162C93.5629 6.30948 93.4579 6.53902 93.3886 6.89025L93.1193 6.83218C93.1715 6.59157 93.2122 6.35511 93.2393 6.1228C93.2672 5.89049 93.2808 5.66233 93.2808 5.43832C93.3643 5.49086 93.5315 5.5282 93.7829 5.55033C94.0372 5.57245 94.4815 5.58351 95.1143 5.58351H96.1265C96.9672 5.58351 97.5079 5.57383 97.7486 5.55447C97.9922 5.53235 98.1622 5.49363 98.2593 5.43832C98.2593 5.46598 98.2579 5.51023 98.255 5.57107C98.2522 5.62914 98.2508 5.67339 98.2508 5.70381C98.2508 5.87805 98.2579 6.05781 98.2715 6.2431C98.2879 6.4284 98.3115 6.61923 98.3422 6.81558L98.0808 6.86536C98.0472 6.55285 97.9615 6.3399 97.8236 6.22651C97.6879 6.11312 97.4 6.04951 96.9608 6.03568H96.1765C96.1736 6.19332 96.1708 6.41595 96.1686 6.70358C96.1629 7.45858 96.16 7.96608 96.16 8.226C96.16 9.20779 96.1657 9.87293 96.1765 10.2214C96.1907 10.5699 96.2122 10.7869 96.2429 10.8727C96.2786 10.9722 96.3386 11.0414 96.4215 11.0801C96.5043 11.1189 96.6315 11.1382 96.8029 11.1382H96.9479V11.4286C96.7186 11.4175 96.5015 11.4092 96.2972 11.4037C96.095 11.3981 95.9136 11.3954 95.7536 11.3954C95.6122 11.3954 95.4379 11.3981 95.2308 11.4037C95.0258 11.4092 94.8036 11.4175 94.5629 11.4286V11.1382ZM101.018 5.50884V5.79508C101.001 5.79508 100.978 5.7937 100.947 5.79093C100.916 5.78816 100.894 5.78678 100.881 5.78678C100.662 5.78678 100.514 5.85868 100.437 6.0025C100.359 6.1463 100.321 6.48785 100.321 7.02715V7.68258V8.54129C100.321 8.98936 100.334 9.31979 100.362 9.53279C100.39 9.74572 100.436 9.92136 100.499 10.0596C100.635 10.3583 100.834 10.5864 101.096 10.7441C101.362 10.8989 101.681 10.9764 102.055 10.9764C102.334 10.9764 102.579 10.9363 102.789 10.8561C102.999 10.7759 103.179 10.6529 103.329 10.4869C103.478 10.3209 103.583 10.1177 103.644 9.87708C103.704 9.6365 103.735 9.23543 103.735 8.67408C103.735 7.99922 103.726 7.43229 103.71 6.97322C103.696 6.51136 103.677 6.23204 103.652 6.13525C103.613 6.00803 103.552 5.91953 103.469 5.86975C103.389 5.81997 103.258 5.79508 103.075 5.79508H103.013V5.50884C103.046 5.50884 103.095 5.51023 103.159 5.51299C103.54 5.53235 103.812 5.54203 103.976 5.54203C104.136 5.54203 104.407 5.53235 104.789 5.51299C104.855 5.51023 104.904 5.50884 104.934 5.50884V5.79508H104.884C104.721 5.79508 104.598 5.81582 104.515 5.8573C104.434 5.89879 104.376 5.96793 104.341 6.06473C104.31 6.14493 104.288 6.35649 104.274 6.69943C104.26 7.03959 104.254 7.59129 104.254 8.35465V8.76943C104.254 9.20643 104.237 9.54108 104.204 9.77336C104.171 10.0029 104.116 10.2062 104.042 10.3832C103.887 10.751 103.62 11.04 103.241 11.2502C102.862 11.4604 102.416 11.5655 101.901 11.5655C101.544 11.5655 101.216 11.5129 100.914 11.4079C100.615 11.3027 100.361 11.1506 100.151 10.9515C99.9215 10.7414 99.7579 10.4938 99.6615 10.2089C99.5643 9.92136 99.5158 9.52029 99.5158 9.00593C99.5158 8.80679 99.5186 8.48186 99.5243 8.03108C99.53 7.5775 99.5329 7.2235 99.5329 6.96907V6.84047C99.5329 6.36479 99.4922 6.07163 99.4122 5.96101C99.335 5.85039 99.1815 5.79508 98.9522 5.79508H98.8772V5.50884C99.0736 5.5199 99.26 5.5282 99.4372 5.53373C99.6143 5.53926 99.7758 5.54203 99.9229 5.54203C100.099 5.54203 100.279 5.53926 100.462 5.53373C100.644 5.5282 100.829 5.5199 101.018 5.50884ZM106.61 11.1382H106.755C106.951 11.1382 107.091 11.1146 107.174 11.0676C107.257 11.0179 107.315 10.928 107.348 10.798C107.373 10.7123 107.389 10.4011 107.398 9.86465C107.409 9.32815 107.414 8.49293 107.414 7.359V6.03568H106.576C106.17 6.03568 105.895 6.091 105.751 6.20162C105.61 6.30948 105.505 6.53902 105.436 6.89025L105.166 6.83218C105.219 6.59157 105.259 6.35511 105.286 6.1228C105.314 5.89049 105.328 5.66233 105.328 5.43832C105.411 5.49086 105.578 5.5282 105.83 5.55033C106.084 5.57245 106.528 5.58351 107.161 5.58351H108.174C109.014 5.58351 109.555 5.57383 109.796 5.55447C110.039 5.53235 110.209 5.49363 110.306 5.43832C110.306 5.46598 110.304 5.51023 110.301 5.57107C110.299 5.62914 110.298 5.67339 110.298 5.70381C110.298 5.87805 110.304 6.05781 110.319 6.2431C110.335 6.4284 110.359 6.61923 110.389 6.81558L110.128 6.86536C110.094 6.55285 110.009 6.3399 109.87 6.22651C109.735 6.11312 109.447 6.04951 109.007 6.03568H108.224C108.221 6.19332 108.218 6.41595 108.215 6.70358C108.209 7.45858 108.207 7.96608 108.207 8.226C108.207 9.20779 108.212 9.87293 108.224 10.2214C108.237 10.5699 108.259 10.7869 108.29 10.8727C108.326 10.9722 108.385 11.0414 108.468 11.0801C108.551 11.1189 108.679 11.1382 108.85 11.1382H108.995V11.4286C108.766 11.4175 108.549 11.4092 108.344 11.4037C108.142 11.3981 107.961 11.3954 107.8 11.3954C107.659 11.3954 107.485 11.3981 107.278 11.4037C107.073 11.4092 106.85 11.4175 106.61 11.4286V11.1382ZM110.991 5.50884C111.474 5.52543 111.907 5.53788 112.289 5.54618C112.671 5.55447 112.999 5.55862 113.276 5.55862C113.583 5.55862 113.893 5.55447 114.206 5.54618C114.521 5.53788 114.84 5.52543 115.164 5.50884C115.166 5.71626 115.175 5.92921 115.189 6.14769C115.202 6.3634 115.219 6.5805 115.239 6.79898L114.961 6.82388C114.939 6.492 114.836 6.26799 114.654 6.15184C114.471 6.03292 114.076 5.97346 113.471 5.97346C113.316 5.97346 113.033 5.9776 112.621 5.9859C112.538 5.98867 112.477 5.99005 112.438 5.99005C112.433 6.32192 112.424 6.72846 112.414 7.20965C112.402 7.69086 112.395 8.00343 112.393 8.14722H112.521C112.684 8.14722 112.888 8.15 113.131 8.1555C113.377 8.15829 113.541 8.15965 113.624 8.15965C114.026 8.15965 114.29 8.12229 114.417 8.04765C114.547 7.973 114.617 7.83472 114.629 7.63279L114.89 7.65772C114.871 7.82915 114.855 7.98822 114.844 8.13479C114.836 8.28136 114.832 8.41686 114.832 8.54129C114.832 8.61322 114.839 8.76808 114.853 9.00593C114.858 9.09165 114.862 9.15665 114.865 9.20086L114.595 9.20922V9.176C114.595 8.94093 114.526 8.78193 114.388 8.69893C114.252 8.616 113.933 8.5745 113.429 8.5745H112.691H112.393C112.393 8.71 112.391 8.89808 112.389 9.13865C112.386 9.3765 112.384 9.548 112.384 9.65308C112.384 9.83558 112.386 10.0264 112.389 10.2256C112.391 10.4219 112.396 10.6529 112.405 10.9183C112.544 10.9349 112.699 10.9474 112.874 10.9556C113.051 10.9639 113.244 10.9681 113.454 10.9681C114.149 10.9681 114.605 10.9017 114.824 10.769C115.045 10.6335 115.22 10.3749 115.35 9.99322L115.649 10.0928C115.566 10.3224 115.493 10.5477 115.429 10.769C115.366 10.9902 115.31 11.2101 115.264 11.4286C114.829 11.412 114.425 11.3995 114.052 11.3912C113.679 11.3829 113.341 11.3788 113.04 11.3788C112.628 11.3788 111.964 11.394 111.049 11.4244L110.899 11.4286V11.1589C110.919 11.1617 110.936 11.1644 110.953 11.1672C110.972 11.1672 111 11.1672 111.036 11.1672C111.404 11.1672 111.591 10.6501 111.596 9.61572C111.599 9.35579 111.601 9.1525 111.604 9.00593L111.621 7.87343C111.624 7.63008 111.625 7.39358 111.625 7.16408C111.628 6.9345 111.629 6.6856 111.629 6.41733C111.629 6.1795 111.585 6.01494 111.496 5.92368C111.408 5.83241 111.25 5.78678 111.024 5.78678H110.991V5.50884ZM47.0764 17.2339C47.0764 16.4291 46.869 15.7696 46.4541 15.2551C46.0392 14.738 45.5166 14.4794 44.886 14.4794C44.2803 14.4794 43.7936 14.7006 43.4258 15.1431C43.0607 15.5856 42.8782 16.1775 42.8782 16.9186C42.8782 17.7428 43.0856 18.419 43.5005 18.9472C43.918 19.4754 44.4394 19.7396 45.0644 19.7396C45.6673 19.7396 46.1527 19.5128 46.5205 19.0592C46.891 18.6029 47.0764 17.9945 47.0764 17.2339ZM44.9772 14.0148C45.3977 14.0148 45.7724 14.0756 46.1015 14.1974C46.4334 14.3162 46.7335 14.5016 47.0017 14.7532C47.3225 15.0574 47.5672 15.41 47.736 15.8111C47.9074 16.2121 47.9932 16.6379 47.9932 17.0887C47.9932 17.5479 47.9032 17.982 47.7235 18.3914C47.5437 18.8006 47.288 19.1533 46.956 19.4491C46.6905 19.687 46.3808 19.8737 46.0268 20.0092C45.6756 20.1419 45.323 20.2084 44.969 20.2084C44.5265 20.2084 44.1185 20.1267 43.7452 19.9636C43.3746 19.8004 43.0469 19.5584 42.762 19.2376C42.5021 18.9444 42.303 18.6154 42.1647 18.2503C42.0292 17.8852 41.9614 17.5008 41.9614 17.0971C41.9614 16.6601 42.043 16.248 42.2062 15.8609C42.3721 15.4709 42.6113 15.1294 42.9238 14.8361C43.2059 14.5707 43.524 14.3674 43.878 14.2264C44.232 14.0853 44.5984 14.0148 44.9772 14.0148ZM48.6984 19.8018C48.7205 19.8046 48.7412 19.8073 48.7606 19.8101C48.7827 19.8101 48.8159 19.8101 48.8602 19.8101C49.0814 19.8101 49.2307 19.7381 49.3082 19.5944C49.3884 19.4478 49.4285 19.1229 49.4285 18.6195C49.4285 18.5365 49.4271 18.3886 49.4243 18.1756C49.4216 17.9626 49.4202 17.7871 49.4202 17.6488V16.5204C49.4202 16.3683 49.4216 16.1305 49.4243 15.8069C49.4271 15.4806 49.4285 15.2316 49.4285 15.0602C49.4285 14.8251 49.3829 14.6619 49.2916 14.5707C49.2031 14.4766 49.0468 14.4296 48.8228 14.4296H48.7565V14.1517C49.329 14.1655 49.7922 14.1766 50.1462 14.1849C50.5029 14.1904 50.8044 14.1931 51.0505 14.1931C51.3187 14.1931 51.6077 14.1904 51.9175 14.1849C52.23 14.1766 52.5785 14.1655 52.9629 14.1517C52.9629 14.3425 52.9685 14.5444 52.9795 14.7574C52.9933 14.9676 53.0127 15.2068 53.0376 15.475L52.7513 15.5082C52.732 15.157 52.6338 14.9205 52.4568 14.7989C52.2798 14.6771 51.8843 14.6163 51.2704 14.6163C51.0547 14.6163 50.7186 14.6219 50.2623 14.6329H50.2374C50.2319 15.0422 50.2236 15.4985 50.2125 16.0019C50.2015 16.5024 50.1945 16.7804 50.1918 16.8357H50.3287C50.4835 16.8357 50.6757 16.8371 50.9053 16.8399C51.1349 16.8426 51.2911 16.844 51.3741 16.844C51.7806 16.844 52.0489 16.8066 52.1789 16.732C52.3116 16.6573 52.3835 16.519 52.3946 16.3171L52.656 16.3337C52.6338 16.5411 52.6186 16.7126 52.6103 16.8481C52.602 16.9809 52.5978 17.1039 52.5978 17.2174C52.5978 17.3003 52.5992 17.3985 52.602 17.5119C52.6075 17.6253 52.6145 17.7525 52.6227 17.8935L52.349 17.9143V17.8437C52.349 17.617 52.2812 17.4635 52.1457 17.3833C52.0102 17.3003 51.6962 17.2589 51.204 17.2589H50.4905H50.1918V18.8726C50.1918 19.2708 50.236 19.5224 50.3245 19.6276C50.413 19.7299 50.5928 19.7811 50.8638 19.7811H51.0256V20.0714C50.8155 20.0604 50.608 20.0521 50.4034 20.0466C50.2015 20.041 50.0037 20.0382 49.8102 20.0382C49.7133 20.0382 49.5654 20.041 49.3662 20.0466C49.1699 20.0521 48.9472 20.0604 48.6984 20.0714V19.8018ZM57.103 19.7811H57.2482C57.4445 19.7811 57.5842 19.7575 57.6672 19.7105C57.7501 19.6607 57.8082 19.5709 57.8414 19.4409C57.8663 19.3551 57.8829 19.044 57.8912 18.5075C57.9022 17.971 57.9077 17.1358 57.9077 16.0019V14.6786H57.0698C56.6632 14.6786 56.3881 14.7339 56.2442 14.8445C56.1032 14.9524 55.9981 15.1819 55.929 15.5331L55.6594 15.475C55.7119 15.2344 55.752 14.9979 55.7797 14.7656C55.8073 14.5334 55.8212 14.3052 55.8212 14.0811C55.9041 14.1337 56.0715 14.1711 56.3231 14.1931C56.5775 14.2153 57.0214 14.2264 57.6547 14.2264H58.667C59.5077 14.2264 60.0483 14.2167 60.289 14.1974C60.5323 14.1752 60.7024 14.1365 60.7992 14.0811C60.7992 14.1089 60.7978 14.1531 60.795 14.2139C60.7922 14.272 60.7909 14.3162 60.7909 14.3466C60.7909 14.5209 60.7978 14.7006 60.8117 14.8859C60.8282 15.0712 60.8517 15.2621 60.8822 15.4584L60.6208 15.5082C60.5876 15.1957 60.5019 14.9828 60.3636 14.8694C60.2281 14.756 59.9405 14.6924 59.5007 14.6786H58.7167C58.714 14.8361 58.7112 15.0588 58.7084 15.3464C58.7029 16.1014 58.7001 16.6089 58.7001 16.8689C58.7001 17.8506 58.7057 18.5158 58.7167 18.8643C58.7305 19.2127 58.7527 19.4298 58.7831 19.5156C58.819 19.6151 58.8785 19.6842 58.9615 19.723C59.0445 19.7617 59.1717 19.7811 59.3431 19.7811H59.4883V20.0714C59.2587 20.0604 59.0417 20.0521 58.837 20.0466C58.6351 20.041 58.454 20.0382 58.2936 20.0382C58.1525 20.0382 57.9783 20.041 57.7709 20.0466C57.5662 20.0521 57.3436 20.0604 57.103 20.0714V19.7811ZM61.4837 14.1517C61.9677 14.1683 62.4005 14.1807 62.7821 14.189C63.1637 14.1974 63.4929 14.2015 63.7695 14.2015C64.0764 14.2015 64.3862 14.1974 64.6987 14.189C65.014 14.1807 65.3334 14.1683 65.657 14.1517C65.6597 14.3591 65.668 14.5721 65.6818 14.7906C65.6957 15.0063 65.7122 15.2234 65.7316 15.4419L65.4537 15.4667C65.4315 15.1349 65.3292 14.9109 65.1467 14.7947C64.9642 14.6758 64.5701 14.6163 63.9644 14.6163C63.8095 14.6163 63.526 14.6204 63.114 14.6288C63.031 14.6315 62.9702 14.6329 62.9315 14.6329C62.926 14.9648 62.9176 15.3713 62.9066 15.8525C62.8955 16.3337 62.8886 16.6463 62.8858 16.7901H63.0145C63.1776 16.7901 63.3809 16.7929 63.6242 16.7984C63.8704 16.8011 64.035 16.8025 64.1179 16.8025C64.5189 16.8025 64.783 16.7651 64.9102 16.6905C65.0402 16.6159 65.1107 16.4776 65.1218 16.2756L65.3832 16.3006C65.3638 16.472 65.3486 16.6311 65.3375 16.7776C65.3292 16.9242 65.3251 17.0597 65.3251 17.1841C65.3251 17.2561 65.332 17.4109 65.3458 17.6488C65.3513 17.7345 65.3555 17.7995 65.3582 17.8437L65.0886 17.8521V17.8189C65.0886 17.5838 65.0195 17.4248 64.8812 17.3418C64.7457 17.2589 64.4262 17.2174 63.9229 17.2174H63.1845H62.8858C62.8858 17.3529 62.8845 17.5409 62.8817 17.7815C62.8789 18.0194 62.8775 18.1909 62.8775 18.2959C62.8775 18.4784 62.8789 18.6693 62.8817 18.8684C62.8845 19.0648 62.89 19.2957 62.8982 19.5611C63.0365 19.5778 63.1928 19.5902 63.367 19.5985C63.544 19.6068 63.7376 19.6109 63.9478 19.6109C64.642 19.6109 65.0983 19.5446 65.3167 19.4119C65.538 19.2764 65.7137 19.0177 65.8436 18.6361L66.1423 18.7356C66.0593 18.9652 65.986 19.1906 65.9225 19.4119C65.8588 19.6331 65.8035 19.8529 65.7565 20.0714C65.3223 20.0549 64.9185 20.0424 64.5452 20.0341C64.1718 20.0258 63.8345 20.0216 63.533 20.0216C63.1209 20.0216 62.4572 20.0369 61.5417 20.0673L61.3924 20.0714V19.8018C61.4117 19.8046 61.4297 19.8073 61.4463 19.8101C61.4657 19.8101 61.4934 19.8101 61.5293 19.8101C61.8971 19.8101 62.0838 19.2929 62.0893 18.2586C62.0921 17.9986 62.0949 17.7954 62.0976 17.6488L62.1142 16.5163C62.117 16.2729 62.1184 16.0364 62.1184 15.8069C62.1212 15.5774 62.1225 15.3284 62.1225 15.0602C62.1225 14.8224 62.0782 14.6578 61.9897 14.5665C61.9012 14.4753 61.7437 14.4296 61.5169 14.4296H61.4837V14.1517ZM71.9086 14.3384V14.4794C71.9086 14.673 71.9157 14.8749 71.9293 15.0851C71.9429 15.2925 71.9636 15.511 71.9915 15.7405L71.6886 15.7903C71.6336 15.3921 71.445 15.0823 71.1245 14.8611C70.8037 14.6371 70.3848 14.5251 69.8675 14.5251C69.1789 14.5251 68.6465 14.7366 68.2704 15.1597C67.8971 15.5801 67.7104 16.1775 67.7104 16.9519C67.7104 17.7788 67.9248 18.448 68.3534 18.9596C68.7848 19.4685 69.3435 19.723 70.0293 19.723C70.4607 19.723 70.8341 19.6234 71.1494 19.4243C71.4672 19.2251 71.715 18.9334 71.8922 18.549L72.17 18.6859C72.0815 18.8656 72.0015 19.0496 71.9293 19.2376C71.8572 19.4229 71.7936 19.6096 71.7386 19.7976C71.44 19.9331 71.1356 20.0355 70.8258 20.1046C70.5161 20.1738 70.205 20.2084 69.8925 20.2084C68.9742 20.2084 68.2303 19.9249 67.6606 19.3579C67.0937 18.7882 66.8102 18.0401 66.8102 17.1136C66.8102 16.201 67.1102 15.4584 67.7104 14.8859C68.3105 14.3107 69.0862 14.0231 70.0376 14.0231C70.3197 14.0231 70.617 14.0494 70.9295 14.1019C71.2448 14.1544 71.5715 14.2333 71.9086 14.3384ZM72.7922 14.1517C72.9886 14.1628 73.1765 14.1711 73.3565 14.1766C73.5357 14.1821 73.6993 14.1849 73.8457 14.1849C74.0143 14.1849 74.1872 14.1821 74.3643 14.1766C74.5415 14.1711 74.7229 14.1628 74.9079 14.1517V14.4379H74.7957C74.5693 14.4379 74.4157 14.4988 74.335 14.6204C74.2579 14.7394 74.2193 15.0588 74.2193 15.5787V15.782V16.8025C74.3993 16.8081 74.5886 16.8122 74.7872 16.8149C74.9893 16.8177 75.27 16.8191 75.6293 16.8191C75.9972 16.8191 76.3172 16.8177 76.5879 16.8149C76.8615 16.8122 77.1393 16.8081 77.4215 16.8025V15.6451C77.4215 15.0948 77.3815 14.756 77.3015 14.6288C77.2243 14.5016 77.0722 14.4379 76.845 14.4379H76.7329V14.1517C76.9186 14.1628 77.0993 14.1711 77.2765 14.1766C77.4565 14.1821 77.6322 14.1849 77.8036 14.1849C77.95 14.1849 78.1115 14.1821 78.2886 14.1766C78.4658 14.1711 78.6522 14.1628 78.8486 14.1517V14.4379C78.835 14.4379 78.8157 14.4366 78.7907 14.4338C78.7657 14.431 78.7479 14.4296 78.7365 14.4296C78.5236 14.4296 78.3786 14.4974 78.3015 14.6329C78.2236 14.7656 78.185 15.0519 78.185 15.4916C78.185 15.5746 78.1865 15.7322 78.1893 15.9645C78.1922 16.1969 78.1936 16.3876 78.1936 16.537V17.6405C78.1936 17.7898 78.1922 17.982 78.1893 18.2171C78.1865 18.4494 78.185 18.6084 78.185 18.6941C78.185 19.1477 78.2236 19.4436 78.3015 19.5819C78.3786 19.7202 78.5236 19.7894 78.7365 19.7894C78.7758 19.7894 78.8043 19.7894 78.8236 19.7894C78.8458 19.7866 78.865 19.7852 78.8822 19.7852V20.0714C78.6636 20.0604 78.46 20.0521 78.2722 20.0466C78.0872 20.041 77.9308 20.0382 77.8036 20.0382C77.6543 20.0382 77.485 20.041 77.2972 20.0466C77.1122 20.0521 76.9129 20.0604 76.7 20.0714V19.7811C76.7165 19.7811 76.7415 19.7824 76.7743 19.7852C76.8079 19.7879 76.8315 19.7894 76.845 19.7894C77.0722 19.7894 77.2243 19.7271 77.3015 19.6026C77.3815 19.4782 77.4215 19.1781 77.4215 18.7024V18.2005V17.292H77.3679C76.6572 17.2809 76.1372 17.2754 75.8079 17.2754C75.5593 17.2754 75.3215 17.2782 75.0943 17.2837C75.0643 17.2837 75.0472 17.2837 75.045 17.2837C74.9258 17.2837 74.7972 17.2851 74.6586 17.2879C74.5207 17.2879 74.3743 17.2892 74.2193 17.292V18.2794V18.6112C74.2193 19.1422 74.2593 19.4713 74.3393 19.5985C74.42 19.7257 74.5743 19.7894 74.8043 19.7894C74.8179 19.7894 74.8415 19.7879 74.8743 19.7852C74.9079 19.7824 74.9329 19.7811 74.9493 19.7811V20.0714C74.7365 20.0604 74.5357 20.0521 74.3479 20.0466C74.1622 20.041 73.995 20.0382 73.8457 20.0382C73.7186 20.0382 73.5622 20.041 73.3772 20.0466C73.1915 20.0521 72.9886 20.0604 72.7672 20.0714V19.7852C72.7836 19.7852 72.8022 19.7866 72.8215 19.7894C72.8436 19.7894 72.8722 19.7894 72.9086 19.7894C73.1243 19.7894 73.2707 19.7202 73.3479 19.5819C73.4257 19.4436 73.4643 19.1477 73.4643 18.6941C73.4643 18.6084 73.4629 18.4494 73.46 18.2171C73.4572 17.982 73.4557 17.7898 73.4557 17.6405V16.537C73.4557 16.3987 73.4572 16.2231 73.46 16.0101C73.4629 15.7944 73.4643 15.6479 73.4643 15.5704C73.4643 15.092 73.4243 14.7822 73.3436 14.6412C73.2665 14.5001 73.1186 14.4296 72.9 14.4296C72.8915 14.4296 72.875 14.431 72.85 14.4338C72.825 14.4366 72.8058 14.4379 72.7922 14.4379V14.1517ZM79.4672 14.1517C79.5972 14.1628 79.7229 14.1711 79.8443 14.1766C79.9686 14.1821 80.0908 14.1849 80.2093 14.1849C80.2979 14.1849 80.4015 14.1821 80.5208 14.1766C80.6393 14.1711 80.7679 14.1628 80.9065 14.1517C80.9422 14.2429 80.9922 14.337 81.0558 14.4338C81.1193 14.5306 81.1993 14.6371 81.2965 14.7532L84.7186 18.802C84.7108 18.3816 84.7022 17.8244 84.6936 17.1302C84.6715 15.6728 84.6472 14.8887 84.6193 14.7781C84.5858 14.6509 84.5265 14.5624 84.4408 14.5126C84.3579 14.4628 84.2208 14.4379 84.03 14.4379H83.9015V14.1517C83.935 14.1517 83.9843 14.1531 84.0507 14.1559C84.4436 14.1752 84.72 14.1849 84.8807 14.1849C85.0436 14.1849 85.3286 14.1752 85.735 14.1559C85.7929 14.1531 85.8372 14.1517 85.8679 14.1517L85.8636 14.4379C85.8472 14.4351 85.8293 14.4338 85.81 14.4338C85.7907 14.431 85.7643 14.4296 85.7308 14.4296C85.36 14.4296 85.1722 14.9454 85.1665 15.977C85.1643 16.2369 85.1629 16.4402 85.1629 16.5868L85.1458 17.6903C85.1408 17.8534 85.1365 18.0221 85.1336 18.1964C85.1336 18.3679 85.1336 18.6043 85.1336 18.9057C85.1336 19.2404 85.1379 19.5017 85.1458 19.6898C85.1543 19.8751 85.1679 20.0244 85.1872 20.1378H84.7272C84.68 20.0272 84.5129 19.8059 84.225 19.4741L84.1836 19.4243L80.6243 15.2386V15.334C80.6407 17.9226 80.6686 19.2915 80.7072 19.4409C80.7408 19.5681 80.7986 19.6566 80.8815 19.7064C80.9672 19.7561 81.1029 19.7811 81.2879 19.7811H81.4122V20.0714C81.3708 20.0686 81.31 20.0659 81.23 20.0631C80.8429 20.0466 80.5786 20.0382 80.4379 20.0382C80.3022 20.0382 80.1515 20.041 79.9858 20.0466C79.8222 20.0521 79.6493 20.0604 79.4672 20.0714V19.7852C79.4836 19.7852 79.5015 19.7866 79.5208 19.7894C79.5429 19.7894 79.5707 19.7894 79.6036 19.7894C79.9743 19.7894 80.1622 19.2764 80.1679 18.2503C80.1707 17.9904 80.1722 17.7871 80.1722 17.6405L80.1929 16.537C80.1957 16.2991 80.1972 16.0682 80.1972 15.8442C80.2 15.6174 80.2015 15.3589 80.2015 15.0685C80.2015 14.8306 80.1558 14.6661 80.0643 14.5749C79.9729 14.4836 79.8115 14.4379 79.5786 14.4379H79.4672V14.1517ZM91.5886 17.2339C91.5886 16.4291 91.3808 15.7696 90.9665 15.2551C90.5515 14.738 90.0286 14.4794 89.3979 14.4794C88.7922 14.4794 88.3058 14.7006 87.9379 15.1431C87.5729 15.5856 87.39 16.1775 87.39 16.9186C87.39 17.7428 87.5979 18.419 88.0129 18.9472C88.43 19.4754 88.9515 19.7396 89.5765 19.7396C90.1793 19.7396 90.665 19.5128 91.0329 19.0592C91.4029 18.6029 91.5886 17.9945 91.5886 17.2339ZM89.4893 14.0148C89.91 14.0148 90.2843 14.0756 90.6136 14.1974C90.9457 14.3162 91.2457 14.5016 91.5136 14.7532C91.8343 15.0574 92.0793 15.41 92.2479 15.8111C92.4193 16.2121 92.505 16.6379 92.505 17.0887C92.505 17.5479 92.415 17.982 92.2358 18.3914C92.0558 18.8006 91.8 19.1533 91.4679 19.4491C91.2029 19.687 90.8929 19.8737 90.5386 20.0092C90.1879 20.1419 89.835 20.2084 89.4808 20.2084C89.0386 20.2084 88.6308 20.1267 88.2572 19.9636C87.8865 19.8004 87.5593 19.5584 87.2743 19.2376C87.0143 18.9444 86.815 18.6154 86.6765 18.2503C86.5415 17.8852 86.4736 17.5008 86.4736 17.0971C86.4736 16.6601 86.555 16.248 86.7186 15.8609C86.8843 15.4709 87.1236 15.1294 87.4357 14.8361C87.7179 14.5707 88.0357 14.3674 88.39 14.2264C88.7443 14.0853 89.1108 14.0148 89.4893 14.0148ZM93.3015 14.1392C93.5979 14.1559 93.8215 14.1683 93.9736 14.1766C94.1286 14.1821 94.2529 14.1849 94.3472 14.1849C94.5272 14.1849 94.7022 14.1821 94.8743 14.1766C95.0479 14.1683 95.2208 14.1572 95.3922 14.1434V14.4296H95.2636C95.0457 14.4296 94.8972 14.5057 94.82 14.6578C94.7429 14.8071 94.7036 15.1529 94.7036 15.6949V16.5204L94.7165 19.5611C94.8715 19.5695 95.0179 19.5764 95.1558 19.5819C95.2972 19.5847 95.43 19.5861 95.5543 19.5861C96.2958 19.5861 96.7729 19.5183 96.9858 19.3828C97.2015 19.2445 97.3729 18.979 97.5 18.5863L97.7986 18.6776C97.7129 18.9154 97.6365 19.1491 97.5708 19.3786C97.5043 19.6082 97.4458 19.8391 97.3965 20.0714C96.9372 20.0576 96.5143 20.0479 96.1265 20.0424C95.7422 20.0341 95.3815 20.0299 95.0443 20.0299C94.8065 20.0299 94.5408 20.0341 94.2479 20.0424C93.9543 20.0479 93.6086 20.0576 93.2108 20.0714V19.8018C93.23 19.8046 93.2479 19.8073 93.2643 19.8101C93.2836 19.8101 93.3115 19.8101 93.3472 19.8101C93.7208 19.8073 93.9086 19.2749 93.9115 18.2129C93.9115 17.9724 93.9129 17.7843 93.9157 17.6488L93.9243 16.5204C93.9243 16.3987 93.925 16.2425 93.9279 16.0516C93.9308 15.8609 93.9322 15.7281 93.9322 15.6534C93.9322 15.1446 93.8908 14.8141 93.8079 14.6619C93.7279 14.5071 93.57 14.4296 93.335 14.4296H93.3015V14.1392ZM103.262 17.2339C103.262 16.4291 103.054 15.7696 102.64 15.2551C102.225 14.738 101.702 14.4794 101.071 14.4794C100.466 14.4794 99.9793 14.7006 99.6115 15.1431C99.2465 15.5856 99.0636 16.1775 99.0636 16.9186C99.0636 17.7428 99.2715 18.419 99.6858 18.9472C100.104 19.4754 100.625 19.7396 101.25 19.7396C101.853 19.7396 102.339 19.5128 102.706 19.0592C103.076 18.6029 103.262 17.9945 103.262 17.2339ZM101.163 14.0148C101.584 14.0148 101.958 14.0756 102.287 14.1974C102.619 14.3162 102.919 14.5016 103.187 14.7532C103.508 15.0574 103.753 15.41 103.921 15.8111C104.093 16.2121 104.179 16.6379 104.179 17.0887C104.179 17.5479 104.089 17.982 103.909 18.3914C103.729 18.8006 103.474 19.1533 103.141 19.4491C102.876 19.687 102.566 19.8737 102.212 20.0092C101.861 20.1419 101.509 20.2084 101.154 20.2084C100.712 20.2084 100.304 20.1267 99.9308 19.9636C99.56 19.8004 99.2329 19.5584 98.9479 19.2376C98.6879 18.9444 98.4886 18.6154 98.35 18.2503C98.215 17.8852 98.1472 17.5008 98.1472 17.0971C98.1472 16.6601 98.2286 16.248 98.3915 15.8609C98.5579 15.4709 98.7972 15.1294 99.1093 14.8361C99.3915 14.5707 99.7093 14.3674 100.064 14.2264C100.418 14.0853 100.784 14.0148 101.163 14.0148ZM110.082 14.3466C110.087 14.5513 110.101 14.7601 110.124 14.9731C110.146 15.1833 110.177 15.399 110.219 15.6202L109.904 15.6866C109.826 15.2939 109.641 15.0035 109.348 14.8154C109.054 14.6274 108.64 14.5334 108.103 14.5334C107.379 14.5334 106.816 14.7463 106.415 15.1722C106.016 15.5981 105.817 16.201 105.817 16.9809C105.817 17.8189 106.046 18.4881 106.502 18.9887C106.958 19.4893 107.562 19.7396 108.315 19.7396C108.472 19.7396 108.631 19.7244 108.791 19.6939C108.952 19.6607 109.122 19.6109 109.302 19.5446C109.31 19.3316 109.316 19.1505 109.319 19.0011C109.324 18.8518 109.327 18.7301 109.327 18.6361C109.327 18.1631 109.274 17.8797 109.169 17.7856C109.064 17.6889 108.834 17.6405 108.476 17.6405H108.419V17.3626C108.654 17.3736 108.871 17.3819 109.07 17.3874C109.271 17.3929 109.441 17.3957 109.58 17.3957C109.782 17.3957 109.97 17.3929 110.144 17.3874C110.321 17.3819 110.49 17.3736 110.65 17.3626V17.6405C110.418 17.6405 110.266 17.6861 110.194 17.7774C110.125 17.8659 110.09 18.1438 110.09 18.6112V19.0426C110.09 19.2556 110.093 19.4215 110.099 19.5404C110.104 19.6566 110.112 19.7686 110.124 19.8764C110.032 19.8958 109.895 19.9262 109.713 19.9677C108.996 20.1281 108.454 20.2084 108.086 20.2084C107.127 20.2084 106.358 19.929 105.78 19.3704C105.205 18.8117 104.917 18.0705 104.917 17.1469C104.917 16.2231 105.227 15.4723 105.846 14.8943C106.469 14.3135 107.275 14.0231 108.265 14.0231C108.564 14.0231 108.864 14.0507 109.165 14.1061C109.469 14.1586 109.775 14.2388 110.082 14.3466ZM110.716 14.1517C110.921 14.1628 111.114 14.1711 111.294 14.1766C111.473 14.1821 111.632 14.1849 111.77 14.1849C111.919 14.1849 112.08 14.1821 112.251 14.1766C112.423 14.1711 112.603 14.1628 112.791 14.1517V14.4379H112.733C112.581 14.4379 112.464 14.4545 112.384 14.4877C112.304 14.5181 112.264 14.5638 112.264 14.6246C112.264 14.691 112.331 14.8404 112.467 15.0726C112.503 15.1335 112.532 15.1833 112.554 15.222L113.554 17.0058C114.008 16.2784 114.348 15.717 114.574 15.3215C114.801 14.9261 114.915 14.6965 114.915 14.6329C114.915 14.5665 114.88 14.5181 114.811 14.4877C114.745 14.4545 114.636 14.4379 114.484 14.4379H114.413V14.1517C114.579 14.1628 114.736 14.1711 114.886 14.1766C115.035 14.1821 115.166 14.1849 115.28 14.1849C115.421 14.1849 115.565 14.1821 115.711 14.1766C115.858 14.1711 116.009 14.1628 116.164 14.1517V14.4379C116.158 14.4351 116.151 14.4338 116.143 14.4338C116.134 14.431 116.122 14.4296 116.105 14.4296H116.056C115.809 14.4296 115.49 14.7449 115.097 15.3754C114.976 15.5718 114.879 15.7267 114.807 15.8401L113.761 17.4372L113.778 18.9182C113.784 19.3026 113.828 19.5432 113.911 19.64C113.994 19.734 114.159 19.7811 114.404 19.7811H114.55V20.0714C114.32 20.0604 114.101 20.0521 113.894 20.0466C113.689 20.041 113.506 20.0382 113.343 20.0382C113.204 20.0382 113.031 20.041 112.824 20.0466C112.619 20.0521 112.396 20.0604 112.156 20.0714V19.7811C112.176 19.7811 112.204 19.7824 112.243 19.7852C112.282 19.7879 112.309 19.7894 112.326 19.7894C112.566 19.7894 112.73 19.734 112.816 19.6234C112.901 19.5128 112.947 19.2832 112.953 18.9348L112.969 17.4621L111.629 15.2012C111.604 15.1653 111.573 15.1127 111.534 15.0436C111.288 14.6288 111.064 14.4214 110.862 14.4214C110.848 14.4214 110.83 14.4227 110.808 14.4255C110.789 14.4283 110.759 14.4324 110.721 14.4379L110.716 14.1517Z" fill="white"/>
</g>
<defs>
<clipPath id="clip0_108_16407">
<rect width="116.286" height="25" fill="white"/>
</clipPath>
</defs>
</svg>
